<?xml version="1.0" encoding="utf-8"?>
<!-- (c) Daniele Irsuti | SVG map of Basilicata - High -->
<svg xmlns="http://www.w3.org/2000/svg" xmlns:amcharts="http://amcharts.com/ammap" xmlns:xlink="http://www.w3.org/1999/xlink" version="1.1">
	<defs>
		<style type="text/css">
			.land
			{
				fill: #CCCCCC;
				fill-opacity: 1;
				stroke:white;
				stroke-opacity: 1;
				stroke-width:0.5;
			}
		</style>

		<amcharts:ammap projection="mercator" leftLongitude="6.624486" topLatitude="47.092916" rightLongitude="18.521301" bottomLatitude="35.490303"></amcharts:ammap>

	</defs>
    <g>
        <path id="basilicata_1" title="Potenza" d="M83.47,271.74L82.75 269.96 79.55 267.12 78.13 265.34 76 264.27 74.22 261.78 74.22 259.3 72.09 256.45 68.89 256.45 69.96 254.67 72.09 253.61 73.51 250.76 72.09 248.63 69.25 247.56 72.09 246.5 74.22 244.72 75.29 242.23 76.36 240.45 77.78 237.61 77.42 233.7 77.78 231.92 76.36 229.79 76.36 227.66 78.84 225.88 78.13 223.75 80.98 221.61 81.33 219.48 84.53 217.7 86.66 215.21 90.22 213.44 92 212.37 90.22 209.53 90.58 207.39 93.06 205.61 91.64 202.06 92.71 199.93 90.58 197.79 87.73 196.37 85.24 195.31 83.11 195.31 81.33 194.95 78.49 192.1 78.84 190.33 77.07 189.97 74.58 187.13 73.51 182.15 73.87 180.37 74.22 177.88 72.09 176.46 69.25 175.04 67.11 173.62 64.98 174.69 63.2 171.84 61.42 170.06 58.94 167.93 55.38 166.15 52.54 164.73 51.11 162.24 49.34 160.11 47.2 156.91 45.07 156.56 41.87 154.78 41.52 152.65 42.58 150.87 42.58 148.38 41.52 146.6 42.58 144.47 40.8 143.4 40.45 141.27 38.67 138.78 40.09 136.65 37.96 135.94 36.18 135.22 35.83 133.09 34.05 132.74 31.92 132.38 29.07 131.31 27.3 129.54 25.16 128.47 26.23 123.49 26.59 121.72 28.36 119.94 31.21 118.52 32.63 116.38 32.98 114.61 30.85 114.61 29.78 112.83 26.94 112.83 24.81 111.76 22.32 109.98 19.47 108.92 16.63 106.07 14.85 104.3 12.72 103.59 10.94 102.52 10.59 100.39 9.88 97.54 9.52 95.41 10.23 93.28 9.52 90.08 9.88 86.88 7.74 85.81 8.45 83.68 6.32 82.26 4.54 80.48 2.41 78.7 0.28 77.28 2.77 76.92 4.9 76.21 6.68 76.57 7.74 74.79 7.03 71.23 7.39 69.46 5.61 68.39 3.83 68.75 3.12 66.26 6.32 65.19 8.1 67.32 10.59 66.97 13.43 65.55 16.27 65.9 18.76 66.26 20.54 68.03 22.32 68.03 23.39 65.55 22.67 63.77 26.23 61.28 28.01 60.57 30.14 59.15 32.63 58.08 32.98 56.3 33.7 54.53 34.41 52.39 34.76 49.55 35.47 47.42 37.6 45.28 38.67 43.51 39.03 41.02 38.67 38.53 39.03 36.75 37.96 33.55 36.18 31.42 36.89 29.64 35.12 27.86 34.05 25.73 32.98 23.95 32.63 21.46 34.41 18.62 35.12 16.49 37.6 15.07 39.74 13.64 43.29 13.64 45.07 12.93 47.56 13.29 50.4 14.71 53.96 14.71 56.09 15.07 62.85 13.64 64.98 11.51 67.11 11.15 71.02 13.64 73.87 12.93 76.36 12.58 77.42 9.73 77.78 7.6 79.55 5.82 81.69 4.4 84.53 3.69 86.31 2.27 88.44 0.85 90.22 0.49 92.71 3.33 95.2 3.69 97.69 5.82 99.82 6.18 103.37 5.47 104.8 7.6 104.08 9.73 107.64 9.02 109.42 10.8 109.06 12.93 110.84 15.42 112.62 17.91 116.53 18.27 119.73 21.11 120.08 23.24 118.3 24.31 118.3 26.8 119.02 28.93 118.66 32.13 117.24 33.91 115.81 36.04 113.68 37.46 111.55 37.82 109.42 37.46 110.48 40.31 114.04 41.73 116.88 42.44 119.37 43.15 121.5 43.86 123.64 44.93 126.48 46.35 128.61 46.7 131.1 47.42 133.24 48.84 135.72 51.33 138.92 50.26 138.92 48.48 140.7 45.99 142.83 45.64 144.97 44.93 147.1 45.64 150.65 46.7 152.79 49.55 154.21 52.75 155.28 54.53 156.34 58.44 156.7 60.57 158.83 62.35 159.19 64.13 156.7 66.26 154.92 66.26 152.08 69.1 149.94 70.52 147.46 72.66 145.68 73.01 143.19 73.72 141.06 74.08 139.28 75.14 138.57 77.28 139.28 79.41 138.57 81.19 138.57 83.32 139.99 85.1 141.41 87.23 143.54 89.01 144.97 90.79 144.97 92.92 144.97 94.7 145.32 96.83 144.61 98.61 142.12 98.61 140.34 100.74 138.92 102.88 133.95 106.43 132.17 107.85 130.03 108.21 130.03 110.34 128.97 113.18 129.68 115.32 131.81 116.38 133.95 118.52 134.66 120.65 137.15 122.07 139.63 123.14 141.41 124.92 140.34 130.25 138.57 132.03 136.43 133.45 136.43 135.58 138.21 137.36 140.7 140.56 142.48 142.34 142.83 145.18 141.06 146.6 140.34 148.38 142.48 151.22 143.9 153 145.68 153.36 148.52 154.42 147.81 156.2 147.46 158.33 144.25 160.11 142.83 162.24 143.19 164.73 144.61 166.51 146.39 168.64 149.59 170.78 151.72 171.49 152.43 173.97 153.5 176.46 154.92 178.24 154.92 180.37 156.7 180.37 157.05 182.15 159.54 184.28 157.05 185.35 154.92 186.42 157.05 188.19 158.12 190.33 161.32 194.95 161.68 197.08 163.81 196.73 165.59 196.37 168.78 196.02 170.56 195.66 172.34 193.88 174.83 194.59 176.61 194.95 178.74 194.59 180.52 193.88 182.29 192.82 183.72 190.68 184.43 188.19 184.78 186.42 187.63 185 192.6 183.93 192.6 186.77 191.18 188.91 191.89 190.68 193.31 192.82 192.25 194.95 192.96 197.44 191.54 199.57 191.18 201.35 191.54 203.48 189.76 205.61 190.12 207.75 190.47 209.88 192.25 212.72 195.45 214.15 197.22 214.86 199.36 216.63 198.65 218.41 197.22 220.54 195.09 221.97 192.96 224.81 191.89 227.3 193.67 227.3 194.03 229.79 196.16 230.5 194.38 233.34 193.67 235.12 196.51 234.76 195.09 237.97 198.29 236.54 197.94 238.32 198.65 240.81 201.13 242.23 200.78 245.07 201.13 248.27 202.2 250.76 201.13 254.32 199.36 257.16 198.29 258.94 197.94 260.72 196.51 262.49 196.87 264.63 196.51 266.4 194.38 267.47 192.96 270.67 195.09 273.16 197.22 274.23 196.87 276 196.87 278.49 194.74 278.49 192.96 276 190.47 273.87 188.69 271.74 186.91 272.09 184.07 272.8 181.58 272.09 177.67 272.8 175.54 274.58 173.41 274.58 171.27 274.58 172.34 276.36 172.34 278.49 171.98 280.98 169.5 280.98 167.36 279.91 164.87 278.49 162.74 277.43 160.25 278.49 158.47 281.34 156.7 280.63 154.21 280.98 152.43 280.98 149.94 281.69 147.46 283.82 144.97 283.47 142.48 284.54 141.77 282.05 140.34 279.56 137.5 278.14 137.15 276 135.01 273.51 133.95 270.67 135.72 267.12 137.5 265.69 137.5 262.49 134.66 261.43 133.24 263.21 131.1 264.27 128.61 264.98 126.48 263.21 123.64 262.85 121.15 261.78 118.3 262.14 116.53 264.98 114.39 266.4 112.97 263.92 110.48 263.21 106.57 262.49 104.44 262.14 101.24 262.49 99.46 264.63 96.62 268.89 95.2 271.03 93.42 271.74 92.35 273.87 92.35 276.36 92 279.91 90.22 281.69 89.15 279.91 85.95 277.78 85.24 272.8 83.47 271.74z"></path>
    </g>
</svg>
