<?xml version="1.0" encoding="utf-8"?>
<!-- (c) Daniele Irsuti | SVG map of Calabria - High -->
<svg xmlns="http://www.w3.org/2000/svg" xmlns:amcharts="http://amcharts.com/ammap" xmlns:xlink="http://www.w3.org/1999/xlink" version="1.1">
	<defs>
		<style type="text/css">
			.land
			{
				fill: #CCCCCC;
				fill-opacity: 1;
				stroke:white;
				stroke-opacity: 1;
				stroke-width:0.5;
			}
		</style>

		<amcharts:ammap projection="mercator" leftLongitude="6.624486" topLatitude="47.092916" rightLongitude="18.521301" bottomLatitude="35.490303"></amcharts:ammap>

	</defs>
    <g>
        <path id="calabria_1" title="Reggio Calabria" d="M17.32,302.29L15.67 301.46 14.22 300.43 12.37 299.61 10.1 297.13 8.86 295.69 8.04 294.66 7.01 292.8 6.39 290.94 7.42 290.33 8.45 289.09 8.66 288.06 8.04 287.03 7.83 285.58 7.83 284.35 6.18 283.52 5.56 282.29 5.36 281.05 5.36 279.81 6.59 278.57 7.42 276.93 7.63 275.48 7.42 273.21 7.01 272.18 5.77 270.74 5.56 269.5 4.74 267.65 4.53 266.41 4.53 265.17 4.33 263.73 4.74 262.49 6.39 261.87 7.83 261.25 9.07 260.02 10.1 259.61 11.34 258.99 12.57 258.78 14.22 258.99 16.29 258.16 17.52 257.34 19.17 256.1 20.82 254.66 22.27 253.01 23.09 251.77 23.09 250.74 23.71 249.71 24.12 248.47 23.91 247.03 24.12 244.14 24.53 243.11 26.39 241.05 26.8 240.02 26.8 238.99 27.63 236.31 28.04 235.28 28.66 233.83 29.89 231.15 30.72 228.68 31.13 227.44 31.54 224.76 31.54 223.73 32.78 223.32 34.02 222.28 35.05 222.08 35.26 221.05 36.91 220.84 37.94 221.05 38.97 221.05 40 221.46 41.23 221.05 42.06 219.6 43.5 218.99 44.33 217.96 45.77 216.72 47.01 216.72 47.21 215.07 49.07 215.89 50.1 216.92 51.75 217.54 53.19 217.96 54.43 217.96 56.08 219.4 57.52 220.64 59.17 221.05 60.2 222.28 62.27 222.49 64.12 221.87 65.36 222.49 66.59 223.52 68.45 226 68.86 227.03 68.66 228.47 70.51 229.5 71.96 229.71 73.81 230.12 74.84 230.33 77.11 230.33 78.97 229.3 80.41 228.47 81.85 228.06 81.23 226.62 80.62 224.97 81.44 223.94 80 223.32 78.76 222.49 77.52 221.46 77.11 220.22 76.29 218.78 76.7 216.92 76.7 215.69 77.73 214.45 77.52 213.42 78.35 212.18 79.58 211.77 80.62 210.74 82.27 211.98 83.71 213.01 84.95 214.24 85.36 215.48 84.12 216.51 84.33 217.54 83.09 217.54 83.09 218.78 84.53 218.99 88.25 218.16 89.89 219.6 91.34 219.6 90.72 220.84 91.96 220.84 92.99 221.67 94.22 222.08 95.46 223.11 96.91 223.73 98.55 223.32 100 223.11 101.65 222.9 101.85 224.76 101.65 226 101.44 227.23 101.03 228.68 99.58 230.94 98.76 232.18 97.73 233.42 96.29 235.28 95.25 236.72 94.22 238.16 92.99 239.19 91.75 240.64 90.72 241.46 89.48 242.28 88.04 243.11 86.39 243.52 84.95 244.35 82.68 245.38 81.65 246 80.2 246.62 79.17 247.03 77.73 247.65 76.49 248.68 75.67 249.71 75.25 250.74 74.64 251.98 73.61 253.01 72.78 254.04 72.37 255.07 71.75 256.31 70.1 258.57 69.07 260.22 68.25 261.25 66.8 263.52 65.98 264.55 65.36 265.79 64.74 266.82 64.12 267.85 62.68 269.5 61.65 270.53 61.03 271.77 61.03 274.04 61.03 275.89 60.82 277.34 60.62 278.78 60.41 280.64 60.41 281.87 60 283.52 60 284.76 59.79 286 58.97 288.47 58.55 289.5 57.73 292.18 56.91 294.04 56.08 295.69 54.64 297.54 53.81 298.57 52.99 299.81 51.13 300.43 50.1 300.43 48.24 300.64 46.59 301.46 44.95 301.67 43.5 301.67 42.06 301.67 41.03 301.46 38.97 300.64 37.73 300.64 35.87 301.05 33.81 301.25 30.51 302.08 29.28 302.7 28.04 302.9 27.01 302.7 25.56 302.9 24.33 303.11 22.68 303.52 21.23 303.73 20.2 303.11 18.97 302.49 17.93 302.7 17.32 302.29z"></path>
        <path id="calabria_2" title="Vibo Valentia" d="M28.04,200.43L29.07 200.22 30.1 199.4 31.34 198.99 32.78 198.78 33.81 197.54 34.64 196.1 35.87 194.45 37.11 194.04 38.14 194.04 39.59 193.63 41.03 193.01 42.27 193.01 43.91 193.63 45.56 193.83 47.21 194.24 48.45 194.66 50.51 193.63 51.54 193.83 52.58 193.21 53.61 192.18 54.22 191.15 55.67 190.12 56.7 189.29 57.32 188.06 57.73 186.62 58.14 185.38 58.55 183.52 58.97 181.87 59.38 180.63 60.82 180.22 62.06 180.43 63.5 180.63 64.95 182.08 66.18 182.49 65.98 181.46 65.98 180.22 65.15 178.99 64.12 178.99 65.56 178.37 66.59 178.16 67.83 178.37 69.28 179.4 70.51 180.22 71.75 181.25 72.99 181.46 74.64 183.52 75.25 184.76 75.87 186 76.29 187.65 76.08 189.09 75.05 189.29 73.81 190.74 74.43 192.39 74.02 193.83 73.61 195.07 73.61 196.31 72.58 197.34 73.61 198.16 74.64 198.57 74.84 199.81 74.22 200.84 73.19 202.08 74.43 203.32 76.08 203.73 77.52 203.73 77.94 205.79 79.38 207.03 80.62 207.03 81.85 207.23 83.09 207.85 83.3 208.88 84.33 209.09 84.53 211.36 83.71 213.01 82.27 211.98 80.82 210.94 79.58 211.77 78.55 212.18 77.52 213.42 77.73 214.45 76.7 215.69 76.7 216.72 76.7 217.96 77.11 220.22 77.52 221.46 78.76 222.49 80 223.32 81.23 223.73 81.23 224.97 80.82 226 81.85 227.44 80.62 228.26 78.97 229.3 77.94 230.33 75.67 230.12 74.22 230.33 72.58 230.53 71.13 229.5 69.07 229.09 68.86 228.06 68.86 226.82 67.63 224.55 65.98 223.11 64.74 221.67 63.09 222.28 60.62 222.49 59.17 221.05 57.94 220.64 56.91 220.22 54.84 218.37 53.19 217.96 51.75 217.54 50.72 217.54 49.89 216.51 48.04 214.86 47.01 215.69 45.77 216.72 44.53 217.54 44.12 218.57 42.88 219.19 41.85 220.02 41.03 221.25 40 221.46 38.76 221.46 37.11 220.84 35.87 220.64 35.05 221.67 34.02 222.28 32.78 223.32 31.54 223.52 31.96 222.08 32.37 220.84 32.58 219.6 32.58 218.37 30.72 217.13 29.48 216.1 28.86 215.07 25.56 212.59 24.53 211.36 23.3 210.53 21.44 209.29 21.65 205.58 22.68 203.73 23.91 202.7 24.95 201.67 26.39 201.46 28.04 200.43z"></path>
        <path id="calabria_3" title="Catanzaro" d="M98.55,129.09L99.79 130.12 101.03 130.94 102.68 130.53 103.3 131.98 104.33 133.01 103.3 133.42 102.06 133.83 100.82 133.83 101.65 135.07 103.3 136.51 104.33 137.75 104.95 138.99 105.98 138.99 107.42 139.4 109.89 141.67 110.92 142.9 111.96 141.87 113.61 141.67 114.84 141.67 115.87 142.08 117.32 142.7 118.76 142.7 120 143.11 121.23 143.93 122.47 144.14 123.5 145.38 124.95 146.82 126.18 147.03 127.21 148.47 128.45 149.5 128.25 150.74 128.66 151.77 128.25 152.8 129.48 153.63 130.51 154.66 131.54 155.28 130.31 155.89 130.51 157.13 129.28 157.96 127.42 159.4 126.39 160.02 125.15 160.43 123.71 160.84 122.68 161.46 121.65 161.87 120.2 162.49 119.17 163.32 117.32 164.35 114.84 166 112.58 167.44 110.51 169.29 109.28 170.12 108.25 171.15 107.01 172.18 104.33 174.04 103.3 174.86 102.06 175.07 101.03 176.31 100.2 177.34 99.79 178.57 98.76 180.22 97.32 182.49 96.7 183.52 97.11 185.17 96.08 186.2 95.05 188.47 94.43 189.71 94.02 190.74 94.22 192.18 95.46 193.42 96.49 194.04 96.91 195.07 96.91 196.51 96.91 198.37 97.32 200.22 97.73 202.9 98.14 204.14 98.76 205.58 98.97 206.82 99.17 208.06 99.38 209.29 99.79 210.33 99.79 211.36 99.79 212.59 99.79 213.83 100.41 217.13 100.82 218.16 101.23 219.19 101.23 220.43 101.65 222.9 100.62 222.9 99.38 223.32 97.73 223.73 96.49 223.52 95.05 222.7 92.99 221.67 91.96 221.46 90.72 220.84 91.34 219.6 90.31 219.6 88.45 218.78 85.15 218.57 83.5 218.78 82.68 217.75 83.92 217.75 83.92 216.72 85.36 215.48 85.15 214.45 83.71 213.01 83.92 211.77 84.33 210.12 83.71 209.09 83.09 207.85 81.85 207.23 80.62 207.03 79.38 207.03 77.94 206.2 78.55 204.55 76.49 203.32 74.43 203.32 73.19 202.28 73.81 201.05 74.84 199.81 74.84 198.78 73.61 198.16 72.58 197.34 73.61 196.31 73.61 195.07 74.02 193.83 74.43 192.39 73.4 191.56 74.22 189.91 75.46 189.29 76.49 188.47 76.08 186.62 75.25 184.97 74.64 183.94 73.61 182.08 72.16 181.25 71.13 181.25 70.1 180.02 68.66 178.99 66.8 178.16 65.56 178.37 64.33 178.78 65.77 179.4 65.98 180.84 65.98 181.87 64.95 182.08 63.5 180.63 62.06 180.43 60.82 180.22 59.79 180.63 59.59 179.19 59.79 177.34 59.79 175.69 59.59 174.04 59.59 173.01 59.38 171.77 59.17 169.09 59.17 167.85 58.97 166.82 58.55 165.58 57.94 164.55 56.91 164.35 55.67 164.14 53.4 162.7 52.37 162.49 51.34 161.25 50.92 160.02 50.1 158.78 49.48 157.54 48.86 156.1 47.21 154.86 45.36 152.8 44.95 151.56 44.53 150.33 45.98 149.29 47.01 148.26 48.66 149.29 49.69 148.88 50.31 147.85 51.96 146.82 53.4 146.2 54.22 145.17 55.46 144.35 56.49 144.14 56.29 143.11 56.49 142.08 57.52 142.7 58.76 142.49 60.2 141.67 60.41 140.63 63.71 141.05 64.95 140.43 65.98 141.05 67.63 140.02 69.89 139.19 70.31 140.22 71.75 141.25 72.78 140.43 74.02 139.81 75.05 139.81 75.05 141.05 75.67 142.08 76.91 142.9 77.73 144.14 78.76 145.17 79.79 145.17 80.41 143.93 81.03 145.17 82.27 145.38 83.3 146.2 84.33 145.58 84.12 143.11 83.71 141.67 83.71 138.57 85.15 138.99 86.39 138.57 84.53 137.54 83.71 136.51 84.12 135.07 85.36 134.04 85.77 132.39 85.98 131.36 87.21 130.74 88.25 132.18 89.28 133.21 90.31 132.18 92.16 130.12 93.4 129.5 94.64 127.44 95.46 126.2 96.91 125.79 97.52 126.82 97.94 128.06 98.55 129.09z"></path>
        <path id="calabria_4" title="Crotone" d="M139.59,89.09L140.82 89.91 142.06 90.53 143.3 91.56 145.98 92.59 147.01 93.01 148.45 93.21 149.9 93.21 150.93 93.21 150.1 95.27 149.28 96.51 148.86 97.75 148.86 98.99 148.45 100.43 147.83 103.11 147.42 104.35 147.21 105.38 147.42 108.26 147.42 109.3 147.21 111.56 147.21 112.8 147.63 114.04 148.45 115.07 149.28 116.1 150.1 117.34 151.34 118.16 152.16 119.19 152.37 120.43 151.96 121.67 151.34 122.9 150.93 124.14 150.31 126.2 149.9 127.85 149.69 128.88 149.48 130.33 149.28 131.98 149.28 133.01 149.69 134.04 150.72 135.48 152.37 135.89 151.75 134.66 152.78 136.31 152.16 137.34 152.37 138.57 153.4 140.02 154.43 141.05 156.91 142.28 159.59 142.9 160.62 142.7 160.41 143.73 159.38 143.52 158.14 144.55 157.32 145.79 156.49 147.85 156.29 149.29 156.49 150.94 157.73 152.59 156.49 153.63 155.46 154.45 154.84 155.69 153.81 156.92 152.57 158.37 151.13 160.02 150.72 161.05 150.1 159.81 149.07 159.19 146.8 158.78 145.36 158.78 143.91 159.19 143.5 160.22 141.44 160.02 140.2 158.57 138.97 157.13 137.73 156.72 136.08 156.92 135.05 157.13 131.75 158.16 129.48 158.78 130.1 157.75 130.51 156.72 131.54 155.48 130.51 154.66 129.48 153.63 128.45 153.01 128.66 151.98 128.25 150.74 128.45 149.5 127.21 148.47 126.39 147.44 124.95 146.82 123.5 145.38 122.47 144.14 121.23 143.93 120 143.11 118.76 142.7 117.73 142.7 116.49 142.49 115.46 141.87 113.61 141.67 112.37 141.87 111.13 142.9 109.89 141.67 107.83 140.02 105.98 138.99 104.95 138.99 104.33 137.75 103.3 136.51 101.85 135.07 100.62 134.24 101.65 133.83 103.09 133.42 104.53 133.63 103.5 132.59 103.09 130.74 101.85 130.74 100.62 130.74 98.97 129.91 97.94 128.06 97.52 126.82 96.91 125.79 97.94 124.97 99.17 124.76 100.41 124.97 101.85 124.55 102.88 123.93 104.95 123.93 106.18 124.97 107.83 124.55 110.72 125.17 111.96 124.76 113.19 124.14 112.99 122.9 112.58 121.25 110.51 118.99 110.1 117.75 110.72 116.31 111.13 115.27 110.72 114.24 110.1 112.8 111.13 111.56 109.89 110.74 108.86 109.5 107.83 108.88 106.18 108.26 105.15 107.85 105.15 106.82 105.15 105.58 104.53 104.55 105.15 103.52 106.18 103.93 107.42 103.73 107.21 102.7 108.66 102.7 110.1 102.28 111.34 103.11 113.19 103.73 114.22 103.11 115.46 103.32 116.91 103.73 118.14 103.73 118.97 102.28 120.41 101.67 121.44 101.87 122.06 100.64 123.09 99.4 124.53 98.57 125.77 97.95 125.98 96.72 124.33 95.07 125.56 94.04 127.83 95.07 128.86 96.1 130.1 95.89 129.69 94.45 129.9 93.21 129.69 90.74 130.72 89.71 131.34 88.47 132.37 87.65 133.61 87.03 134.43 85.79 135.67 84.35 136.7 84.14 137.32 85.79 137.73 86.82 138.97 88.47 139.59 89.09z"></path>
        <path id="calabria_5" title="Cosenza" d="M9.07,68.06L8.86 66.82 8.04 63.73 7.83 62.49 7.83 60.84 7.21 59.19 6.39 56.92 5.98 55.69 5.77 54.45 5.36 53.42 4.95 50.94 4.53 49.71 3.5 48.88 3.5 47.65 2.88 46.41 4.12 45.38 4.74 44.35 4.53 43.31 3.71 41.25 3.5 40.22 2.68 38.78 1.85 37.54 0.41 35.48 1.44 34.45 1.65 32.39 1.65 31.15 2.27 29.91 3.3 29.3 4.12 28.06 5.15 26.41 5.98 25.38 7.83 24.35 9.28 23.73 11.13 25.79 13.4 24.96 13.81 26 14.84 26.2 16.49 24.55 17.93 23.93 19.38 24.35 21.03 24.76 22.47 25.38 24.12 25.38 25.36 24.76 26.18 23.73 27.83 23.93 28.25 25.17 27.83 26.2 26.18 28.26 26.39 30.74 27.63 31.98 27.21 33.01 29.48 34.24 30.31 35.69 30.72 37.13 31.96 36.51 33.61 36.72 35.05 35.69 36.29 35.07 37.52 35.07 38.97 34.86 40 35.27 40.62 34.24 41.85 32.8 42.88 33.21 44.95 34.04 46.39 35.07 47.63 35.48 48.04 33.83 48.04 32.59 47.42 31.36 48.66 31.36 49.69 31.36 50.92 30.74 52.99 29.71 54.22 30.12 56.29 29.91 57.52 29.71 58.55 30.94 60 32.18 61.03 33.63 62.27 33.63 62.27 32.18 62.47 31.15 61.44 30.74 60.2 29.5 60.82 27.23 61.85 26.61 62.27 25.58 62.06 24.35 62.88 23.32 63.09 22.28 63.71 21.25 64.74 20.02 65.36 17.95 65.15 16.72 64.53 14.45 64.53 13.42 65.15 12.39 65.36 10.94 65.98 9.71 66.39 8.68 65.98 6.61 65.98 5.17 65.36 3.73 66.39 2.7 66.18 0.84 67.42 2.08 68.66 2.08 70.92 1.46 72.16 1.87 73.19 2.28 74.43 2.28 76.08 1.87 77.32 2.9 78.55 2.49 80.2 1.46 81.23 1.46 82.68 1.05 84.53 0.84 85.98 1.05 87.01 0.43 89.07 1.67 88.66 3.31 87.42 4.76 86.39 6.61 85.98 7.64 85.77 9.29 86.18 10.74 85.77 11.77 85.77 12.8 86.59 14.66 87.21 16.51 87.42 17.54 87.83 20.02 88.45 21.25 89.48 22.28 89.69 23.73 88.04 26.61 87.01 28.26 85.56 30.53 84.12 31.77 83.3 33.01 81.65 35.89 80.82 37.34 79.79 39.81 78.97 40.84 78.55 41.87 77.94 42.9 77.52 44.55 77.32 46 77.11 48.26 77.32 49.5 77.32 50.74 77.73 51.77 78.55 53.21 79.58 54.45 81.85 55.48 82.06 57.13 82.06 58.57 82.06 60.43 82.27 61.46 82.06 62.49 82.27 64.55 83.5 64.14 86.59 66.41 87.63 66.82 89.07 67.44 90.31 68.06 91.54 68.47 92.58 68.68 93.81 68.68 94.84 68.68 97.32 68.47 98.55 68.26 99.79 68.06 101.03 68.26 102.47 68.26 103.5 68.47 104.53 68.47 105.77 67.64 107.83 67.44 109.28 68.06 110.1 69.09 111.13 69.71 112.58 70.53 113.81 71.97 114.22 73.01 115.46 74.86 116.7 75.69 117.73 76.51 118.76 76.92 119.79 77.95 121.23 78.57 122.88 78.99 124.12 80.02 125.56 80.43 127.63 81.87 129.07 82.28 130.51 82.7 131.75 82.9 133.19 82.9 134.22 83.11 136.08 83.52 134.43 85.79 133.61 86.82 132.57 87.65 131.54 88.26 130.93 89.3 129.69 90.33 129.9 93.21 129.69 94.24 130.1 95.69 128.86 96.1 127.83 95.27 125.98 94.24 124.33 94.45 125.15 96.1 125.98 97.75 124.95 98.16 123.71 99.19 122.47 100.02 121.65 101.46 120.62 101.67 118.97 102.28 118.76 103.73 117.52 103.52 116.49 103.73 114.22 103.11 113.19 103.73 111.75 103.93 110.72 102.28 108.86 102.9 107.63 102.49 107.42 103.52 106.39 103.93 105.15 103.52 104.53 104.55 105.15 105.58 105.15 106.82 105.15 107.85 106.18 108.26 107.83 108.88 108.86 109.5 109.89 110.74 111.13 111.56 110.1 112.8 110.72 114.04 111.13 115.07 110.72 116.31 110.31 117.34 110.51 118.99 111.75 120.43 112.99 122.28 113.4 123.52 111.96 124.76 110.92 125.17 108.86 125.17 107.21 124.55 105.36 124.76 103.92 123.93 101.85 124.55 100.82 124.97 99.58 124.76 98.55 124.97 97.11 125.58 95.46 126.2 94.64 127.44 94.22 128.68 92.99 129.5 90.72 131.36 89.89 132.59 88.25 132.39 87.83 131.15 85.98 131.36 85.77 132.39 85.77 133.83 84.53 134.45 83.71 136.51 84.53 137.54 85.56 137.75 87.01 137.54 85.98 138.78 84.53 138.78 83.71 140.84 83.92 142.28 84.53 144.97 83.5 146.2 82.47 145.38 81.23 145.17 80.62 144.14 79.79 145.17 78.76 145.17 77.73 144.14 76.91 142.9 75.87 142.08 75.05 141.05 75.05 139.81 74.02 139.81 72.78 140.43 71.75 141.25 70.31 140.22 70.1 139.19 68.04 139.6 65.98 141.05 64.95 140.43 63.91 141.25 61.23 140.02 60.41 141.05 59.17 142.08 57.73 142.9 57.11 141.87 56.49 142.9 56.7 143.93 55.67 144.55 54.43 144.76 53.61 145.79 52.58 146.62 50.92 147.44 49.69 148.68 48.66 149.29 47.83 148.06 46.8 148.68 45.56 149.5 44.33 149.71 43.09 145.17 42.88 143.93 42.27 142.49 41.85 141.46 41.23 139.81 40.62 138.57 40.41 136.92 40 135.28 40 134.04 39.79 132.8 39.59 130.33 38.97 127.23 38.76 125.17 38.35 121.87 37.94 120.43 37.73 119.19 37.32 116.72 36.7 115.69 36.29 114.04 35.67 111.36 35.26 110.12 34.43 108.88 34.02 107.44 33.61 106.41 33.19 105.17 32.58 103.73 31.75 101.87 30.93 100.22 30.31 98.78 29.89 97.54 29.07 96.31 28.04 95.27 26.18 93.83 25.15 92.18 24.53 91.15 23.71 89.5 22.27 87.85 21.23 87.03 19.38 86 18.35 85.79 17.32 85.38 16.49 84.35 15.87 82.9 15.67 81.67 14.64 78.78 14.02 77.34 13.4 75.48 12.57 74.45 11.75 71.56 11.13 69.91 10.51 68.88 9.28 67.85 9.07 68.06z"></path>
    </g>
</svg>
