<?xml version="1.0" encoding="utf-8"?>
<!-- (c) Daniele Irsuti | SVG map of Lazio - High -->
<svg xmlns="http://www.w3.org/2000/svg" xmlns:amcharts="http://amcharts.com/ammap" xmlns:xlink="http://www.w3.org/1999/xlink" version="1.1">
	<defs>
		<style type="text/css">
			.land
			{
				fill: #CCCCCC;
				fill-opacity: 1;
				stroke:white;
				stroke-opacity: 1;
				stroke-width:0.5;
			}
		</style>

		<amcharts:ammap projection="mercator" leftLongitude="6.624486" topLatitude="47.092916" rightLongitude="18.521301" bottomLatitude="35.490303"></amcharts:ammap>

	</defs>
	<g>
		<path id="lazio_5" title="Rieti" d="M410.48,17.14L411.78 17.24 412.88 18.94 413.48 19.84 414.38 20.44 414.98 20.44 415.48 20.44 416.78 20.74 417.28 20.84 418.18 21.34 419.58 22.34 420.78 23.54 421.28 24.24 421.48 24.74 421.78 25.44 423.78 27.54 424.78 28.44 426.28 29.14 428.38 30.34 427.38 34.24 426.98 37.04 427.38 38.44 428.58 39.34 429.08 39.84 430.88 42.34 432.08 44.04 432.58 44.34 433.78 43.94 434.38 43.84 434.88 43.84 437.58 44.94 439.98 45.44 440.98 45.74 441.28 46.64 441.28 47.54 440.98 49.44 440.78 50.04 438.88 51.94 438.28 52.34 438.78 53.94 438.78 54.64 438.28 55.54 437.68 56.04 437.38 57.14 437.28 58.54 437.88 61.04 438.58 61.64 436.28 63.44 436.48 64.24 435.98 64.94 431.28 65.94 429.88 66.64 427.28 67.24 426.48 67.14 425.98 66.64 425.18 66.14 423.78 65.94 422.68 65.94 422.28 66.64 420.98 67.54 420.28 67.84 418.78 68.44 417.08 68.94 416.18 69.44 414.78 67.44 413.88 65.64 412.78 65.44 408.78 65.64 408.08 65.74 407.08 66.14 406.98 66.84 405.88 68.44 405.38 69.04 403.98 68.74 403.08 68.44 402.38 68.04 401.88 67.34 401.48 66.74 401.08 66.24 399.18 66.24 397.68 66.44 396.78 65.84 395.78 65.54 395.28 65.44 394.68 65.54 392.88 65.14 393.08 66.14 393.18 66.64 393.18 67.34 393.18 68.04 392.58 68.64 390.98 70.14 389.68 71.14 389.28 72.14 389.38 72.94 389.58 73.74 389.88 75.94 390.08 76.74 390.18 77.44 387.98 79.54 386.98 80.34 385.48 80.04 385.88 81.24 386.08 83.74 386.78 85.24 388.48 87.24 390.08 87.64 390.78 88.04 390.98 89.04 390.88 89.64 390.48 92.24 389.88 96.34 389.98 97.04 390.78 97.94 391.58 98.34 389.98 99.94 386.78 103.34 386.28 103.84 384.58 103.94 382.28 104.74 381.68 105.24 380.18 107.14 377.98 109.84 379.88 110.64 381.58 111.94 383.88 113.94 386.78 117.54 387.28 118.54 388.08 119.14 388.78 119.54 390.68 120.54 392.18 120.74 395.18 122.44 395.08 123.04 396.28 125.24 395.48 128.24 394.88 128.84 391.18 131.84 390.38 132.84 388.98 134.54 387.68 136.04 388.68 136.84 390.18 137.44 391.58 138.14 394.68 140.74 394.98 141.34 395.18 141.84 396.38 142.94 396.98 143.24 397.58 143.44 398.18 143.34 399.18 143.44 399.88 143.94 400.38 144.44 401.18 145.04 402.18 145.84 403.18 146.54 403.68 146.84 404.58 146.74 405.18 148.64 405.28 149.54 405.38 151.74 405.58 154.84 405.78 156.14 405.98 156.84 406.48 157.34 406.88 158.04 407.18 158.84 407.38 159.34 408.38 160.84 409.28 161.94 412.38 162.94 415.88 166.04 416.28 166.54 417.08 167.94 417.08 168.44 416.88 169.14 417.18 169.64 418.38 170.74 419.08 171.34 420.88 172.44 422.28 172.94 422.88 173.04 424.28 172.94 425.38 172.94 427.08 173.04 427.78 173.24 428.98 174.34 430.58 175.04 431.18 175.14 432.48 176.54 430.78 178.64 430.48 179.54 432.48 181.94 435.38 184.44 437.68 184.74 439.88 185.04 440.38 185.34 440.88 185.94 441.48 186.24 441.88 187.04 440.88 187.54 439.58 187.64 439.08 187.74 438.58 187.84 437.68 188.34 436.48 189.24 435.68 189.44 434.98 189.34 433.68 188.94 436.28 191.74 435.48 192.24 434.68 192.54 434.18 192.64 433.08 192.44 432.28 192.24 431.58 192.14 430.18 193.14 429.28 193.94 429.68 194.54 430.68 195.84 429.38 196.74 428.48 196.24 426.88 197.74 426.38 198.54 426.08 199.64 425.88 200.24 425.58 201.24 420.98 202.64 419.68 202.54 418.68 201.74 417.38 201.84 416.38 202.14 414.58 203.94 412.88 205.14 410.18 204.74 409.98 204.24 408.48 202.24 406.78 200.54 406.28 200.44 405.18 200.24 404.58 200.14 402.78 199.24 401.88 198.44 399.68 196.34 397.48 196.24 397.38 196.84 396.38 198.04 395.68 198.44 394.48 198.94 394.08 197.94 392.68 197.34 391.78 196.94 391.18 196.64 389.58 195.64 386.78 193.84 384.68 192.24 383.88 191.54 382.78 191.54 381.68 192.04 381.18 192.14 378.88 191.84 375.28 191.54 375.28 192.34 375.28 192.94 376.88 194.94 376.98 196.74 376.18 198.24 375.58 199.84 375.78 200.74 375.78 201.34 375.58 201.94 375.28 202.44 374.68 202.94 373.58 203.54 373.18 204.74 372.88 205.44 370.08 208.44 364.78 210.04 363.28 209.24 363.38 211.24 361.38 211.44 360.68 211.34 360.18 211.04 359.98 210.44 359.78 209.74 356.48 209.04 355.88 209.14 355.08 208.44 354.68 207.44 352.08 207.64 351.28 207.24 348.88 210.54 348.98 211.84 348.18 213.14 347.08 215.04 347.18 216.04 346.78 217.54 345.48 219.84 343.98 218.74 341.68 215.64 339.08 213.34 338.38 212.44 336.18 212.74 335.68 213.04 334.58 214.34 333.58 216.94 332.88 217.24 330.78 217.34 330.18 216.84 330.38 216.24 326.28 216.54 325.98 215.14 325.38 213.34 323.98 209.44 323.18 208.94 321.58 206.14 321.78 205.64 321.78 204.64 320.88 204.14 320.18 203.84 317.28 203.14 316.58 202.54 315.88 202.04 313.78 201.94 312.68 200.54 310.08 200.74 309.58 199.44 308.18 198.64 307.28 198.44 305.88 198.14 305.58 197.54 305.48 196.84 306.58 196.34 307.48 196.14 308.08 195.84 308.58 195.24 308.88 193.74 307.78 192.44 306.18 192.44 305.08 191.84 304.08 191.64 303.48 191.54 302.68 191.64 300.38 193.14 299.58 194.04 298.78 195.14 297.68 197.54 297.18 198.64 296.18 198.74 295.38 198.44 292.98 198.94 291.98 200.04 291.68 200.94 291.48 201.84 291.28 202.44 290.08 203.04 288.68 203.44 284.48 203.54 284.48 202.74 282.78 201.94 281.28 201.54 279.78 202.04 278.48 203.04 278.08 203.64 277.78 204.14 276.58 204.44 275.88 204.14 275.38 203.54 275.38 202.94 275.98 202.54 275.98 201.94 274.98 200.24 274.18 199.54 273.08 198.94 272.48 198.44 271.68 198.84 270.88 198.44 270.08 197.54 269.58 196.64 269.28 196.14 268.08 195.54 267.58 195.44 266.98 195.54 266.48 195.44 266.48 194.74 266.88 194.14 267.98 193.24 268.28 192.74 268.28 192.04 267.98 191.34 267.08 189.94 267.18 189.04 268.08 188.24 268.68 187.84 269.58 187.84 270.28 187.84 272.18 187.34 272.68 186.34 272.58 185.64 272.58 184.94 272.68 183.34 272.88 181.54 272.98 180.94 273.18 180.44 273.38 179.94 273.28 179.14 272.98 178.34 271.58 177.54 271.28 174.84 270.38 174.64 269.78 174.64 269.18 174.64 268.48 174.44 267.78 173.84 266.78 172.84 265.28 171.64 264.78 171.34 264.78 170.74 264.98 170.14 265.08 169.54 265.08 168.64 264.98 167.74 264.78 167.24 264.18 167.04 263.68 167.44 262.98 167.94 260.58 169.54 259.58 170.24 258.88 170.44 258.28 170.04 257.98 169.24 257.98 168.44 258.18 167.74 258.48 167.04 258.88 166.24 259.28 165.64 259.78 165.04 259.68 164.44 258.88 164.04 258.18 163.84 257.58 163.94 257.18 164.54 257.28 165.14 257.58 165.94 257.78 166.74 257.78 167.54 254.08 168.94 253.58 168.44 254.08 167.24 254.08 166.34 253.68 163.64 253.48 162.94 251.78 161.74 249.48 161.14 248.38 161.04 247.98 161.54 246.78 162.34 246.28 162.34 245.78 162.24 245.18 161.94 244.58 161.34 241.88 160.94 240.98 161.04 239.28 161.64 238.68 161.74 237.88 161.34 237.28 160.84 235.98 159.04 234.28 155.64 234.48 155.14 234.98 154.94 235.58 155.04 236.08 155.04 236.78 154.94 237.38 154.74 237.48 154.24 236.18 152.94 235.58 152.64 235.08 152.64 234.38 152.64 233.78 152.44 233.18 152.24 232.58 151.64 231.38 149.64 231.18 148.94 231.28 146.64 232.18 145.84 232.68 145.64 233.18 145.14 233.88 144.34 233.98 143.74 233.88 143.14 232.48 143.44 231.58 143.74 230.68 143.64 229.28 143.04 229.08 140.94 229.38 140.14 229.18 136.54 226.58 135.44 225.38 135.14 224.88 134.44 224.78 133.94 225.08 133.14 225.98 132.34 225.88 131.54 224.98 131.44 226.48 130.44 227.18 130.84 228.08 131.14 229.18 130.84 229.88 130.64 230.98 131.04 231.48 132.04 231.78 132.54 232.78 133.34 233.28 133.64 235.68 131.94 236.18 130.84 236.28 130.04 236.88 130.34 237.78 130.14 238.48 129.54 239.38 128.84 240.18 128.54 240.98 128.44 241.58 128.54 242.98 129.94 242.88 130.84 242.38 130.94 242.28 135.44 243.28 138.44 243.68 139.24 244.38 139.64 245.28 140.04 245.98 140.14 246.48 139.94 246.68 139.34 246.88 138.54 247.78 137.04 249.68 135.04 250.28 134.54 253.58 133.84 254.38 134.04 256.18 132.64 261.18 128.34 261.88 128.04 262.98 127.44 262.78 126.34 263.88 124.94 264.48 124.44 264.78 123.14 264.68 121.84 264.58 121.04 264.28 120.44 263.78 119.94 263.88 118.94 263.88 117.44 264.78 114.44 265.28 112.94 265.28 110.84 265.18 109.74 264.58 109.34 263.98 108.84 265.48 107.44 266.38 107.24 267.88 107.14 268.88 107.14 269.58 107.34 270.48 108.34 270.08 109.54 269.78 110.14 270.08 110.94 270.38 111.74 270.98 112.04 271.58 112.54 272.38 113.64 272.28 114.84 273.78 115.34 274.88 115.34 275.58 115.44 276.68 115.34 277.78 115.04 281.58 112.64 283.18 111.34 283.68 110.24 284.18 108.94 285.88 108.14 286.78 109.04 289.08 108.94 289.48 108.14 290.98 106.54 291.78 106.34 292.78 105.64 292.18 104.84 290.78 103.44 289.48 102.64 288.78 102.24 287.78 101.24 286.88 99.94 286.58 99.34 286.38 98.74 285.48 96.74 287.08 95.94 287.68 95.54 288.28 94.94 289.08 94.04 289.88 94.04 292.18 93.94 293.18 93.84 294.48 93.04 295.88 92.74 297.58 92.74 298.78 92.64 299.38 92.34 299.58 91.34 299.38 90.24 299.08 86.84 299.88 86.64 300.48 86.44 301.48 86.24 302.08 86.04 304.18 85.74 304.68 85.64 305.38 85.34 305.88 85.24 306.48 85.04 307.08 85.04 309.28 85.84 309.68 84.84 312.78 82.54 314.68 80.94 315.18 79.94 315.68 79.44 319.18 77.54 320.98 76.64 323.28 76.04 324.78 75.64 325.48 75.64 325.78 74.94 325.88 73.74 325.88 72.94 325.88 71.34 325.68 70.84 324.78 69.44 324.08 68.44 323.78 67.84 322.68 65.14 322.28 63.94 322.38 62.34 322.28 61.84 324.28 60.44 325.78 59.44 326.38 59.94 327.38 60.64 327.98 60.64 328.58 60.84 330.38 61.34 330.88 62.04 330.98 62.54 331.88 62.94 333.58 63.24 334.38 61.84 335.08 59.34 337.58 58.34 338.38 58.14 340.38 58.04 341.08 58.04 341.78 58.24 343.28 58.44 345.28 58.74 345.98 58.74 348.88 58.74 350.18 58.64 351.28 58.24 352.38 57.14 352.48 56.64 352.28 56.04 351.78 55.34 352.18 53.94 353.28 52.54 353.98 51.44 354.68 51.14 355.88 51.64 356.28 52.54 356.28 53.34 356.48 53.94 357.08 54.44 360.58 55.44 361.98 55.74 362.78 55.74 363.38 55.54 365.18 54.44 365.88 53.84 366.68 53.04 368.38 52.04 369.18 51.74 370.08 51.54 370.68 51.34 371.88 50.64 372.58 50.14 373.48 49.44 375.28 46.74 375.08 46.04 374.78 45.04 375.28 44.44 377.68 43.74 378.68 45.24 379.18 45.14 379.98 46.14 381.28 47.64 383.48 46.24 384.08 45.54 384.78 44.44 385.78 43.54 386.98 42.34 387.68 41.54 388.48 36.04 387.88 36.04 387.38 35.34 387.28 34.84 387.48 34.04 387.68 33.44 387.88 32.84 389.28 30.14 389.98 28.84 390.58 28.24 390.78 27.74 390.88 27.14 390.68 26.44 390.28 25.14 389.98 24.54 389.88 24.04 389.78 23.34 390.18 20.44 391.88 20.04 392.48 19.94 392.98 20.14 394.18 21.14 399.48 22.04 401.28 22.34 404.18 22.94 404.98 23.44 405.48 22.84 406.28 21.34 406.18 20.84 406.18 20.04 406.78 18.14 406.98 17.64 410.38 17.24 410.48 17.14z"></path>
		<path id="lazio_4" title="Roma" class="land" d="M279.08,420.54L278.68 419.94 278.08 418.44 275.68 414.14 275.18 413.24 273.38 410.54 269.38 404.54 267.48 401.54 266.98 400.84 266.28 399.84 265.08 398.04 263.28 395.64 261.98 393.84 259.68 390.94 259.18 390.44 258.68 389.74 257.28 388.04 256.18 386.84 253.48 383.84 250.58 380.64 249.28 379.04 248.58 378.14 247.48 376.94 246.18 375.54 245.88 374.94 245.48 374.44 242.28 370.84 241.38 369.84 234.08 362.24 232.28 360.64 230.08 358.84 229.28 358.14 227.18 356.34 225.18 354.54 224.58 353.94 223.98 353.44 222.68 352.24 219.08 349.44 217.58 348.44 215.28 346.84 214.48 346.24 213.88 345.94 209.58 343.44 206.08 341.44 204.18 340.44 203.38 340.04 198.28 337.64 197.48 337.24 196.78 336.94 192.78 335.24 191.58 334.74 189.98 334.24 189.08 333.94 188.18 333.84 187.48 334.04 186.98 334.14 186.38 333.54 187.98 332.74 188.68 332.44 189.18 332.34 189.88 332.24 190.38 332.14 191.08 331.84 190.38 331.94 189.78 332.04 189.18 332.14 188.68 332.24 188.08 332.44 186.88 333.04 184.28 332.34 184.78 332.04 185.18 331.44 185.28 330.34 184.08 327.34 183.68 326.54 183.28 325.74 182.78 324.54 183.18 324.04 183.48 323.44 183.68 321.14 183.18 319.44 181.08 313.74 179.78 310.24 179.28 308.94 178.38 306.54 177.68 304.94 177.38 304.34 176.98 303.34 175.58 300.24 174.98 299.04 173.98 297.24 173.58 296.44 172.58 294.64 171.98 293.44 170.98 291.74 170.58 291.14 169.38 289.14 168.48 287.84 167.38 286.24 165.48 283.54 164.98 283.04 164.48 282.24 163.08 280.74 160.68 278.74 159.98 278.24 159.28 277.64 158.58 277.24 157.88 276.84 155.58 275.94 154.98 275.84 154.18 275.94 152.88 275.54 151.68 275.04 150.78 274.14 150.38 273.64 149.28 272.74 148.58 272.14 147.88 271.64 147.08 271.14 145.18 270.24 144.58 270.04 142.78 269.34 141.98 269.14 141.28 268.24 140.78 267.64 139.48 266.04 138.88 264.94 138.18 263.74 137.38 262.74 136.48 261.64 135.78 261.04 133.48 259.54 131.78 258.64 129.18 258.04 125.48 257.44 124.68 256.94 124.18 256.44 123.78 255.84 123.38 254.94 122.88 253.94 122.58 253.44 122.08 252.74 121.58 252.14 120.98 251.64 118.78 250.54 116.98 249.44 114.48 247.54 111.38 245.44 110.38 244.84 108.48 244.34 105.48 244.74 102.08 245.54 100.28 246.14 95.78 247.74 94.38 248.14 92.88 248.44 92.08 248.44 91.58 248.04 91.38 247.54 91.58 246.94 91.48 246.14 90.28 244.74 88.48 242.44 88.48 241.64 88.28 240.64 87.98 240.14 86.68 239.34 86.18 238.74 85.88 238.14 85.88 237.34 85.88 237.84 86.08 238.44 86.38 238.94 86.88 239.34 87.08 238.74 86.78 237.14 85.28 233.34 83.58 231.44 82.18 230.64 81.18 230.64 80.58 230.74 78.98 229.44 78.28 228.84 77.48 227.84 78.38 228.74 80.58 230.44 81.28 229.84 80.98 228.84 78.38 226.34 77.68 226.94 76.48 225.14 76.28 223.14 75.98 221.34 74.48 220.34 73.98 220.04 72.88 219.14 70.78 215.94 70.08 214.44 70.18 213.14 69.88 212.44 69.38 211.84 68.58 211.04 67.78 209.94 68.28 209.54 69.98 208.94 70.78 208.64 74.28 208.34 77.68 208.24 80.28 208.94 80.98 208.84 81.58 208.94 82.48 209.14 83.08 209.34 83.68 210.04 86.08 211.64 87.08 212.04 88.08 212.74 88.68 212.24 89.08 211.74 89.88 209.44 89.48 208.14 89.18 207.34 88.98 206.74 89.68 205.54 90.48 204.34 91.08 203.84 91.78 203.74 93.28 202.34 93.38 201.74 93.78 200.54 93.98 200.04 96.18 198.04 97.88 196.04 97.28 194.34 97.98 192.94 98.68 190.44 98.28 189.84 98.38 189.34 98.98 189.34 98.98 189.94 99.88 189.74 100.68 188.34 100.68 187.84 100.18 187.44 100.88 186.84 102.98 186.64 103.58 186.34 103.28 185.84 102.88 185.14 107.28 183.14 108.68 185.74 109.48 186.54 110.48 187.34 113.68 189.64 114.68 189.54 115.68 189.74 116.18 190.14 116.58 190.64 118.38 191.64 120.08 191.94 120.68 192.04 120.98 191.44 121.68 191.14 122.98 193.04 123.78 195.24 124.98 198.44 125.78 200.24 126.98 202.24 127.68 203.74 127.98 205.94 128.78 207.74 133.88 208.94 135.08 209.24 136.78 209.34 138.28 208.74 139.38 208.84 139.88 208.94 140.48 208.84 141.08 208.44 141.28 207.74 141.38 205.54 143.98 205.34 144.88 206.34 145.58 206.54 146.18 206.44 146.78 206.24 147.68 206.04 148.18 206.14 148.88 206.24 149.48 206.24 150.18 205.94 150.88 205.64 155.08 205.84 156.38 206.64 157.58 207.44 158.48 208.34 158.98 209.04 159.28 209.54 159.38 210.04 160.38 208.84 160.78 207.94 161.88 207.24 162.28 205.84 162.88 205.74 163.48 205.54 164.18 205.04 165.68 203.84 166.28 201.84 166.48 201.24 167.58 200.44 168.18 200.14 168.68 200.04 169.58 200.14 171.08 200.14 172.08 200.04 172.58 200.04 174.08 199.44 174.18 198.94 174.68 198.24 175.78 197.74 177.08 197.34 178.28 198.44 180.38 199.14 181.68 200.24 184.98 200.04 186.28 199.54 188.58 198.74 189.78 198.34 190.48 199.54 190.08 200.04 189.98 200.64 190.18 201.24 190.78 201.54 191.38 201.54 192.08 201.34 192.58 201.14 193.08 200.54 194.38 201.44 195.18 202.04 195.88 202.84 196.28 203.44 197.68 204.64 197.28 206.04 197.18 206.74 197.88 207.44 198.68 208.04 199.08 207.44 199.98 207.44 201.18 208.04 201.88 208.44 202.48 208.74 203.38 208.74 206.68 206.64 207.18 205.14 207.68 203.84 208.58 202.44 210.28 201.64 211.88 200.84 212.38 200.14 213.28 196.24 212.78 193.64 212.58 190.34 211.98 189.74 212.08 189.04 212.18 188.54 212.68 188.04 213.18 187.84 213.78 187.84 214.88 187.44 215.48 186.84 217.18 184.24 217.68 183.04 217.68 182.44 217.98 181.84 218.48 181.54 218.98 182.54 219.68 182.74 220.18 182.54 221.08 180.24 221.18 179.54 220.18 177.64 219.68 177.04 219.88 175.84 220.68 175.04 220.88 173.94 221.38 175.94 222.08 177.44 222.18 178.54 222.38 179.54 222.78 180.84 223.08 185.64 222.58 190.74 221.78 196.14 221.58 196.94 222.48 197.54 225.08 197.14 225.48 196.64 225.98 195.94 226.68 194.54 226.78 193.44 226.68 192.54 226.68 191.94 226.78 191.24 229.18 189.94 230.58 189.84 231.28 190.44 231.88 190.34 232.78 189.44 233.48 186.74 233.48 186.14 233.18 185.64 234.18 181.34 234.68 180.94 235.58 180.94 236.28 180.64 236.48 179.64 236.38 178.84 236.98 178.34 235.68 176.14 236.48 175.14 237.28 171.84 238.08 169.44 240.28 169.24 241.98 167.94 241.68 166.94 243.98 163.54 244.78 161.54 245.38 162.14 246.08 162.34 246.78 162.34 247.68 161.94 247.98 161.44 249.48 161.14 251.78 161.74 253.38 162.74 253.68 163.64 254.08 166.34 254.08 167.24 253.68 168.24 253.68 168.94 257.58 167.84 257.88 167.14 257.58 165.94 257.28 165.14 257.18 164.54 257.58 163.94 258.18 163.84 258.88 164.04 259.48 164.24 259.78 165.04 259.28 165.64 258.88 166.24 258.48 167.04 258.18 167.74 257.98 168.44 257.98 169.24 258.18 169.74 258.58 170.34 259.28 170.34 260.58 169.54 262.68 168.24 263.28 167.74 263.98 167.04 264.58 167.04 264.98 167.74 265.08 168.44 265.08 169.24 265.08 169.94 264.88 170.44 264.68 171.04 265.18 171.64 266.78 172.84 267.38 173.54 268.18 174.24 268.88 174.54 269.48 174.64 270.08 174.64 270.78 174.64 271.58 177.54 272.78 178.04 273.18 178.74 273.38 179.74 273.18 180.44 272.98 180.94 272.88 181.54 272.68 183.34 272.58 184.94 272.58 185.64 272.68 186.24 272.58 186.84 270.68 187.84 269.98 187.84 268.98 187.74 268.48 187.94 267.48 188.74 267.08 189.94 267.98 191.34 268.28 192.04 268.38 192.54 268.08 193.24 267.08 193.94 266.58 194.54 266.38 195.04 266.78 195.64 267.28 195.44 267.88 195.44 269.28 196.14 269.58 196.64 270.08 197.54 270.88 198.44 271.38 198.74 272.48 198.44 273.08 198.94 274.18 199.54 274.98 200.24 275.98 201.64 275.98 202.44 275.48 202.64 275.38 203.54 275.88 204.14 276.58 204.44 277.58 204.24 278.08 203.64 278.48 203.04 279.78 202.04 280.98 201.64 282.48 201.84 284.48 202.74 284.48 203.44 288.58 203.54 290.08 203.04 290.98 202.64 291.48 201.84 291.68 200.94 291.98 200.04 292.78 199.04 295.38 198.44 295.88 198.64 296.88 198.74 297.68 197.54 298.58 195.34 299.18 194.44 299.98 193.44 302.38 191.84 303.48 191.54 304.08 191.64 305.08 191.84 306.18 192.44 307.78 192.44 308.88 193.74 308.68 194.74 308.18 195.74 307.48 196.14 306.58 196.34 305.68 196.64 305.58 197.54 305.78 198.14 307.28 198.44 308.18 198.64 309.28 199.04 310.08 200.74 312.68 200.54 313.78 201.94 315.88 202.04 316.58 202.54 317.28 203.14 319.78 203.84 320.48 203.94 321.68 204.54 321.88 205.44 321.58 206.14 323.18 208.94 323.98 209.44 325.38 213.34 325.98 215.14 326.28 216.54 330.38 216.24 330.18 216.84 330.78 217.34 332.68 217.24 333.28 217.14 334.38 214.84 335.68 213.04 336.18 212.74 338.38 212.44 339.08 213.34 341.68 215.64 343.98 218.74 345.08 220.04 346.78 217.54 347.18 216.04 347.08 215.04 348.18 213.14 348.88 212.14 348.88 210.54 351.28 207.24 352.08 207.64 354.68 207.44 355.08 208.44 355.88 209.14 356.48 209.04 359.48 209.64 359.98 210.44 360.18 211.04 360.68 211.34 361.38 211.44 363.38 211.24 363.88 211.64 363.98 213.74 363.08 215.84 362.48 217.44 362.18 218.44 361.28 222.44 361.38 223.34 362.18 226.54 362.48 227.04 363.48 229.74 363.38 231.24 364.58 232.34 365.98 233.54 367.48 234.94 368.18 235.54 368.58 237.24 368.98 239.14 371.08 241.44 372.68 242.34 374.38 242.84 375.88 243.24 376.68 243.24 378.38 243.14 379.08 243.44 380.98 243.34 380.98 242.74 380.88 242.24 380.48 241.64 379.78 239.84 379.78 239.14 379.88 238.24 380.88 237.64 381.38 237.74 382.28 238.04 383.08 238.44 383.68 238.74 385.88 239.94 387.18 240.04 388.28 240.24 389.78 240.64 391.58 241.64 394.18 243.74 394.78 244.24 395.78 245.04 396.38 245.44 397.78 246.14 398.38 246.14 399.78 246.44 402.48 248.04 403.68 248.84 405.08 248.64 405.98 248.54 407.58 248.54 410.88 249.74 411.88 251.34 413.88 252.84 414.88 253.14 417.98 253.54 418.58 253.74 419.28 254.14 419.68 254.94 420.18 255.64 420.68 256.04 423.58 258.54 424.38 259.04 425.98 259.34 426.08 260.14 425.58 261.44 425.28 262.14 423.48 263.64 423.08 264.24 422.28 265.74 422.08 266.44 421.58 266.44 420.98 266.84 420.78 267.44 420.48 268.54 420.38 269.44 419.48 269.74 418.68 269.54 417.58 269.64 414.98 270.44 414.78 271.24 414.58 271.94 414.38 273.74 414.98 274.24 415.58 274.64 415.48 275.24 415.18 275.74 413.58 278.04 408.58 282.64 407.68 283.34 407.08 283.64 406.58 283.64 405.18 284.44 404.38 284.84 403.88 285.74 403.68 287.34 403.78 288.84 403.88 289.44 403.98 290.24 403.28 291.04 402.38 291.94 401.38 291.54 400.78 291.34 399.78 291.04 398.28 290.84 397.68 290.84 396.68 291.24 396.28 291.74 395.68 292.84 394.68 293.04 392.18 293.14 391.48 293.14 388.98 292.54 388.28 292.24 387.48 291.64 386.78 291.24 386.28 290.94 385.58 290.64 384.78 290.14 383.28 288.44 382.38 288.24 381.38 288.84 378.38 290.24 377.38 290.34 376.48 290.64 376.18 291.54 376.08 292.04 375.38 297.04 375.38 297.74 373.98 298.74 373.38 299.14 372.88 298.94 372.68 297.94 371.78 297.54 369.58 297.74 368.68 297.84 368.18 298.44 368.18 299.74 366.68 300.74 365.58 299.64 364.28 299.54 363.38 299.74 362.78 300.14 362.48 301.44 362.68 302.04 363.08 302.64 363.68 303.44 363.88 304.04 363.78 305.14 363.28 305.14 362.78 305.64 362.18 306.24 361.48 308.74 361.18 310.44 361.08 311.84 360.18 314.84 359.58 316.44 359.58 317.64 360.18 317.24 362.58 317.14 363.28 317.44 363.78 318.44 365.78 321.64 367.68 323.74 368.28 323.94 369.18 324.24 369.68 324.34 369.58 324.94 373.48 325.14 374.28 326.34 374.38 327.24 374.58 328.94 375.28 329.64 375.88 329.74 375.88 329.24 376.28 328.54 376.88 328.64 376.88 329.44 376.88 330.04 377.58 330.44 378.68 330.24 379.18 330.54 379.38 331.04 381.18 331.84 381.98 331.84 381.68 332.44 382.38 333.34 383.98 335.84 383.78 337.44 383.48 338.54 383.38 339.04 383.28 339.84 383.28 340.84 383.38 341.44 384.68 341.34 385.38 343.94 385.88 343.54 386.38 343.84 387.38 344.74 387.98 345.34 389.18 346.04 389.48 346.54 391.18 348.14 393.38 348.64 394.08 348.64 396.38 349.04 396.98 349.24 397.58 349.84 397.48 350.64 397.58 351.34 398.28 352.74 398.58 353.44 398.78 353.94 399.78 356.84 399.78 357.44 399.78 357.94 399.48 358.44 399.08 359.04 398.88 359.64 398.98 360.94 399.38 361.64 399.88 361.94 400.68 362.24 399.88 362.84 399.78 364.14 399.18 365.24 398.58 365.74 398.28 366.34 398.28 368.54 398.88 369.54 399.48 370.64 400.48 371.54 402.38 372.14 402.88 372.04 403.48 371.94 403.98 372.14 403.48 374.04 402.78 375.14 401.78 375.54 400.78 375.74 400.08 376.04 398.18 377.14 398.08 377.84 396.18 379.04 394.58 379.64 392.98 380.94 393.08 382.74 392.48 382.84 390.38 382.14 389.68 382.34 389.08 383.14 388.38 384.84 387.98 384.34 386.78 382.54 386.58 382.04 385.18 381.34 384.58 381.44 382.68 380.24 381.88 379.34 380.58 378.14 380.08 377.74 378.78 377.04 377.38 376.64 376.78 375.54 375.78 374.44 374.48 375.54 371.88 377.24 367.28 376.34 366.48 375.64 365.98 374.94 366.68 373.94 366.98 373.34 367.48 371.44 367.58 370.64 369.48 369.04 368.08 365.74 367.48 365.54 366.58 365.04 364.78 363.34 363.38 361.54 362.68 360.24 362.28 359.24 361.78 358.44 361.18 357.84 360.18 356.84 359.88 355.34 359.28 355.24 356.78 353.54 354.18 351.94 353.68 351.64 353.18 351.14 352.68 350.34 350.18 347.64 349.68 347.04 349.28 345.04 349.38 343.04 349.88 342.54 350.38 342.24 351.28 341.04 350.88 340.34 350.18 339.64 349.68 338.34 348.88 337.04 348.38 335.54 345.48 335.74 344.38 336.24 342.78 337.04 341.18 337.34 340.58 337.34 339.28 336.64 338.38 336.24 337.58 336.24 335.38 336.94 334.78 337.14 334.48 337.84 334.88 339.24 334.28 338.84 333.68 338.54 333.08 338.84 332.48 339.04 331.88 338.94 330.98 338.14 331.08 337.54 331.28 336.74 331.08 336.14 330.58 335.94 329.38 336.94 327.98 335.64 326.78 337.04 325.98 337.74 325.28 338.44 324.88 338.94 326.68 340.74 328.18 339.74 328.88 340.84 329.08 342.24 328.98 343.14 328.78 343.74 328.58 344.34 328.28 344.84 328.18 345.44 327.98 346.14 327.98 346.74 328.18 347.24 328.68 349.84 328.68 350.44 326.08 351.04 326.38 353.34 325.98 354.14 325.18 354.94 324.58 353.84 323.98 352.94 323.28 353.14 322.38 354.04 321.48 355.54 321.68 356.14 322.38 356.94 322.98 357.54 323.08 358.24 321.88 359.14 320.98 359.44 320.38 359.34 319.88 359.24 319.48 360.14 319.68 360.94 319.88 362.24 320.08 364.94 317.08 364.64 316.58 364.34 315.98 364.04 313.58 367.74 313.38 368.94 313.08 370.04 312.88 370.84 312.38 371.84 311.68 372.24 311.18 372.84 310.98 373.34 310.88 374.74 310.58 376.04 309.78 377.74 308.38 379.74 307.18 378.54 305.78 378.24 303.98 378.24 303.38 378.04 302.78 377.84 302.78 376.74 303.58 375.34 304.28 373.94 304.28 373.24 304.28 371.14 303.48 370.54 302.78 370.64 300.98 371.74 300.38 372.84 300.18 373.34 299.68 373.84 298.68 374.04 298.18 374.04 295.68 373.64 294.38 371.34 294.28 370.54 294.18 369.24 292.58 370.04 287.78 372.44 286.58 373.04 284.38 371.14 283.88 370.44 283.78 369.24 283.98 368.64 284.18 368.04 284.18 367.54 284.18 364.34 284.08 363.84 283.78 362.84 283.68 361.84 283.78 361.24 283.98 360.54 284.28 359.94 284.38 359.44 284.28 357.64 283.88 356.94 283.68 356.44 283.58 355.54 283.48 354.84 283.38 353.74 282.18 354.44 282.38 354.94 282.58 355.54 282.38 356.14 281.28 356.24 280.78 355.44 281.38 354.94 281.98 352.34 281.18 352.34 278.78 350.84 277.58 351.84 273.08 355.64 270.98 357.44 270.88 358.04 270.38 359.34 268.68 360.54 266.98 361.74 265.98 362.74 265.58 363.34 264.78 364.44 262.78 366.44 261.48 367.24 261.18 369.54 261.48 370.04 261.38 370.64 261.18 371.14 260.68 371.84 258.48 372.84 257.08 373.54 256.58 373.84 255.98 374.24 256.58 374.34 257.28 374.54 258.28 374.74 258.98 375.14 260.08 375.84 261.88 377.74 262.68 378.84 263.08 379.84 264.68 380.04 265.48 380.34 267.38 383.84 268.68 386.84 269.58 388.84 269.78 389.54 269.98 390.24 269.88 390.84 271.18 391.14 273.88 390.54 276.58 389.94 276.78 390.54 276.88 391.24 277.38 391.84 280.48 392.24 282.28 392.44 285.18 393.04 287.48 394.74 288.08 395.14 289.08 395.54 289.98 395.94 290.48 396.54 291.38 397.74 291.48 398.44 291.68 399.44 291.68 400.14 294.88 400.64 295.68 400.54 296.98 400.54 297.78 400.64 300.58 400.94 301.18 401.14 301.48 401.74 300.78 402.84 300.98 403.54 302.58 407.54 303.78 408.34 304.48 408.54 305.38 408.54 306.48 408.84 307.48 410.24 307.68 412.84 307.58 413.44 307.28 414.34 306.98 414.94 306.18 415.04 305.48 415.54 305.78 418.54 307.28 419.34 308.38 419.44 308.98 419.04 312.48 421.84 313.78 425.04 313.98 426.64 314.18 427.64 313.28 428.34 312.88 428.84 312.48 429.64 311.48 429.04 308.58 427.14 307.48 426.34 306.78 425.84 306.08 425.14 304.48 423.84 303.48 422.94 300.68 421.14 299.98 420.74 298.08 419.54 297.28 419.04 296.18 418.44 294.28 417.64 293.38 417.34 290.58 416.54 289.68 416.44 289.18 416.44 288.48 416.44 287.88 416.54 287.98 417.14 287.18 416.64 286.48 416.84 285.88 416.94 284.88 417.14 283.58 417.64 282.98 417.94 282.38 418.34 281.78 418.94 281.78 419.44 280.78 419.74 279.08 420.54z">
        <path id="lazio_1" title="Latina" class="land" d="M90.18,1.74L90.98 1.84 92.38 1.64 94.48 1.64 95.08 1.64 95.58 1.84 96.18 2.04 96.98 2.04 98.88 2.74 99.68 3.84 100.08 5.24 100.48 7.14 100.98 8.14 101.68 9.04 102.28 9.74 103.18 11.84 103.28 12.54 103.28 13.04 103.48 13.94 104.58 16.94 105.18 18.04 105.78 18.54 108.58 19.44 110.48 19.64 112.28 20.14 112.78 20.74 113.28 21.34 113.88 21.94 116.58 22.54 117.08 22.54 117.48 24.24 117.78 25.44 117.68 26.14 116.68 26.84 116.08 27.24 115.78 28.94 115.28 30.54 114.98 31.84 112.98 33.44 110.68 34.24 109.88 35.04 109.58 36.54 108.58 37.14 107.28 37.94 106.78 38.34 106.58 38.84 105.88 41.14 105.88 41.64 107.18 42.54 107.98 42.84 108.58 42.94 109.58 43.24 110.88 43.84 110.78 44.54 110.28 45.24 109.38 47.14 109.38 47.74 109.98 47.94 111.58 48.44 113.58 48.84 116.48 49.44 117.78 49.84 120.18 51.24 121.78 52.14 123.38 53.04 124.48 53.64 125.98 54.74 128.58 56.84 129.58 57.04 129.78 59.24 130.38 59.04 130.88 58.44 131.68 57.64 132.28 57.44 133.88 57.24 137.68 56.24 138.68 55.64 139.58 54.84 140.68 55.14 143.78 55.04 144.68 54.44 144.98 53.84 145.78 52.94 146.88 52.14 147.28 53.24 147.68 53.94 148.38 54.04 148.68 54.84 148.88 55.44 149.38 56.24 149.98 56.54 150.98 56.64 151.38 56.14 151.38 54.94 151.98 53.74 152.28 53.24 154.18 53.94 154.68 54.34 156.08 53.44 156.38 52.84 156.58 52.14 156.48 51.54 157.58 49.64 158.98 47.94 159.88 47.94 161.78 48.74 162.48 49.04 163.58 49.94 164.48 50.64 165.38 51.74 166.28 51.94 167.38 51.54 168.98 52.54 170.08 53.84 173.18 56.64 174.28 57.54 174.58 59.24 174.38 59.74 175.18 60.34 177.08 61.04 178.08 61.84 177.38 63.64 176.88 63.94 175.48 66.64 175.18 67.44 175.68 68.04 176.98 68.54 177.48 68.64 179.08 70.74 179.48 71.64 178.58 71.34 177.98 71.54 177.78 72.24 178.38 72.94 178.08 74.04 176.98 75.84 177.48 77.04 177.78 79.04 177.98 79.64 178.58 80.04 183.18 82.74 184.18 82.94 184.98 82.64 185.58 82.54 186.18 82.74 186.38 83.24 186.88 84.74 187.08 85.44 187.18 86.04 186.98 86.84 187.18 88.24 185.98 88.64 185.98 89.34 186.08 89.84 184.48 89.94 184.48 90.44 184.68 91.14 185.08 92.04 185.48 92.74 186.38 93.74 187.18 93.84 189.28 94.14 190.08 95.04 189.38 95.34 188.58 95.54 186.78 96.14 186.58 97.24 186.58 97.84 187.38 98.84 188.48 98.64 189.08 98.14 189.68 97.74 190.28 97.74 191.98 99.44 192.58 99.64 193.28 100.94 193.98 101.24 193.28 103.44 192.28 102.34 190.78 102.44 190.18 102.54 190.18 103.04 190.68 103.74 191.18 104.14 192.08 104.54 192.58 104.64 193.88 104.44 195.48 104.44 196.08 104.34 197.28 103.24 197.58 102.74 197.98 102.14 199.28 102.64 200.58 103.54 201.28 104.04 202.78 105.04 203.08 105.84 203.28 106.54 203.58 107.34 204.38 108.44 206.48 107.54 209.48 105.94 209.68 105.34 209.68 104.54 210.18 104.04 211.68 103.34 212.08 101.54 212.88 100.54 213.88 100.14 215.88 99.84 216.28 100.54 217.48 100.34 220.08 102.04 221.58 103.64 220.88 104.64 220.18 105.04 219.48 105.34 218.28 106.24 218.28 109.44 218.98 109.94 220.58 110.04 221.78 110.24 222.48 112.24 222.08 112.74 221.48 112.84 220.78 112.84 220.08 112.54 219.58 112.54 218.88 113.24 218.58 114.04 218.38 116.34 218.48 116.94 219.08 117.34 219.58 117.64 219.98 118.14 220.28 118.74 220.28 119.44 219.98 120.64 219.58 121.24 219.08 121.84 219.08 122.54 219.88 123.44 220.78 123.64 221.48 123.54 223.08 122.84 223.78 122.54 224.68 122.04 225.38 122.04 226.08 122.24 227.08 122.74 228.28 121.74 229.38 121.04 229.88 120.94 230.58 121.24 231.28 122.64 231.38 123.14 231.18 123.94 229.98 125.94 229.58 128.54 229.08 129.24 228.48 129.54 226.48 130.44 224.98 131.44 225.88 131.54 225.98 132.34 225.38 132.74 224.78 133.84 224.88 134.44 225.18 135.04 226.58 135.44 229.18 136.54 229.38 140.14 229.18 140.64 229.28 143.04 230.68 143.64 231.28 143.84 232.48 143.44 233.48 143.04 233.98 143.74 233.88 144.34 233.18 145.14 232.68 145.64 232.18 145.84 231.38 146.54 231.18 148.94 231.38 149.64 232.28 151.24 232.98 152.04 233.78 152.44 234.38 152.64 234.98 152.64 235.48 152.54 236.08 152.84 237.08 153.74 237.58 154.24 237.28 154.84 236.58 154.94 235.58 155.04 234.98 154.94 234.48 155.14 234.28 155.64 235.98 159.04 237.28 160.84 237.88 161.34 238.48 161.74 239.08 161.74 240.68 161.04 241.58 160.94 244.38 161.24 243.98 163.54 241.68 166.94 241.78 167.64 240.58 169.04 238.38 169.54 237.28 171.84 236.48 175.14 235.68 176.14 237.28 178.24 236.78 178.44 236.48 179.64 236.68 180.34 235.78 180.84 235.08 180.94 234.58 181.04 233.28 185.34 233.38 185.94 233.48 186.54 232.78 189.34 231.88 190.34 231.28 190.44 230.68 189.94 229.18 189.94 226.78 191.24 226.68 191.94 226.68 192.54 226.78 193.34 226.78 194.14 225.98 195.94 225.48 196.64 225.08 197.14 222.88 197.54 221.58 196.94 221.78 196.14 222.58 190.74 223.08 185.84 222.78 180.84 222.38 179.54 222.28 178.74 222.08 177.44 221.38 175.94 220.88 173.94 220.78 174.84 219.88 175.84 219.68 177.04 220.18 177.64 221.08 179.34 221.18 179.94 220.38 182.44 219.78 182.74 219.18 182.64 218.58 181.54 217.98 181.84 217.68 182.44 217.68 182.94 217.18 184.14 215.48 186.84 214.88 187.44 214.18 187.94 213.48 187.84 212.88 187.94 212.28 188.34 212.08 189.04 211.98 189.54 212.48 190.14 212.78 193.64 213.28 196.24 212.28 199.94 211.88 200.84 210.28 201.64 208.88 202.24 207.68 203.84 207.18 205.14 206.78 206.34 203.38 208.74 202.58 208.74 201.88 208.44 201.18 208.04 199.98 207.44 199.38 207.34 198.88 208.14 197.88 207.44 197.28 206.94 197.28 206.14 198.08 204.84 196.48 203.74 195.88 202.84 195.18 202.04 194.38 201.44 193.08 200.54 192.58 201.14 192.08 201.34 191.38 201.54 190.78 201.54 190.18 201.24 189.98 200.64 190.08 200.04 190.48 199.54 189.78 198.34 188.58 198.74 186.28 199.54 185.48 199.94 181.88 200.24 180.38 199.14 178.28 198.44 177.08 197.34 175.78 197.74 174.98 198.14 174.28 198.64 174.18 199.14 172.88 199.94 172.08 200.04 171.08 200.14 169.58 200.14 169.08 200.14 168.38 200.14 167.88 200.34 166.48 201.24 166.28 201.84 165.88 203.54 164.58 204.74 163.98 205.24 163.18 205.64 162.28 205.84 161.98 206.74 161.28 207.54 160.38 208.84 159.38 210.04 159.28 209.54 158.98 209.04 158.48 208.34 157.58 207.44 156.38 206.64 155.28 206.04 150.88 205.64 150.18 205.94 149.68 206.24 148.88 206.24 148.38 206.14 147.68 206.04 147.08 206.14 146.48 206.34 145.58 206.54 144.88 206.34 143.98 205.34 141.38 205.54 141.28 207.74 141.08 208.44 140.48 208.84 139.88 208.94 139.38 208.84 138.78 208.84 136.78 209.34 135.08 209.24 133.88 208.94 129.08 207.84 127.98 206.04 127.68 203.74 126.98 202.24 125.78 200.24 124.98 198.44 123.78 195.24 123.08 193.24 121.78 191.24 121.18 191.14 120.78 191.84 120.08 191.94 118.38 191.64 116.78 191.04 116.48 190.54 115.88 189.84 115.08 189.54 114.08 189.64 110.48 187.34 109.48 186.54 108.78 185.84 107.58 183.44 103.38 184.64 102.88 185.44 103.58 185.94 103.38 186.54 101.18 186.84 100.58 187.04 100.18 187.74 100.78 188.04 100.08 189.44 98.88 190.34 99.08 189.64 98.38 189.34 98.28 189.84 98.68 190.44 97.98 192.94 97.38 194.04 97.78 195.94 96.18 198.04 94.38 199.74 93.88 200.24 93.38 201.74 93.28 202.34 91.78 203.74 91.18 203.84 90.58 204.24 89.68 205.54 89.08 206.54 88.98 207.04 89.48 208.14 89.88 209.24 89.28 211.34 88.68 212.24 88.08 212.74 87.58 212.34 86.08 211.64 83.68 210.04 83.28 209.54 82.78 209.24 81.58 208.94 80.98 208.84 80.28 208.94 77.68 208.24 74.28 208.34 70.78 208.64 69.98 208.94 68.28 209.54 67.78 209.94 68.08 208.44 68.48 207.44 69.08 206.64 68.98 205.94 68.48 205.24 66.88 203.34 64.48 200.14 62.58 196.24 61.18 192.94 61.38 192.44 61.18 191.94 59.78 189.14 59.38 188.54 58.78 187.44 58.38 186.64 57.68 185.94 56.98 185.24 56.48 184.74 55.78 184.34 55.18 183.84 54.78 183.34 52.28 179.14 51.58 177.74 51.08 176.94 50.18 175.74 48.58 173.94 47.48 172.74 46.68 171.84 45.08 170.24 43.38 168.64 41.78 167.44 40.88 166.84 39.68 166.04 38.18 165.14 37.58 164.84 35.38 163.44 33.78 162.14 32.78 161.34 32.08 160.64 30.88 159.64 28.18 157.64 27.18 156.94 26.38 156.44 25.78 156.04 24.38 155.14 23.28 154.64 21.98 153.94 16.18 151.04 15.58 150.74 13.28 149.74 12.58 149.34 9.58 148.14 8.78 147.74 7.28 147.14 3.08 145.44 1.48 144.84 1.68 143.34 2.08 142.14 2.28 141.64 1.88 141.04 1.38 140.74 0.98 140.24 1.08 139.74 2.58 137.64 3.78 136.34 4.88 135.44 6.18 134.24 7.08 133.14 8.18 131.64 7.98 130.24 7.78 129.14 7.78 127.44 8.98 126.04 9.48 125.64 11.78 125.64 12.88 126.04 13.78 126.54 14.78 126.94 15.88 127.24 16.78 127.04 18.88 125.84 21.88 124.44 22.48 124.54 23.08 125.04 24.38 125.34 29.08 125.64 31.28 125.74 34.78 125.84 35.48 125.84 36.18 125.64 37.28 125.44 38.68 125.74 38.98 124.64 38.78 123.54 38.58 123.04 38.28 119.94 38.38 115.94 38.88 114.44 38.88 113.94 38.78 113.24 38.28 111.84 37.98 111.24 37.88 110.74 38.08 110.04 36.48 108.64 35.68 108.34 33.58 107.74 31.08 105.54 31.08 104.94 30.38 104.24 29.58 103.74 28.18 103.14 27.58 103.24 26.88 103.54 25.48 102.04 25.18 101.24 25.58 99.04 25.98 98.04 26.68 96.34 28.68 94.44 30.18 93.34 29.18 88.64 28.68 86.24 29.08 85.64 30.88 84.64 33.18 85.04 34.48 85.44 35.28 85.94 35.48 86.54 37.18 87.94 37.98 86.54 38.88 85.24 39.58 84.84 40.28 84.84 40.78 85.24 40.98 85.74 41.68 86.24 43.18 85.74 45.68 83.84 45.98 83.34 46.28 82.34 48.28 82.54 48.98 82.34 50.28 81.84 51.38 81.14 52.68 79.74 52.38 78.84 52.08 78.14 51.68 77.64 51.28 77.04 52.08 76.04 53.98 75.14 54.68 74.94 55.18 74.94 55.88 74.54 56.38 73.94 56.98 73.14 58.08 71.74 60.68 71.44 61.78 72.84 62.48 73.04 63.18 72.94 63.78 72.74 63.78 71.74 64.28 70.64 65.48 69.44 66.58 68.14 66.88 67.64 67.18 66.84 66.98 64.94 66.88 64.04 66.68 63.24 66.58 62.54 67.58 62.74 68.28 62.74 68.88 63.04 71.38 63.64 73.68 63.84 74.38 62.94 74.88 62.34 75.58 62.24 76.08 62.04 76.58 61.64 77.08 61.04 78.88 60.74 79.58 58.94 79.88 58.04 79.88 57.24 79.88 56.74 79.68 56.14 79.18 55.04 77.88 53.34 76.78 53.24 76.08 53.14 74.38 52.84 73.88 49.64 74.08 47.94 74.38 47.34 73.78 45.64 73.08 42.24 73.08 41.54 73.68 41.64 76.28 41.74 76.98 41.64 77.58 41.54 77.38 40.94 77.68 40.14 78.28 38.64 78.88 35.54 78.98 34.84 78.98 34.24 79.08 33.24 80.48 30.94 81.08 29.54 80.48 29.74 79.98 29.64 79.88 29.04 79.68 28.34 78.88 27.34 78.28 27.14 76.38 26.74 75.38 26.74 74.68 26.84 72.08 26.14 71.98 25.54 70.88 23.04 69.48 21.54 68.68 20.34 67.98 19.64 66.98 18.94 65.58 18.84 64.28 17.94 64.88 17.14 65.08 16.64 65.38 14.64 65.48 14.04 65.68 13.04 66.88 10.94 67.48 10.34 68.18 9.84 69.08 8.64 68.98 7.24 70.68 7.04 70.98 7.64 71.78 7.84 72.98 8.24 74.68 9.74 76.98 12.84 76.98 13.44 77.48 14.44 78.58 14.04 78.88 13.34 78.88 12.54 78.88 11.44 78.68 10.94 79.08 10.04 79.48 8.34 79.28 7.54 79.08 6.94 79.18 6.14 81.18 4.94 81.68 4.84 82.28 5.04 82.98 4.84 85.88 2.64 87.28 0.94 88.68 1.44 90.18 1.74z"></path>

        <path id="lazio_2" title="Frosinone" class="land" d="M348.88,337.04L349.68 338.34 350.18 339.64 350.68 340.24 351.48 340.64 350.68 342.04 350.08 342.34 349.58 342.74 349.28 345.04 349.68 347.04 350.18 347.64 352.28 349.94 352.98 350.84 353.28 351.34 354.18 351.94 356.78 353.54 358.78 355.14 359.88 355.34 360.18 356.84 361.18 357.84 361.78 358.44 362.28 359.24 362.48 359.94 363.08 361.04 364.78 363.34 366.58 365.04 367.48 365.54 368.08 365.74 369.48 369.04 367.88 370.44 367.58 371.04 366.98 373.34 366.68 373.94 365.98 374.94 366.48 375.64 367.08 376.14 371.88 377.24 374.48 375.54 375.78 374.44 376.78 375.54 377.28 376.44 378.78 377.04 379.68 377.54 380.58 378.14 381.88 379.34 382.68 380.24 384.58 381.44 385.08 381.34 386.58 382.04 386.78 382.54 387.78 384.04 388.38 384.84 388.78 383.64 389.28 382.64 389.98 382.14 392.48 382.84 393.18 383.04 392.88 381.34 394.18 379.74 396.18 379.04 397.68 378.34 398.08 377.54 400.08 376.04 400.78 375.74 401.78 375.54 402.48 375.34 403.28 374.44 404.18 372.24 406.08 371.94 406.48 371.04 407.38 370.74 407.98 370.84 408.68 370.74 409.28 370.94 409.38 371.54 409.78 373.24 410.08 373.84 410.38 374.74 410.08 375.44 409.98 376.24 410.38 380.14 412.18 382.44 414.08 384.44 414.98 384.74 415.58 385.44 418.78 385.14 420.08 385.14 421.28 385.24 422.48 385.64 422.98 385.84 424.08 386.54 425.18 387.34 427.08 389.44 427.48 390.04 428.28 392.14 428.88 393.64 429.08 395.34 429.38 396.64 429.98 397.64 431.88 399.04 431.68 399.64 431.68 400.44 431.98 400.94 432.98 401.84 434.38 405.34 432.98 407.24 432.38 407.54 431.58 407.74 430.78 408.04 430.08 408.54 428.58 410.04 427.48 411.14 426.98 411.44 426.18 412.84 426.08 413.44 425.88 414.74 425.08 416.94 424.78 417.54 425.28 417.74 431.28 419.54 431.88 419.84 434.08 421.34 434.48 421.94 435.18 423.34 436.58 425.54 437.08 426.14 438.38 426.34 439.98 425.64 440.28 425.04 440.98 424.64 442.28 424.64 443.98 424.54 444.98 424.64 446.88 425.04 449.58 426.94 450.38 427.14 450.88 427.04 451.78 426.34 452.08 425.64 452.38 425.04 455.78 424.54 456.38 424.74 457.68 425.44 458.18 425.34 458.88 425.14 459.58 425.14 460.28 425.94 460.78 426.44 462.38 426.54 464.98 426.34 465.08 424.44 465.58 422.84 465.98 422.14 467.18 417.64 467.08 416.74 465.78 412.54 465.08 410.94 464.48 410.24 464.28 408.34 464.88 407.74 466.18 406.74 468.08 405.44 469.38 406.54 470.38 409.34 470.48 409.84 471.28 410.34 473.38 411.34 474.08 411.54 474.58 411.74 476.08 411.84 477.58 413.04 478.38 413.64 479.68 413.64 480.38 413.44 481.68 413.74 482.38 413.84 482.88 414.04 484.08 414.64 483.98 417.24 486.78 417.24 488.68 416.84 490.38 416.84 490.98 417.14 492.38 417.94 493.48 419.74 494.98 421.34 495.18 422.04 495.08 422.54 495.58 423.64 496.18 424.04 498.18 426.14 499.18 427.44 499.58 428.24 499.88 428.84 500.18 429.74 499.58 429.84 499.08 430.04 497.88 430.94 497.18 431.64 496.18 433.74 497.98 434.24 498.68 434.44 499.28 434.74 501.38 436.04 503.48 437.74 506.28 441.34 506.48 442.04 506.48 442.54 506.68 443.14 507.88 444.84 509.68 447.34 510.28 447.94 511.88 448.84 512.48 448.24 513.28 448.04 513.98 447.94 516.18 447.54 517.88 447.84 518.58 447.14 518.18 445.94 517.78 445.34 517.78 444.54 518.78 442.24 520.58 440.54 521.38 439.94 524.18 440.94 524.68 440.94 526.28 439.44 526.98 437.34 528.78 434.64 529.68 434.94 530.58 434.84 531.18 435.54 531.78 438.74 531.38 440.04 532.28 441.74 533.88 442.44 535.98 443.44 537.68 444.04 538.08 444.74 538.48 445.34 540.38 446.94 541.08 447.54 541.68 448.54 543.18 449.54 543.88 451.54 545.38 450.74 547.68 449.14 549.78 448.34 550.28 448.64 550.88 447.64 551.28 446.24 551.48 445.44 551.98 445.24 552.58 445.54 553.18 445.74 555.28 445.14 556.68 444.74 556.28 443.94 556.08 439.94 557.18 439.34 558.08 439.54 558.78 439.74 559.98 440.64 561.08 441.24 561.68 441.54 564.98 440.74 566.18 440.34 567.08 439.74 568.78 438.84 568.78 439.44 570.08 441.74 570.58 442.34 571.38 442.94 571.98 443.54 572.28 444.14 573.38 445.54 574.18 446.74 573.18 451.14 572.58 452.34 571.98 452.94 570.88 453.34 570.08 453.24 567.98 453.04 565.58 453.64 564.38 454.04 560.28 456.54 559.38 456.94 559.08 457.74 560.88 461.24 562.28 462.24 561.98 463.44 560.98 465.74 560.48 466.24 557.28 468.54 555.28 468.24 553.78 468.04 551.38 468.44 550.88 468.94 548.98 469.34 547.38 469.34 546.88 469.84 546.68 470.74 546.68 471.34 545.78 473.94 545.58 474.54 545.38 475.04 545.08 475.64 542.68 473.74 541.38 472.74 540.38 471.94 539.58 471.34 537.48 469.94 535.58 468.74 534.58 468.14 533.88 467.74 532.78 467.24 531.78 466.74 531.18 466.84 530.58 467.04 528.68 468.24 527.78 469.24 526.48 470.04 525.98 470.04 523.38 469.14 522.68 468.64 522.28 467.74 519.38 466.44 518.38 466.14 517.68 466.04 516.58 465.74 515.88 465.64 514.38 465.64 513.88 465.64 512.18 465.74 510.88 466.24 510.08 466.74 508.88 467.64 504.68 469.74 504.18 470.04 503.68 470.34 502.98 470.84 502.18 471.54 501.28 472.54 500.98 473.44 500.18 475.54 500.28 476.74 501.08 479.94 501.88 480.54 504.18 481.64 504.98 481.84 505.48 481.44 505.78 482.04 504.78 482.74 502.28 483.74 500.98 483.74 500.88 483.14 500.98 482.64 500.48 482.34 499.88 482.14 499.38 481.94 498.58 481.74 498.08 481.64 497.58 481.74 497.08 482.44 496.98 482.94 496.28 483.14 495.78 482.94 493.08 481.14 492.48 480.14 491.48 479.44 490.08 478.54 488.88 477.94 487.98 477.94 487.38 478.04 484.68 477.34 483.88 476.64 483.28 476.14 480.78 474.34 478.48 473.94 477.38 474.74 475.78 473.84 474.98 472.74 474.18 472.14 471.68 470.44 471.18 470.24 470.68 469.94 465.68 467.34 462.48 465.64 459.78 464.54 459.08 464.14 456.88 463.24 456.28 463.04 455.78 462.84 454.68 462.44 453.58 462.04 452.48 461.74 451.78 461.44 451.28 461.34 450.58 461.14 449.68 460.84 448.98 460.64 447.98 460.34 447.08 460.14 444.68 459.64 443.98 459.54 442.58 459.24 440.38 458.94 439.68 458.84 437.48 458.54 436.88 458.54 436.28 458.44 435.78 458.44 434.78 458.44 433.48 458.54 432.88 458.64 432.28 458.64 431.38 458.84 430.38 459.04 429.48 459.54 429.28 460.14 429.28 460.74 428.88 461.44 427.48 462.64 426.28 463.24 425.58 463.14 424.48 463.14 423.68 463.04 422.78 463.04 421.38 463.14 420.18 463.14 419.58 463.24 418.98 463.24 418.38 463.34 416.68 463.64 416.08 463.74 411.48 465.14 410.38 465.54 409.48 465.94 408.78 466.24 406.18 467.54 405.38 467.94 404.08 468.84 403.08 469.44 401.48 470.54 400.08 471.84 399.58 472.34 395.88 475.14 393.18 477.74 391.18 481.24 390.98 482.14 390.78 482.74 384.88 484.04 384.28 483.94 381.78 483.34 380.28 482.94 379.58 482.74 378.98 482.44 378.18 481.54 376.58 478.54 376.48 477.64 376.68 476.64 376.88 475.64 375.68 472.54 375.38 471.64 374.98 470.74 374.38 469.34 373.58 467.84 372.28 465.04 370.88 462.54 370.48 461.84 368.98 459.14 366.28 454.84 365.38 453.44 364.98 452.84 362.98 450.14 360.88 447.64 358.68 445.24 357.58 444.14 355.58 442.34 352.38 439.74 350.88 438.54 349.68 437.64 348.48 436.74 347.98 436.44 347.38 436.24 345.78 435.04 344.48 434.14 340.18 431.64 339.38 431.14 338.18 430.54 334.78 429.04 333.98 428.74 332.98 428.34 332.18 428.14 331.68 427.94 331.08 427.84 330.38 427.74 329.78 427.54 327.98 427.34 327.08 427.34 326.48 427.34 325.98 427.34 324.88 427.54 324.28 427.64 322.98 427.94 322.18 428.04 320.68 427.64 319.88 427.44 318.98 427.14 318.38 427.04 317.78 427.04 316.38 427.04 315.88 427.14 315.08 427.34 314.58 427.54 313.98 426.64 313.78 425.04 312.58 421.94 309.38 418.84 308.38 419.44 307.68 419.44 306.28 418.84 305.48 415.54 306.18 415.04 306.78 414.94 307.28 414.34 307.58 413.44 307.68 412.84 307.58 410.44 306.88 409.14 305.78 408.34 304.78 408.64 303.78 408.34 302.98 407.84 301.18 403.94 300.88 403.34 301.48 401.84 301.28 401.24 300.58 400.94 297.78 400.64 296.98 400.54 295.68 400.54 294.88 400.64 291.68 400.34 291.68 399.44 291.48 398.44 291.38 397.74 290.48 396.54 290.08 396.04 289.08 395.54 288.08 395.14 287.48 394.74 285.18 393.04 282.28 392.44 280.48 392.24 277.58 391.94 277.08 391.54 276.88 390.94 276.78 390.34 273.88 390.54 271.18 391.14 269.88 390.84 269.98 390.24 269.78 389.54 269.58 388.84 268.68 386.84 267.38 383.84 265.58 380.34 264.68 380.04 263.08 379.84 262.68 378.84 261.98 377.84 260.08 375.84 258.98 375.14 258.28 374.74 257.28 374.54 256.58 374.34 255.98 374.54 256.58 373.84 257.08 373.54 258.48 372.84 260.28 372.04 261.18 371.14 261.38 370.64 261.48 370.04 261.18 369.54 261.48 367.24 262.28 366.84 264.78 364.44 265.48 363.64 265.68 363.14 266.98 361.74 268.68 360.54 270.08 359.64 270.78 358.24 270.78 357.74 273.08 355.64 277.58 351.84 278.38 351.14 281.18 352.34 281.78 352.24 281.68 354.44 281.18 355.14 280.98 356.04 282.38 356.14 282.58 355.54 282.38 354.94 282.18 354.44 283.18 353.74 283.48 354.64 283.58 355.54 283.68 356.04 283.78 356.64 284.28 357.64 284.38 359.44 284.28 359.94 283.98 360.54 283.78 361.24 283.68 361.84 283.78 362.84 283.88 363.34 284.18 364.34 284.18 367.54 284.18 368.04 283.98 368.64 283.78 369.24 283.88 370.24 284.18 370.94 286.18 373.14 287.78 372.44 292.58 370.04 294.18 369.24 294.28 370.54 294.38 371.34 295.68 373.64 298.18 374.04 298.68 374.04 299.38 374.04 300.18 373.44 300.38 372.84 300.58 372.04 302.78 370.64 303.38 370.54 303.88 370.64 304.28 372.74 304.28 373.64 303.88 374.94 302.88 376.54 302.58 377.54 303.38 378.04 303.98 378.24 305.48 378.34 307.18 378.54 308.08 380.04 309.48 378.24 310.58 376.04 310.88 374.74 310.98 373.54 311.18 372.84 311.68 372.24 312.28 372.04 312.68 371.24 313.08 370.04 313.38 368.94 313.58 367.74 315.88 364.34 316.58 364.34 317.08 364.64 319.68 365.04 319.88 362.24 319.68 360.94 319.48 360.14 319.48 359.44 320.28 359.24 320.88 359.44 321.78 359.14 322.78 358.54 323.18 357.94 322.38 356.94 321.78 356.34 321.48 355.74 322.38 354.14 323.08 353.24 323.78 352.94 324.58 353.84 325.18 354.84 325.88 354.34 326.38 353.34 326.08 351.04 328.68 350.44 328.68 349.84 328.18 347.24 327.98 346.74 327.98 346.14 328.18 345.44 328.28 344.84 328.58 344.34 328.78 343.74 328.98 343.14 329.18 342.64 328.98 341.24 328.28 339.84 326.68 340.74 324.88 339.14 325.28 338.44 325.78 337.84 326.38 337.44 327.88 335.84 329.38 336.94 330.38 336.04 330.88 335.94 331.18 336.44 331.18 337.24 330.98 337.94 331.88 338.94 332.48 339.04 333.08 338.84 333.68 338.54 334.28 338.84 334.88 339.24 334.48 337.84 334.78 337.14 335.38 336.94 337.58 336.24 338.38 336.24 339.28 336.64 340.28 337.24 340.98 337.34 342.78 337.04 344.38 336.24 345.48 335.74 348.18 335.14 348.88 337.04z M365.78,577.04L365.28 578.44 365.18 579.04 365.38 579.84 364.18 584.54 364.58 585.34 365.58 585.34 366.08 585.54 365.28 588.04 364.68 589.04 363.98 589.54 363.28 589.84 362.08 588.24 361.68 587.74 362.28 587.44 363.18 585.94 363.08 585.24 362.28 584.74 360.28 583.54 361.38 580.24 361.58 578.34 363.78 577.44 364.28 577.54 365.58 576.34 366.08 575.74 365.78 575.14 366.38 574.24 367.88 573.14 368.98 572.44 369.68 572.54 371.68 572.64 372.18 573.34 371.48 574.14 370.68 574.34 369.88 574.44 368.38 575.04 365.88 576.84 365.78 577.04z M474.48,612.04L472.28 613.34 471.58 613.74 470.88 613.84 470.28 613.84 470.28 613.14 470.78 612.94 471.58 612.74 474.28 609.74 475.08 607.74 476.18 609.74 475.38 611.24 474.88 611.74 474.48 612.04z"></path>

		<path id="lazio_3" class="land" title="Viterbo" d="M436.18,265.74L438.08 266.84 439.08 267.14 439.68 266.84 440.18 266.44 440.58 265.54 441.28 265.64 442.38 265.84 442.78 266.54 442.88 267.04 443.48 267.74 445.78 269.64 446.88 271.34 447.18 271.84 447.08 272.54 446.38 274.84 445.98 275.94 445.08 277.84 443.98 279.04 443.38 279.64 442.58 281.54 442.18 282.74 443.78 284.24 443.98 284.94 443.78 286.24 443.48 287.04 444.18 290.44 444.58 291.44 444.28 293.84 445.58 295.54 446.08 296.04 446.48 296.54 446.58 297.14 447.28 298.24 448.08 298.54 449.28 298.44 450.08 297.74 450.58 295.44 450.98 293.54 451.38 292.94 452.88 292.14 453.58 291.94 455.78 292.74 456.38 293.04 457.08 293.44 457.68 293.94 459.08 294.44 463.18 295.84 463.88 295.94 465.38 297.94 466.28 298.64 466.58 299.44 468.28 300.64 471.48 301.64 472.38 301.44 473.78 301.64 476.28 301.84 476.88 302.24 477.38 303.04 477.88 304.64 477.98 305.34 478.18 305.94 479.48 307.34 480.08 307.84 480.38 310.34 482.88 311.24 485.08 312.44 486.28 313.34 486.88 313.64 487.58 313.44 488.18 313.14 490.08 313.34 490.68 313.94 491.18 314.64 492.18 315.34 492.98 315.44 493.48 315.14 493.88 314.24 494.28 313.44 494.88 312.54 495.58 311.54 496.28 311.24 496.88 311.04 497.88 310.84 498.88 310.54 499.88 309.84 500.68 309.14 501.58 307.74 503.28 307.24 503.88 307.14 504.68 306.74 505.38 306.24 505.98 305.64 506.68 304.84 507.98 303.24 507.48 300.64 506.68 299.84 506.88 299.34 508.28 297.84 508.98 297.14 509.98 297.04 511.98 296.94 512.58 297.04 513.08 297.54 514.48 297.94 515.58 298.44 516.38 298.84 517.38 299.84 517.58 300.44 518.98 302.04 519.58 302.54 521.48 303.34 522.58 303.64 523.68 302.24 524.08 301.44 524.88 300.44 525.58 300.24 526.28 300.44 526.98 300.54 527.88 299.84 527.78 300.44 527.88 302.04 528.08 302.64 528.28 303.24 528.78 303.84 529.48 304.14 530.48 304.74 531.08 305.24 532.68 307.34 532.88 308.04 532.68 308.54 532.98 310.74 533.08 311.34 534.78 312.14 535.98 314.04 536.98 314.74 538.28 314.54 539.08 314.64 540.18 315.14 541.78 315.84 542.58 316.14 543.68 315.04 544.58 314.24 547.08 312.64 547.58 312.44 548.18 312.84 549.08 314.14 549.88 315.64 550.28 316.24 551.18 316.84 554.08 317.14 556.88 317.94 558.08 318.94 558.68 319.04 563.68 319.54 565.28 318.24 566.08 317.24 567.48 318.14 569.28 322.24 570.28 322.04 571.08 321.94 572.08 321.94 572.68 322.14 573.38 323.64 573.58 324.34 573.78 324.84 573.88 325.44 574.18 326.04 574.78 326.44 574.88 327.04 575.88 329.24 577.28 330.54 578.08 331.04 578.48 331.54 579.08 332.24 580.18 333.04 580.78 333.34 581.48 333.34 582.18 333.54 584.48 334.94 585.88 336.74 586.58 337.64 587.38 338.44 589.68 340.84 589.48 341.84 589.48 342.54 589.88 343.74 591.18 345.34 592.08 349.84 593.78 351.94 595.68 354.74 595.78 359.34 594.18 362.04 593.28 363.34 593.18 363.94 593.48 364.84 593.98 365.34 594.58 365.64 594.18 366.44 594.58 367.04 595.18 367.44 596.18 367.54 597.78 367.94 599.38 368.74 599.78 369.64 599.98 370.24 599.48 373.04 599.08 374.54 595.68 375.64 596.08 376.74 597.68 377.94 598.68 378.64 599.68 379.14 600.18 379.34 600.98 379.94 600.78 380.44 599.68 380.84 599.08 380.84 598.28 382.34 597.78 382.84 595.88 383.34 594.98 383.44 594.38 383.54 593.88 383.74 593.28 384.34 593.08 385.14 592.78 385.74 590.98 387.24 590.08 387.74 589.48 388.94 588.98 389.84 588.98 390.34 589.48 390.44 590.38 390.74 593.18 392.74 593.68 393.34 592.88 394.24 591.88 396.04 591.38 397.14 590.68 399.54 588.08 399.24 587.48 399.24 586.78 399.24 584.98 402.04 583.28 403.44 580.88 406.14 580.28 406.94 578.78 407.94 576.38 409.34 575.88 410.24 575.18 410.84 574.48 411.54 573.48 411.74 571.48 412.24 570.88 411.94 570.18 411.44 567.58 411.84 564.68 414.64 565.08 417.04 566.68 418.54 568.28 421.14 570.58 424.04 570.88 424.54 570.28 425.04 568.98 426.04 568.38 427.24 567.78 433.14 568.58 435.74 569.08 436.54 569.58 437.04 569.78 437.84 569.68 438.44 568.78 438.84 567.08 439.74 566.18 440.34 564.98 440.74 562.08 441.54 561.08 441.24 559.98 440.64 559.28 440.14 558.18 439.54 557.18 439.34 556.48 439.64 556.08 443.54 556.68 444.74 555.28 445.14 553.38 445.64 552.88 445.74 552.38 445.34 551.68 445.24 551.28 446.24 550.98 447.44 550.28 448.64 549.78 448.34 547.68 449.14 545.38 450.74 543.88 451.54 543.18 449.54 541.68 448.54 541.28 447.64 540.38 446.94 538.48 445.34 538.08 444.74 537.68 444.04 535.98 443.44 533.88 442.44 532.28 441.74 531.38 440.04 531.68 438.94 531.28 435.74 530.88 434.94 529.68 434.94 529.08 434.54 526.98 437.34 526.38 439.24 524.68 440.94 524.18 440.94 521.78 440.34 520.58 440.54 518.88 441.84 517.78 444.54 517.78 445.34 518.18 445.94 518.58 446.84 518.28 447.44 516.58 447.54 513.98 447.94 513.28 448.04 512.48 448.24 511.88 448.84 510.28 447.94 509.68 447.34 507.88 444.84 506.98 443.54 506.58 442.94 506.48 442.44 506.38 441.64 503.68 437.94 501.78 436.34 499.38 434.84 498.88 434.54 497.98 434.24 496.18 433.74 497.18 431.64 497.68 431.14 498.78 430.24 499.48 429.94 500.18 429.74 499.88 428.84 499.58 428.24 499.18 427.44 498.18 426.14 496.68 424.34 495.78 423.84 495.28 422.94 494.98 422.24 495.18 421.64 493.78 419.94 492.48 418.04 491.28 417.24 490.68 416.94 488.68 416.84 486.78 417.24 483.98 417.24 484.08 414.64 482.88 414.04 482.38 413.84 481.68 413.74 480.68 413.54 480.08 413.54 478.38 413.64 477.58 413.04 476.08 411.84 474.98 411.74 474.08 411.54 473.38 411.34 471.28 410.34 470.68 410.04 470.38 409.34 469.38 406.54 468.08 405.44 466.18 406.74 464.88 407.74 464.28 408.34 464.28 409.84 464.68 410.54 465.78 412.54 467.08 416.74 467.18 417.64 466.38 421.64 465.58 422.84 465.18 424.14 464.98 426.34 462.38 426.54 461.18 426.64 460.58 426.24 459.78 425.34 459.18 425.14 458.58 425.24 457.88 425.44 456.68 424.84 456.08 424.54 452.68 425.04 452.08 425.64 451.88 426.24 450.88 427.04 450.38 427.14 449.58 426.94 446.88 425.04 445.18 424.74 443.98 424.54 442.28 424.64 440.98 424.64 440.38 424.84 440.18 425.44 438.68 426.24 437.08 426.14 436.58 425.54 435.18 423.34 434.48 421.94 434.08 421.34 431.88 419.84 431.28 419.54 425.28 417.74 424.78 417.54 425.08 416.94 425.88 414.74 426.08 413.44 426.18 412.84 426.98 411.44 427.48 411.14 428.58 410.04 429.68 408.94 430.38 408.24 431.58 407.74 432.38 407.54 432.98 407.24 434.28 405.44 433.28 402.34 432.28 401.14 431.78 400.84 431.68 399.64 431.88 399.04 429.98 397.64 429.48 396.84 429.08 395.34 429.18 394.14 428.28 392.14 427.68 390.44 427.28 389.74 425.38 387.54 424.28 386.64 423.28 386.04 422.68 385.74 421.28 385.24 420.38 385.14 418.78 385.14 415.58 385.44 414.98 384.74 414.08 384.44 412.18 382.44 410.58 380.54 409.98 376.64 409.98 375.74 410.48 375.14 410.08 373.84 409.78 373.24 409.38 371.84 409.38 371.34 408.98 370.84 407.98 370.84 407.38 370.74 406.78 370.74 406.48 371.54 404.58 372.24 403.98 372.14 403.48 371.94 402.88 372.04 402.38 372.14 400.48 371.54 399.48 370.64 398.88 369.54 398.28 368.54 398.28 366.34 398.58 365.74 399.18 365.24 399.78 364.14 399.88 362.84 400.68 362.24 399.88 361.94 399.38 361.64 399.08 361.14 398.88 359.94 398.98 359.34 399.28 358.74 399.78 358.14 399.78 357.44 399.78 356.84 398.78 353.94 398.58 353.44 398.28 352.74 397.68 351.64 397.48 350.84 397.48 350.34 397.28 349.54 396.58 349.14 394.38 348.64 393.58 348.64 391.18 348.14 389.48 346.54 389.18 346.04 387.98 345.34 387.38 344.74 386.38 343.84 385.88 343.54 385.38 343.94 384.68 341.34 383.38 341.44 383.28 340.84 383.28 339.84 383.38 339.04 383.48 338.54 383.68 337.74 383.98 335.84 382.38 333.34 381.78 332.74 381.98 331.84 381.28 331.84 379.68 331.24 379.18 330.54 378.68 330.24 377.58 330.44 376.88 330.04 376.88 329.44 376.88 328.64 376.28 328.54 375.88 329.24 375.88 329.74 375.28 329.64 374.58 328.94 374.38 327.24 374.28 326.34 373.68 325.24 369.58 324.94 369.68 324.34 369.18 324.24 368.28 323.94 367.68 323.74 365.78 321.64 363.78 318.44 363.28 317.44 362.58 317.14 360.18 317.24 359.58 317.64 359.58 316.44 360.18 314.84 361.08 311.84 361.18 310.44 361.48 308.74 362.18 306.24 362.78 305.64 363.28 305.14 363.78 305.14 363.98 304.34 363.78 303.64 363.08 302.64 362.68 302.04 362.48 301.44 362.68 300.44 363.38 299.74 364.28 299.54 365.58 299.64 366.48 300.44 368.18 299.74 368.18 298.44 368.48 297.94 369.58 297.74 371.78 297.54 372.68 297.84 372.78 298.74 373.38 299.14 373.98 298.74 375.38 297.74 375.38 297.04 376.08 292.04 376.18 291.54 376.38 290.84 376.88 290.44 378.38 290.24 380.98 289.24 382.08 288.44 382.88 288.34 384.38 289.74 385.08 290.44 386.18 290.94 386.78 291.24 387.48 291.64 388.08 292.14 388.68 292.44 391.48 293.14 392.18 293.14 394.68 293.04 395.58 292.94 396.08 292.14 396.38 291.34 397.28 291.04 398.28 290.84 399.38 290.94 400.78 291.34 401.38 291.54 402.38 291.94 403.28 291.04 403.78 290.54 403.88 289.44 403.78 288.84 403.38 287.74 403.88 286.14 404.38 284.84 405.18 284.44 406.08 283.94 407.08 283.64 407.68 283.34 408.58 282.64 413.38 278.24 415.18 275.74 415.48 275.24 415.58 274.64 414.98 274.24 414.38 274.04 414.58 272.24 414.78 271.24 414.98 270.44 417.18 269.74 418.68 269.54 419.48 269.74 420.18 269.74 420.48 268.54 420.78 267.44 420.98 266.84 421.58 266.44 422.08 266.44 422.28 265.74 423.08 264.24 423.48 263.64 424.78 262.44 425.48 261.94 426.08 260.14 426.38 259.24 426.78 257.54 427.78 257.44 429.58 258.24 432.48 260.04 433.18 260.94 434.28 262.14 435.28 263.34 435.48 263.94 435.78 264.84 435.98 265.54 436.18 265.74z"></path>
    </g>
</svg>