<?xml version="1.0" encoding="utf-8"?>
<!-- (c) Daniele Irsuti | SVG map of Molise - High -->
<svg xmlns="http://www.w3.org/2000/svg" xmlns:amcharts="http://amcharts.com/ammap" xmlns:xlink="http://www.w3.org/1999/xlink" version="1.1">
	<defs>
		<style type="text/css">
			.land
			{
				fill: #CCCCCC;
				fill-opacity: 1;
				stroke:white;
				stroke-opacity: 1;
				stroke-width:0.5;
			}
		</style>

		<amcharts:ammap projection="mercator" leftLongitude="6.624486" topLatitude="47.092916" rightLongitude="18.521301" bottomLatitude="35.490303"></amcharts:ammap>

	</defs>
    <g>
        <path id="molise_1" title="Isernia" d="M56.72,43.58L59.08 42.9 60.43 44.92 62.11 46.94 63.12 49.97 64.8 49.97 66.49 48.29 66.82 46.27 68.84 48.29 71.54 47.62 73.56 48.63 75.24 50.31 76.92 52.33 79.62 53.34 81.3 58.05 81.97 60.41 82.31 62.43 82.65 64.11 84.33 67.14 82.65 69.84 85 70.17 87.03 70.51 87.36 72.2 86.69 73.88 89.38 75.23 91.06 76.24 92.75 76.57 94.43 79.6 94.77 82.97 92.41 85.66 91.4 87.35 90.73 89.7 89.05 88.02 86.35 88.69 85 90.71 82.98 91.72 81.3 90.71 80.29 93.41 80.29 95.09 79.62 97.45 81.3 97.45 83.32 96.1 85.34 97.78 88.03 98.8 89.38 101.15 91.06 101.83 94.09 103.51 94.43 105.19 91.4 107.21 91.4 109.57 92.08 111.25 89.38 113.61 88.37 115.29 88.03 117.99 86.35 117.65 86.35 120.01 85.34 122.03 82.65 123.04 79.95 124.38 77.93 126.07 76.25 126.74 75.58 128.76 75.58 132.47 75.24 134.49 74.57 138.86 75.24 140.88 71.54 139.87 69.52 139.2 67.83 138.86 64.13 137.85 62.45 136.5 60.09 136.17 59.75 134.15 57.73 132.47 55.38 133.14 53.02 133.14 51.67 130.44 49.31 130.44 47.29 130.78 45.61 130.11 43.25 130.78 41.23 131.12 39.55 131.79 39.21 135.16 37.19 134.82 33.49 130.78 31.47 129.43 31.47 131.79 29.79 134.49 28.1 136.17 26.42 138.53 25.41 142.9 29.11 147.62 30.46 149.3 30.12 151.99 31.81 154.69 29.11 155.36 27.77 153.34 25.07 153.68 23.39 154.01 20.36 155.36 17.66 151.99 17.33 150.31 15.64 148.63 13.96 148.63 13.29 146.61 13.96 144.92 13.96 143.24 11.6 141.89 9.25 140.88 9.25 138.86 10.26 136.84 8.57 134.49 8.57 132.13 10.26 131.12 11.27 129.43 13.63 128.76 15.98 127.08 13.63 125.39 14.63 122.7 15.31 120.01 13.96 118.32 11.94 117.65 10.93 115.97 11.27 113.95 12.28 111.93 12.28 108.56 10.93 106.88 9.25 101.83 7.9 100.14 6.55 97.11 4.53 94.75 2.51 93.41 0.49 92.73 0.83 90.71 2.51 90.04 6.55 89.7 8.24 90.04 9.92 90.71 12.28 92.4 13.63 89.37 13.63 87.68 18 87.68 18 85.66 17.66 83.98 19.01 82.3 20.02 80.61 23.39 79.27 24.73 81.29 26.08 83.64 26.76 86 28.44 83.98 29.11 81.62 28.1 79.94 28.44 77.58 30.8 77.92 33.83 76.91 34.84 75.23 36.18 72.87 37.19 74.89 39.89 76.24 40.22 74.55 41.57 72.87 40.22 70.85 38.54 70.85 36.52 70.17 35.85 67.82 35.51 65.8 34.84 63.1 32.14 60.07 32.82 56.71 36.52 55.36 38.54 56.03 41.23 53.34 44.26 49.64 44.6 47.62 46.96 46.61 47.97 44.59 50.33 43.24 52.01 40.55 54.37 41.89 56.38 43.24 56.72 43.58z"></path>
        <path id="molise_2" title="Campobasso" d="M142.58,5.87L144.94 6.88 146.96 7.55 149.99 8.56 151.67 9.23 154.36 9.91 156.05 10.24 160.09 10.92 163.12 11.25 167.16 11.93 168.51 13.95 170.86 15.63 172.88 16.64 178.61 20.68 181.64 24.05 183.66 25.06 185.34 25.73 187.36 26.07 189.38 26.74 191.74 27.08 191.4 28.76 191.4 31.12 191.06 32.8 192.07 34.82 192.75 36.84 191.4 38.86 190.73 40.88 190.05 42.57 188.71 44.25 187.02 46.94 188.37 49.97 190.05 51.99 189.72 53.68 190.39 57.38 188.03 59.06 187.7 61.76 189.38 64.45 191.06 66.14 189.38 66.14 190.05 69.5 191.74 71.19 196.12 73.88 197.8 73.88 194.77 76.91 192.75 77.58 191.06 79.6 190.05 81.29 190.05 82.97 188.03 81.29 188.03 83.31 185.68 84.99 183.32 86.34 181.64 87.01 180.96 89.03 180.96 90.71 179.28 91.39 177.93 93.07 177.93 94.75 175.91 95.09 173.56 94.42 172.21 92.06 170.19 91.39 168.51 91.39 166.82 90.71 165.81 92.73 164.47 95.09 163.46 97.11 165.47 98.46 165.47 100.14 166.15 102.16 166.15 103.84 166.15 106.2 165.81 108.56 165.14 111.25 164.8 114.28 165.14 116.3 166.82 117.65 170.19 117.99 172.55 120.68 174.23 122.03 176.25 123.37 174.57 126.07 173.56 128.76 170.86 129.43 168.51 131.46 165.14 132.8 162.78 133.14 160.09 133.81 157.73 135.16 156.38 137.18 155.37 138.86 153.69 139.87 151.67 139.53 147.97 137.85 145.61 136.5 143.59 135.16 141.91 134.49 139.89 135.83 139.21 137.51 138.88 140.21 138.54 142.57 135.51 144.59 130.79 146.61 129.11 145.93 126.42 144.59 123.39 145.93 122.38 147.62 120.36 147.95 118 149.64 116.65 151.66 115.31 153.68 112.61 155.7 110.93 154.69 109.92 153 107.9 150.65 106.22 149.97 104.2 153 101.17 152.33 99.48 151.99 97.13 153 95.44 151.66 93.76 151.32 92.41 148.96 91.4 146.94 91.4 145.26 89.38 144.92 87.7 143.58 85.68 143.58 83.32 143.58 80.29 140.88 78.61 141.89 76.59 140.88 74.9 139.87 74.9 135.5 75.58 133.47 75.58 129.43 75.91 127.41 77.93 126.07 79.95 124.38 81.64 122.7 84.33 123.37 85.68 121.02 86.35 117.65 88.37 119 88.03 116.3 88.71 114.28 91.06 112.26 91.4 110.24 91.06 108.22 92.75 106.2 94.09 103.51 92.08 101.83 89.72 102.16 89.05 99.13 85.34 97.78 83.66 96.44 81.97 97.11 79.95 98.12 80.29 95.43 80.63 93.74 79.95 91.72 82.98 91.72 85 90.71 86.35 88.69 88.71 88.02 90.39 90.04 91.74 88.36 92.41 85.66 94.43 83.64 94.43 80.28 94.09 77.92 92.41 76.91 89.72 75.23 88.03 74.89 87.36 72.87 87.7 71.19 89.38 69.17 90.39 67.48 93.08 65.13 95.11 63.44 94.77 61.42 96.45 59.74 97.8 57.72 99.48 57.04 101.17 55.7 102.18 53.68 102.85 51.99 104.53 50.31 104.87 48.29 105.21 46.61 105.88 44.92 106.89 42.9 106.89 41.22 108.91 39.54 110.59 38.86 112.95 37.18 114.63 34.82 114.97 32.13 114.97 30.45 114.63 28.76 115.98 27.08 117.66 24.38 118.67 22.7 121.7 17.99 123.39 15.97 125.07 14.28 127.09 13.61 128.44 11.93 131.47 9.57 132.48 7.89 130.46 6.54 128.78 6.2 129.11 4.18 130.12 1.49 133.49 0.48 135.17 1.83 136.86 2.84 139.55 4.18 141.23 5.19 142.58 5.87z"></path>
    </g>
</svg>
