<?xml version="1.0" encoding="utf-8"?>
<!-- (c) Daniele Irsuti | SVG map of Sardegna - High -->
<svg xmlns="http://www.w3.org/2000/svg" xmlns:amcharts="http://amcharts.com/ammap" xmlns:xlink="http://www.w3.org/1999/xlink" version="1.1">
	<defs>
		<style type="text/css">
			.land
			{
				fill: #CCCCCC;
				fill-opacity: 1;
				stroke:white;
				stroke-opacity: 1;
				stroke-width:0.5;
			}
		</style>

		<amcharts:ammap projection="mercator" leftLongitude="6.624486" topLatitude="47.092916" rightLongitude="18.521301" bottomLatitude="35.490303"></amcharts:ammap>

	</defs>
	<g>
        <path id="sardegna_1" title="Carbonia - Iglesias" d="M21.26,293.18L20.86 290.99 20.46 289.59 20.06 288.39 20.66 287.19 20.26 286.19 21.06 285.2 22.46 284.2 22.86 285.6 26.05 285.6 27.05 285 28.25 286.19 29.45 286.79 30.64 287.79 30.84 288.79 31.25 290.59 32.64 291.19 32.84 289.79 33.64 288.39 33.84 287.19 32.64 285.2 32.24 284.2 31.25 283 30.25 283.6 29.05 283.6 28.45 282 29.05 280.8 28.85 278.81 28.05 277.61 26.45 276.21 25.85 277.61 26.85 278.61 25.85 277.61 25.25 275.61 25.05 274.21 24.86 273.02 23.26 272.42 22.06 270.82 21.86 269.22 23.06 268.02 24.26 266.83 25.25 266.03 26.25 264.63 27.25 264.23 28.65 262.23 28.85 261.23 28.65 260.24 28.65 258.84 28.05 257.64 27.05 256.64 26.85 255.24 25.25 255.04 24.06 253.25 23.86 251.45 22.66 250.25 23.86 247.86 25.45 246.46 26.45 244.66 26.65 243.46 26.65 242.26 25.05 241.07 26.45 239.87 26.65 238.67 28.45 237.87 29.65 238.27 30.64 238.87 32.04 238.07 33.44 237.87 34.44 237.07 36.24 236.67 37.83 236.87 38.83 236.87 39.03 238.07 40.03 239.47 41.63 240.67 42.83 240.87 43.42 242.26 44.42 243.06 45.42 243.66 47.02 243.86 47.22 244.86 48.82 248.06 49.22 249.05 50.21 249.85 51.21 249.85 52.41 249.85 53.41 250.05 54.61 249.45 56.01 250.85 56.41 251.85 55.61 254.25 55.61 255.44 55.41 257.24 56.6 258.24 57.6 260.44 57.6 261.43 58.4 262.63 59.6 263.63 59.6 264.63 59.8 265.83 60 267.02 60.2 268.42 60.4 270.02 60.8 271.42 61.2 272.62 61.6 274.01 62.4 275.81 63.99 276.41 66.59 277.61 67.59 278.81 67.99 280 67.39 282 67.59 283.6 68.58 284.4 69.78 285.4 70.18 286.99 70.58 287.99 69.98 289.79 69.38 291.19 68.58 292.79 66.59 292.58 64.99 292.58 63.19 292.79 59.8 292.38 58.8 292.98 56.6 294.58 54.81 295.18 54.01 293.98 52.01 293.38 51.01 294.58 50.61 295.58 50.81 298.18 49.02 299.57 48.22 301.17 47.82 302.37 47.02 303.57 46.02 303.77 44.82 303.57 43.83 304.57 44.02 303.37 42.83 301.37 42.43 299.97 41.63 298.77 41.83 297.18 42.83 295.98 42.63 294.98 42.23 293.78 41.63 292.79 40.43 292.79 39.43 292.79 38.43 291.59 36.64 290.79 35.04 290.59 33.64 290.79 31.84 291.39 31.84 292.38 31.44 293.38 30.64 294.98 30.05 296.78 30.05 297.98 30.05 298.98 30.25 299.97 29.25 301.17 29.25 302.37 28.65 303.57 27.05 303.77 26.05 304.37 24.66 301.77 24.26 300.57 23.66 299.17 23.46 297.98 22.06 296.18 21.66 295.18 21.46 294.18 21.26 293.18z M15.87,275.41L15.87 276.81 15.67 277.81 16.07 279.41 15.87 280.4 15.87 281.8 15.87 283.8 15.87 285 14.67 286 13.07 286.19 11.28 285.2 9.88 284.6 10.28 282 8.88 280.2 7.88 280.2 7.68 277.81 10.08 276.61 11.48 276.21 14.07 275.21 15.47 274.81 15.87 275.41z"></path>
        <path id="sardegna_2" title="Medio Campidano" d="M80.57,198.33L81.77 198.33 82.96 198.33 85.16 199.53 85.76 200.53 86.96 200.73 89.75 200.93 91.55 200.93 92.55 201.73 92.75 202.73 90.75 204.52 91.35 206.32 91.15 207.32 91.15 208.72 90.15 209.72 90.35 212.11 90.35 213.11 90.15 214.31 90.15 216.11 88.95 217.9 88.15 218.9 87.36 221.1 86.96 222.5 86.56 223.69 85.96 225.09 85.76 226.09 85.36 227.29 84.96 228.29 83.76 229.68 85.36 230.68 86.56 231.68 86.36 232.88 86.56 233.88 86.96 235.28 86.96 236.27 85.76 237.27 84.36 238.47 82.56 239.07 81.56 239.07 82.16 240.27 82.96 242.46 83.36 243.46 82.76 244.86 81.77 245.66 80.37 246.06 79.17 246.86 78.17 247.26 76.37 247.46 75.17 247.46 73.98 247.46 72.58 247.06 70.18 246.26 69.18 245.86 67.99 245.86 66.19 246.26 64.79 246.26 63.19 246.26 62 246.46 59.2 247.46 58 248.46 56.01 249.85 55.01 249.65 53.81 249.85 52.61 249.85 51.41 249.85 50.41 249.85 49.42 249.25 48.82 248.06 48.22 245.86 47.02 244.86 46.02 244.06 44.82 243.26 43.42 242.46 43.63 241.27 42.63 240.87 40.03 239.47 39.83 238.47 38.83 237.07 37.83 236.87 36.84 236.67 35.04 236.27 34.04 237.47 33.04 237.87 30.64 238.87 29.65 238.27 28.45 237.87 26.85 238.47 26.45 239.87 25.25 240.67 23.86 239.87 24.06 237.87 24.66 236.87 25.65 235.88 27.45 233.48 28.65 231.48 29.85 229.68 30.64 228.29 30.84 226.49 31.44 225.29 31.84 224.29 31.84 222.9 32.44 221.7 32.24 219.5 31.25 218.5 30.64 217.5 30.64 216.31 30.64 214.91 30.84 213.51 31.44 212.31 30.45 211.51 30.05 210.12 30.84 209.12 31.05 207.12 30.25 205.92 30.45 203.13 30.25 202.13 30.05 200.73 30.64 199.53 31.64 199.53 32.44 200.73 32.84 201.93 34.84 205.12 35.24 206.12 35.64 207.32 37.03 207.92 37.44 208.92 40.23 208.92 41.63 209.32 42.63 210.31 43.63 209.92 45.82 209.52 46.62 210.71 47.42 211.91 48.22 212.91 48.22 214.31 49.62 214.51 51.01 215.71 52.61 217.1 53.61 216.5 54.61 215.71 55.61 215.91 57.8 216.71 59.2 216.91 60.4 217.3 61.4 216.91 62.99 216.11 63.79 214.91 64.99 214.11 67.39 213.51 68.58 212.71 70.38 212.91 71.58 212.51 71.98 211.51 72.38 210.12 73.38 209.12 73.58 207.72 74.78 207.52 75.77 206.72 76.77 205.72 75.77 204.13 76.57 202.93 77.17 201.93 78.17 201.13 79.17 201.33 79.57 200.13 79.17 198.73 79.37 197.74 80.57 198.33z"></path>
        <path id="sardegna_3" title="Cagliari" d="M116.51,272.22L115.51 271.42 114.31 271.22 110.92 271.02 109.92 270.62 109.12 269.62 108.12 269.42 106.92 269.42 105.33 270.02 104.13 270.62 103.13 271.42 102.13 272.42 101.53 273.62 102.53 274.61 101.53 275.41 100.14 275.21 97.94 272.22 96.54 271.22 95.14 271.22 93.35 272.42 92.35 273.22 90.95 274.61 89.95 276.01 88.55 277.81 87.56 279.41 87.16 280.8 86.96 282 86.36 283.2 86.96 284.4 87.16 285.6 86.96 286.59 87.16 287.79 88.15 288.99 88.95 290.39 89.95 291.39 89.95 292.38 89.55 293.58 88.95 294.58 88.15 295.78 87.95 297.18 87.95 298.38 86.76 300.57 85.36 300.57 84.56 301.97 83.36 303.37 82.16 304.57 79.97 306.36 78.17 307.96 76.97 308.96 75.97 310.76 74.58 311.95 73.58 312.35 71.38 314.15 69.98 314.75 68.78 314.75 67.99 313.55 65.99 311.75 64.79 312.55 63.59 311.95 63.19 310.96 62.99 309.76 61.8 309.76 60.4 308.76 59 308.16 58 307.16 56.8 308.36 55.61 309.16 53.61 310.16 52.41 310.76 52.21 311.75 51.01 312.35 50.02 312.55 50.02 313.55 50.81 315.55 49.62 316.35 49.62 314.75 49.42 313.55 49.81 312.55 48.82 312.15 47.42 312.75 46.02 312.95 45.82 311.56 46.42 310.16 47.42 307.56 47.22 306.16 46.62 304.77 46.82 303.77 47.82 302.37 48.22 301.17 49.02 299.57 50.21 298.98 51.21 298.98 50.61 295.98 51.21 294.78 51.21 293.78 53.01 293.38 54.61 294.78 55.81 294.98 58.6 293.38 59.4 292.38 62.59 292.58 64.39 292.79 65.79 292.38 67.99 292.19 69.38 291.19 69.98 289.79 70.58 287.99 70.18 286.99 69.98 286 68.78 284.4 67.59 283.6 67.39 282 67.59 280.6 67.99 279.61 66.59 277.61 63.99 276.41 62.8 275.81 62 274.81 61.4 273.62 60.8 271.42 60.4 270.02 60.2 268.82 60 267.02 59.8 265.83 59.6 264.63 59.6 263.63 59.2 262.63 57.4 262.23 57.6 260.44 57 258.84 55.81 257.64 55.61 255.44 55.61 254.25 56.2 252.45 56.01 250.85 58 248.46 59.2 247.66 61.2 246.66 62.4 246.46 64.39 246.46 65.39 246.06 67.79 246.26 68.98 245.86 70.18 246.26 72.18 247.06 73.98 247.46 75.17 247.46 76.37 247.46 78.17 247.26 79.17 246.86 80.37 246.06 81.56 245.66 82.76 244.86 83.36 243.66 82.96 242.46 82.36 240.67 81.56 239.47 82.56 239.07 83.96 238.47 85.16 237.87 86.36 237.07 86.96 236.07 86.96 234.48 86.36 233.48 86.56 231.68 85.36 230.68 84.16 230.28 84.16 229.28 85.36 227.29 85.76 226.29 85.96 225.09 86.16 223.69 86.96 222.69 87.36 221.1 87.95 219.5 88.95 217.9 90.15 216.11 90.15 214.31 90.35 213.31 90.35 212.11 90.15 209.92 90.75 208.92 91.35 207.72 91.35 206.52 91.35 205.32 91.75 203.53 92.75 202.53 91.55 200.93 90.15 200.93 87.56 200.73 86.16 200.73 86.36 199.73 86.96 198.53 88.35 196.94 89.35 195.74 90.55 195.34 91.55 194.14 92.55 193.54 93.55 192.54 94.74 191.74 96.14 190.35 96.34 189.35 97.94 190.15 98.94 189.95 100.14 189.55 101.73 191.34 102.93 191.74 104.53 192.14 105.33 190.95 105.13 189.55 103.93 189.15 103.93 188.15 104.13 186.75 104.53 184.76 104.13 183.76 105.13 182.96 106.33 181.16 107.32 180.96 108.52 181.16 109.72 180.36 110.92 180.16 112.72 180.76 112.72 181.96 112.92 182.96 113.11 184.36 113.71 185.55 113.31 187.35 112.92 188.55 113.51 190.35 114.51 191.74 114.71 192.74 114.51 193.74 113.91 194.74 114.91 194.34 116.11 195.54 117.31 195.94 119.31 197.14 120.7 198.73 120.7 199.73 121.3 201.33 122.7 201.93 124.7 203.33 124.7 204.52 123.9 206.32 121.9 207.52 120.3 208.12 120.7 209.52 121.7 209.92 122.7 209.12 123.7 208.92 124.7 209.92 125.5 211.31 125.1 212.31 125.3 214.31 125.89 215.51 126.09 216.5 127.29 217.7 127.09 219.1 128.29 218.1 129.09 216.91 129.29 215.91 130.49 215.91 131.88 216.31 132.88 217.3 134.08 219.1 135.28 218.9 136.08 217.7 136.08 218.9 136.48 219.9 138.07 220.9 137.88 222.69 138.87 222.69 140.07 223.49 140.87 224.49 142.07 224.69 143.07 224.49 144.87 224.49 145.86 224.89 146.86 225.49 147.86 226.09 150.66 227.69 149.66 228.49 148.86 231.68 148.66 233.68 149.06 234.68 150.06 235.28 149.86 236.47 149.86 237.67 150.06 239.07 149.66 240.27 149.66 241.47 148.66 242.66 148.06 244.46 147.06 247.06 146.46 248.46 146.06 250.05 145.66 251.05 145.46 253.05 145.66 255.84 145.86 257.04 147.06 258.44 148.66 259.04 149.06 260.44 148.06 260.24 147.06 260.24 146.06 261.04 144.87 262.63 144.27 263.83 143.27 265.83 142.87 267.02 142.67 268.82 142.47 270.82 142.27 271.82 142.07 273.22 142.27 274.21 143.27 274.61 143.67 275.61 142.87 276.81 142.47 278.61 142.27 279.81 141.87 281 140.67 281.6 139.67 281.6 138.47 282.8 137.68 283.8 137.68 285.2 138.28 286.39 137.08 285.6 136.28 284.4 136.28 283.4 136.68 282.4 134.48 281.2 133.08 281.6 131.49 282 130.49 282.6 129.49 282.8 129.09 281.8 127.29 281 126.29 280.2 125.1 280.2 124.9 278.41 123.7 277.21 122.7 276.21 121.3 275.81 120.3 275.41 118.91 273.62 117.91 272.62 116.71 272.22 116.51 272.22z"></path>
        <path id="sardegna_4" title="Ogliastra" d="M147.66,140.63L147.66 141.82 147.86 144.62 148.26 146.22 149.46 147.41 149.66 148.41 150.46 149.61 150.66 151.01 151.85 152.41 153.25 154.4 153.85 155.4 155.25 156.4 156.25 157 157.84 157.6 158.44 159.2 157.84 160.19 157.04 162.39 156.65 163.39 155.65 164.99 155.45 166.19 155.05 167.18 155.05 169.38 154.45 170.38 153.85 171.38 153.65 174.57 153.65 175.77 154.25 176.77 155.65 177.57 156.65 177.97 156.45 179.56 154.65 179.76 153.85 180.76 153.25 182.36 153.25 183.56 153.45 186.15 154.25 187.15 154.85 188.35 153.65 189.75 152.85 192.54 152.65 193.74 152.65 194.74 152.45 195.74 152.25 196.74 152.05 198.33 152.05 199.33 152.65 201.13 152.65 203.53 152.85 204.52 152.65 205.52 152.85 206.72 152.25 208.12 151.25 209.32 151.85 210.31 151.45 211.71 150.66 212.71 150.26 213.71 150.26 215.31 150.66 216.71 150.66 217.7 150.85 219.7 151.25 221.3 151.06 223.69 151.06 224.89 150.46 226.29 150.66 227.49 148.86 226.69 146.86 225.49 145.86 224.89 144.87 224.49 143.07 224.49 142.07 224.69 140.87 224.69 139.87 223.69 138.87 222.69 137.88 222.69 137.68 221.7 136.68 220.5 136.08 219.1 136.28 217.7 135.68 218.7 134.48 219.1 133.48 218.1 131.88 216.31 130.49 215.91 129.29 215.91 129.09 216.91 128.29 218.1 127.09 219.1 127.49 217.9 126.09 216.71 125.89 215.51 125.3 214.31 125.1 213.31 125.3 212.11 125.69 210.51 124.5 209.72 123.5 208.92 121.9 209.52 120.7 209.92 120.3 208.12 121.9 207.52 123.3 207.12 123.9 205.12 125.1 203.93 122.9 202.13 121.9 201.93 120.7 199.73 120.7 198.73 119.31 197.14 117.51 195.94 116.11 195.54 115.31 194.54 113.91 194.94 114.51 193.94 114.71 192.74 114.51 191.74 113.91 190.75 112.72 189.15 113.11 187.95 113.51 186.55 113.71 185.35 112.92 183.76 112.72 181.96 113.51 180.36 114.31 179.36 113.71 177.37 113.31 176.17 113.91 174.77 114.31 173.37 114.11 172.18 116.71 170.98 117.31 169.78 117.11 168.58 116.11 167.78 115.11 166.78 114.71 165.59 115.71 164.79 116.71 164.59 117.71 163.39 117.91 161.99 118.71 160.59 119.9 160 120.9 160.19 122.1 160.19 123.3 159.59 123.7 158.6 125.1 157.4 126.49 157.2 127.89 156.4 128.89 155.2 129.09 153.6 129.89 152.41 130.49 151.41 131.49 150.81 132.68 150.21 132.88 148.81 133.08 147.61 134.28 146.22 135.28 145.62 136.28 145.22 136.88 144.22 136.88 142.22 138.07 141.82 139.47 143.22 140.47 143.82 142.67 144.82 143.67 142.62 144.66 141.62 145.86 141.22 147.26 140.43 147.66 140.63z"></path>
        <path id="sardegna_5" title="Oristano" d="M35.84,114.47L37.23 114.87 38.43 116.86 38.63 117.86 39.83 117.66 41.03 118.46 41.23 119.46 42.23 120.86 42.43 121.86 43.63 123.45 44.62 123.85 45.02 125.05 45.02 126.65 46.82 127.05 48.02 127.85 47.22 129.24 47.62 130.64 47.22 132.04 47.82 133.04 47.42 134.24 48.62 135.03 49.81 136.03 51.01 136.63 52.21 137.23 52.61 138.83 52.61 140.03 52.81 141.03 53.01 142.22 53.01 143.22 54.01 143.22 55.21 142.22 56.6 142.02 57.6 143.02 58.6 143.02 59.8 143.62 60.2 144.62 59.8 146.22 61.8 144.82 62.99 144.42 64.59 144.82 65.59 144.82 67.59 144.02 68.78 143.22 70.38 142.62 71.38 142.42 72.58 142.82 73.98 142.82 76.17 142.82 77.17 142.62 78.17 142.42 79.77 142.22 81.17 142.42 82.36 141.82 83.76 141.42 84.56 142.42 85.56 143.42 86.56 144.02 86.76 145.22 85.56 146.02 85.96 147.01 87.16 148.41 87.36 149.61 87.36 150.81 86.56 152.01 87.16 153.41 87.56 155 88.15 156.4 88.95 157.4 88.95 158.8 89.15 161.39 89.55 162.59 88.15 164.39 86.76 163.79 85.36 162.39 84.36 162.19 82.76 163.59 80.77 165.99 80.17 167.98 80.77 169.18 80.97 170.38 83.36 171.38 84.56 171.38 85.96 170.78 87.16 171.98 85.96 173.77 84.96 174.77 85.16 176.17 84.36 177.17 84.36 179.36 84.16 180.56 85.36 180.36 86.36 180.56 88.35 180.76 89.35 180.96 90.15 182.16 91.35 182.76 92.55 183.56 94.74 184.76 95.34 185.95 96.34 186.35 96.34 184.76 97.54 184.16 99.14 184.96 99.74 185.95 100.73 187.55 101.73 188.55 102.33 190.15 102.13 191.15 100.93 190.55 98.94 189.95 97.94 190.15 96.74 189.15 96.14 190.15 95.54 191.34 94.34 191.74 93.15 193.14 92.15 193.74 91.15 194.74 89.55 195.14 88.55 196.54 87.56 197.74 86.36 199.73 85.16 200.53 83.76 198.53 81.77 198.33 80.77 198.33 79.77 197.94 79.37 199.13 79.57 200.93 78.17 201.13 77.17 201.93 76.57 202.93 75.97 203.93 76.77 205.32 75.77 206.72 74.78 207.52 73.78 207.72 73.38 208.92 72.78 209.92 71.98 211.31 71.58 212.51 70.58 212.91 69.38 213.11 67.39 213.51 65.79 214.11 63.99 214.31 63.19 215.51 62 216.71 61 216.91 59.8 217.9 58.4 216.31 55.81 216.31 54.61 215.71 53.61 216.5 52.61 217.1 51.81 216.11 50.02 215.11 49.02 214.51 48.22 213.11 47.42 211.91 46.62 210.91 46.42 209.72 44.62 209.52 42.63 210.31 41.63 209.32 40.23 208.92 38.23 209.12 37.03 207.92 35.84 207.52 36.04 206.12 36.44 205.12 36.84 203.93 37.44 202.93 37.03 201.73 38.23 199.73 39.63 197.14 40.03 196.14 40.83 192.54 41.03 191.54 41.03 190.55 41.23 189.35 41.03 187.95 42.23 187.75 41.03 187.15 39.63 186.55 40.23 185.35 39.43 183.56 38.63 182.56 37.63 181.76 36.64 181.36 35.64 181.56 33.64 181.76 32.64 181.96 31.44 183.36 30.05 184.76 29.85 186.95 29.65 185.55 29.25 184.56 27.85 182.96 26.85 182.36 25.65 182.16 25.65 180.16 25.85 178.97 26.05 176.57 26.05 174.97 25.85 173.97 25.05 172.97 25.85 171.18 26.85 169.98 26.85 168.78 27.25 167.78 26.45 165.59 25.25 165.39 23.66 165.79 23.66 164.59 24.66 163.79 25.85 163.59 26.85 164.19 28.05 163.99 29.25 162.99 30.25 163.39 31.25 162.99 32.84 161.39 34.24 160 35.24 158.4 34.84 156.6 34.44 154.6 33.44 153.21 31.84 150.01 32.04 147.61 31.84 145.82 32.44 144.62 32.44 143.02 32.24 141.82 32.64 140.23 33.04 138.83 33.44 137.63 33.64 136.63 33.84 135.03 34.24 132.64 32.64 131.04 32.64 130.04 32.44 128.84 30.84 128.04 29.45 126.65 28.05 125.85 26.65 126.05 25.65 125.65 24.66 125.85 24.86 124.65 24.06 123.05 25.05 122.25 25.45 120.26 25.85 118.26 26.25 116.86 27.25 117.86 28.45 118.46 30.45 118.46 31.64 117.86 33.64 116.86 34.64 116.26 34.84 115.27 35.84 114.47z"></path>
        <path id="sardegna_6" title="Nuoro" d="M142.87,78.32L144.87 79.52 146.86 79.12 149.46 79.92 150.26 81.32 150.85 82.32 152.65 84.31 152.45 83.32 153.05 82.32 154.05 81.72 158.04 82.52 158.24 83.92 158.84 84.91 158.44 85.91 158.44 86.91 158.64 88.11 159.04 89.31 159.44 90.31 159.44 91.5 160.04 92.7 161.04 93.7 162.64 94.7 163.44 95.7 163.63 97.29 163.63 98.49 165.23 99.89 166.43 100.29 167.03 101.49 167.03 103.08 166.43 105.28 165.63 107.28 165.23 108.48 164.43 110.27 163.63 112.07 162.04 114.07 161.84 115.67 161.84 116.66 161.04 118.86 160.24 120.06 158.84 120.06 157.64 120.86 156.45 122.06 155.45 123.05 154.45 124.05 153.45 125.25 152.65 126.25 151.85 127.65 151.06 128.84 150.26 130.64 148.46 133.04 147.66 135.43 147.26 136.83 147.26 137.83 147.26 138.83 147.46 139.83 145.86 141.22 144.87 141.42 143.67 142.62 142.67 144.22 140.47 143.82 139.47 143.22 138.07 141.82 136.88 142.02 136.88 143.22 136.68 144.82 135.28 145.62 134.28 146.22 133.08 147.61 132.88 148.81 132.68 150.21 131.69 150.81 130.49 151.21 129.89 152.41 129.09 153.41 128.89 155.2 127.89 156.4 126.89 156.8 125.89 157.4 124.3 157.6 123.7 158.8 122.1 160.19 121.1 160.19 119.9 160 118.91 160.39 117.91 161.99 117.71 162.99 117.31 164.19 116.31 164.59 115.11 164.79 114.91 166.38 115.51 167.38 116.71 168.18 117.11 169.58 116.91 170.78 114.91 171.78 114.11 172.97 114.11 174.17 113.51 176.17 113.71 177.37 114.11 178.37 114.11 179.36 113.11 180.76 111.72 180.56 110.72 180.16 108.92 180.96 107.32 180.96 106.33 181.16 105.33 182.36 104.73 183.36 104.53 184.76 104.93 186.75 103.93 187.95 103.93 188.95 104.93 189.55 105.33 190.95 105.33 192.14 103.33 191.94 101.93 191.34 102.33 190.35 102.53 189.15 101.33 188.35 99.74 185.95 99.14 184.96 97.54 184.16 96.34 184.76 96.14 185.75 95.14 185.55 93.15 183.56 92.15 183.36 91.15 182.76 89.95 181.96 88.35 180.76 87.16 180.56 85.96 180.56 84.56 180.56 84.36 179.36 84.76 178.17 84.36 176.97 85.16 175.77 85.96 173.77 86.76 172.57 86.76 170.98 84.96 171.38 83.56 171.38 81.77 170.98 80.77 169.78 80.37 168.18 80.37 166.58 81.96 164.19 84.36 162.39 85.36 162.39 86.76 163.79 88.15 164.79 88.95 163.19 89.35 161.79 88.95 159 88.95 157.4 88.15 156.4 87.75 155.2 87.16 154 85.76 152.41 87.16 151.01 87.36 149.61 87.16 148.41 86.16 147.41 85.36 146.42 86.56 145.42 86.76 144.22 85.56 143.42 84.56 142.62 83.96 141.62 82.36 141.82 81.36 142.22 79.77 142.22 78.17 142.42 77.17 142.62 76.17 142.82 74.97 142.82 73.58 142.82 72.38 142.82 71.38 142.42 69.18 143.02 67.59 144.02 65.59 144.82 64.59 144.82 63.39 144.82 62.2 144.22 60.2 146.02 60.2 145.02 60.2 144.02 58.6 143.22 57.6 143.22 56.8 142.02 55.81 142.02 54.61 142.42 53.41 143.22 53.01 142.22 52.81 141.03 52.61 140.03 52.61 139.03 52.61 138.03 51.61 137.03 49.81 136.03 48.82 135.63 48.02 134.44 48.02 133.44 47.22 132.04 47.62 130.64 47.22 129.24 48.22 129.04 49.42 129.24 49.81 130.24 50.81 130.84 51.61 129.64 53.01 129.44 54.41 128.04 54.81 127.05 56.2 126.85 56.6 125.85 57.8 125.25 59 124.85 60.2 123.85 61.2 124.45 62.4 124.05 63.99 123.85 64.99 123.25 66.19 122.85 67.39 121.06 67.39 119.66 67.39 118.66 67.19 116.86 68.39 116.26 69.58 116.86 70.78 117.06 71.38 118.26 71.98 119.26 73.18 119.06 74.58 117.66 75.57 117.86 75.38 118.86 76.37 120.06 78.77 121.46 79.97 121.86 81.56 123.65 82.16 124.85 83.16 125.45 83.56 126.65 84.56 127.85 85.76 128.64 87.16 130.24 88.15 131.24 88.95 130.04 89.75 129.04 89.55 127.85 90.95 126.45 91.95 126.05 93.15 125.85 95.74 124.65 96.94 123.65 98.14 123.25 99.34 122.85 101.33 122.06 102.93 121.46 103.73 120.26 105.33 118.06 106.92 116.66 107.92 114.67 108.72 113.27 108.92 112.07 109.72 110.87 110.32 109.47 111.52 109.28 112.52 109.08 113.51 108.08 113.51 107.08 113.11 105.88 112.92 104.48 111.52 103.48 110.52 103.88 107.92 104.88 106.13 104.28 104.93 104.48 103.53 103.88 104.33 102.09 103.93 100.89 105.13 100.29 106.13 99.89 107.92 100.09 108.92 99.89 111.12 100.89 112.92 101.29 114.31 100.89 116.31 99.09 117.71 98.69 119.11 97.69 120.1 96.69 121.1 96.1 122.1 95.7 122.3 94.7 123.5 93.7 124.3 92.7 122.9 90.7 124.3 89.71 125.3 88.71 126.29 87.71 126.29 86.51 126.49 85.11 128.49 84.31 129.69 84.91 131.09 85.11 132.48 85.31 133.48 86.31 135.28 85.11 136.68 84.91 138.67 83.72 139.67 82.72 140.87 81.72 141.27 80.72 141.87 79.52 142.67 78.52 142.87 78.32z"></path>
        <path id="sardegna_7" title="Sassari" d="M7.08,94.3L7.28 92.7 8.28 92.7 8.68 91.5 7.88 90.31 6.68 89.51 5.68 89.71 5.29 90.9 4.89 91.9 3.89 92.5 3.09 94.1 3.09 95.1 3.29 96.69 1.89 94.5 1.49 92.1 1.09 89.71 1.29 88.71 3.09 87.91 5.29 86.91 5.68 84.51 6.08 83.52 6.48 82.52 7.28 81.52 7.08 80.32 6.08 79.92 4.29 79.52 4.29 78.52 3.09 77.33 1.69 75.53 0.69 75.13 0.49 73.93 2.09 72.53 2.89 71.14 3.49 70.14 3.69 68.54 3.09 67.14 4.49 65.74 5.49 64.35 5.88 63.35 6.48 62.35 7.08 60.35 7.88 58.95 8.88 57.16 8.88 55.36 8.88 52.96 7.48 51.77 6.28 51.37 6.08 50.37 4.89 48.77 5.29 47.57 5.68 46.57 6.28 45.38 6.88 44.18 8.08 44.38 9.68 46.17 10.68 46.17 10.48 47.17 10.08 48.37 10.28 49.57 10.68 50.77 10.48 51.97 11.88 54.16 13.67 56.36 14.67 57.56 15.87 58.55 16.87 59.35 18.07 60.15 19.06 60.35 20.46 60.55 21.66 59.75 22.86 59.35 24.26 59.35 23.06 59.35 21.86 59.55 21.46 60.75 23.86 61.35 25.65 61.15 26.85 61.15 27.85 61.15 29.65 62.15 30.64 62.95 32.04 63.55 33.24 63.55 34.44 63.75 35.84 63.55 38.23 63.15 39.63 62.95 40.63 62.75 41.63 62.35 42.83 61.95 44.02 61.55 45.22 60.75 46.62 59.95 48.22 58.36 49.02 56.96 49.42 55.76 51.41 54.36 52.61 53.76 54.41 52.96 55.61 51.77 57.2 50.97 58.6 51.77 60.2 50.97 62 51.37 62.99 51.17 63.99 50.97 65.39 49.97 66.99 48.97 68.78 47.57 71.18 47.97 72.38 48.57 74.38 49.17 75.38 48.97 77.37 47.97 78.17 46.77 79.17 45.77 80.17 46.17 81.17 45.98 82.56 46.17 83.16 47.57 81.96 48.37 83.56 49.37 83.96 50.37 84.16 51.37 83.56 52.96 82.56 53.56 81.17 53.76 79.37 54.56 78.37 55.36 76.17 54.76 75.97 56.16 75.38 57.36 76.17 59.15 77.17 59.15 78.17 59.95 79.37 58.76 80.57 57.76 82.76 58.16 83.96 59.75 85.16 60.35 86.36 60.35 85.16 61.15 85.56 62.35 85.96 63.35 84.96 63.75 84.16 64.75 85.56 64.94 87.36 66.34 87.75 67.34 87.56 68.34 88.15 69.34 87.36 70.54 87.56 71.53 88.35 73.13 87.95 75.13 87.36 76.33 87.16 77.92 87.36 79.12 86.36 79.72 85.96 80.92 86.96 81.72 88.15 82.32 89.55 82.72 90.95 82.72 92.15 83.12 92.35 84.11 94.54 85.31 96.74 86.11 98.54 85.31 99.74 84.71 101.33 84.51 102.73 84.11 102.93 85.51 103.33 87.51 104.33 88.51 104.53 90.11 104.33 91.3 104.13 92.7 104.53 93.9 104.13 95.1 104.33 96.69 103.73 99.09 103.93 100.09 104.13 101.29 104.33 103.08 104.93 104.48 106.13 104.28 107.12 104.68 109.52 104.48 111.52 103.48 112.92 103.68 112.92 105.08 113.31 106.08 113.51 107.48 112.92 108.48 111.52 109.28 110.32 109.28 110.12 110.47 108.92 112.07 108.72 113.27 107.92 114.27 107.72 115.86 105.73 117.46 103.93 119.26 103.53 121.46 102.33 121.46 100.14 122.45 98.34 123.05 96.94 123.65 95.74 124.45 93.75 125.65 92.75 126.05 91.55 126.25 89.55 127.45 89.55 128.64 89.35 129.64 88.55 130.64 87.36 130.44 86.56 129.44 85.56 128.64 84.16 127.45 83.56 126.25 82.16 124.85 81.56 123.65 80.77 122.45 79.77 121.86 76.77 120.46 75.77 119.46 75.38 118.46 75.38 117.26 74.18 118.26 72.18 119.26 71.18 118.86 71.38 117.66 70.18 117.06 68.58 116.46 67.19 116.86 67.39 118.66 67.39 119.66 67.39 121.06 66.99 122.45 65.39 123.05 64.19 123.85 62.99 124.25 62 124.05 60.8 124.25 59.6 124.05 58.4 125.45 57.4 125.25 56.6 126.45 55.41 126.85 54.41 128.04 53.61 129.04 51.61 129.64 50.81 130.84 49.81 130.84 49.62 129.64 48.22 129.04 48.02 128.04 46.82 127.05 45.82 126.65 45.02 125.65 44.62 123.85 43.63 123.45 42.43 122.06 42.23 120.86 40.83 119.66 41.03 118.46 40.03 117.46 38.63 117.86 38.43 116.86 38.03 115.67 36.24 114.47 35.24 114.87 34.84 116.06 33.64 116.86 32.44 116.86 31.25 118.06 28.45 118.46 27.25 117.86 26.25 116.86 26.05 114.87 25.85 112.87 25.25 111.27 24.66 110.27 24.26 108.88 24.06 107.68 23.86 106.48 23.26 105.48 21.26 104.48 19.06 100.89 18.46 99.29 17.67 97.09 18.27 96.1 17.27 93.7 16.07 92.7 15.07 93.1 13.87 92.9 12.47 93.9 11.28 94.1 10.88 95.7 8.68 95.7 7.68 95.5 6.48 95.5 6.68 94.3 7.08 94.3z"></path>
        <path id="sardegna_8" title="Olbia - Tempio" d="M135.88,50.37L134.88 50.37 134.88 51.57 137.48 51.37 139.07 50.77 140.67 50.77 141.87 51.37 141.87 52.56 142.87 53.16 144.07 52.37 145.06 51.17 146.06 50.17 147.26 50.77 148.46 50.57 147.06 53.36 145.86 53.76 147.26 55.16 148.26 56.56 149.26 55.76 149.66 56.96 149.46 58.16 150.66 58.76 151.85 58.16 152.85 58.76 153.45 59.95 155.85 60.55 156.85 60.35 156.25 61.55 154.05 61.55 152.85 61.35 152.25 62.55 153.05 63.75 153.25 64.75 152.25 64.94 151.45 66.14 151.25 67.14 151.45 68.14 152.05 69.54 153.05 70.54 154.85 71.73 156.05 72.73 155.45 73.73 155.65 75.73 155.85 77.72 156.25 78.72 157.25 79.52 158.24 79.92 158.84 80.92 159.44 82.32 159.24 83.52 158.24 83.32 154.05 81.72 153.05 82.32 152.45 83.32 152.65 84.31 151.65 83.32 150.66 81.92 149.66 80.12 147.66 79.32 144.87 79.52 142.87 78.32 141.87 79.52 141.27 80.72 140.87 81.72 139.67 82.72 138.67 83.72 137.28 84.31 136.08 85.31 133.88 85.51 132.68 85.71 131.49 84.91 130.49 85.11 128.89 84.71 126.89 84.51 126.29 86.51 126.29 87.71 125.3 88.71 124.3 89.71 123.3 90.11 124.1 92.7 123.5 93.7 122.5 94.3 122.1 95.7 121.1 96.1 120.1 96.5 119.11 97.69 117.71 98.69 116.31 99.09 114.91 100.09 113.71 101.69 111.92 100.89 109.92 100.49 108.32 100.09 106.92 99.89 105.93 100.09 104.73 100.49 103.73 99.29 104.13 97.29 104.33 95.9 104.13 94.9 104.73 93.5 104.13 91.9 104.53 90.31 104.73 89.11 103.33 87.51 102.93 85.71 102.73 84.51 101.33 84.51 99.74 84.71 98.54 84.51 97.34 86.11 94.54 85.31 92.95 84.71 92.35 83.72 90.95 82.72 89.55 82.72 88.15 82.32 87.16 81.92 85.96 80.92 85.76 79.92 86.76 79.92 87.36 78.72 87.16 76.53 87.95 75.13 88.35 73.33 88.15 72.13 87.36 70.54 87.95 69.54 87.56 68.54 87.75 67.54 87.36 66.34 86.16 65.74 85.96 64.75 84.76 65.34 84.76 63.95 85.96 63.35 85.56 62.35 85.16 61.35 86.16 60.95 84.56 60.35 83.36 58.76 81.56 57.76 79.97 58.36 78.17 59.95 77.17 59.15 76.17 59.15 75.38 57.56 75.77 56.56 75.57 55.36 77.37 54.96 78.37 55.36 81.17 53.76 82.56 53.56 83.56 52.96 84.36 51.77 84.16 50.77 83.56 49.37 82.36 49.37 82.36 48.17 82.96 46.97 81.77 45.77 80.37 46.17 79.17 45.77 78.57 46.97 77.57 47.57 75.57 48.77 74.38 49.17 73.18 49.17 71.18 47.97 69.58 47.37 67.79 48.37 66.19 49.37 67.59 47.97 69.38 45.98 71.38 43.38 72.18 42.38 72.98 40.98 73.38 39.98 73.78 37.19 74.97 36.79 76.37 35.79 78.57 34.79 79.57 33.4 80.77 32.6 81.56 31.4 82.36 30.4 83.76 28.4 84.56 27.2 85.96 25.21 87.56 24.01 89.55 22.81 91.15 23.81 93.35 24.01 95.94 23.21 97.14 22.01 97.14 20.82 98.14 20.82 100.14 20.42 101.13 19.42 102.13 18.02 100.93 16.82 100.53 15.42 100.73 14.22 101.73 10.83 100.73 10.03 99.74 10.43 99.14 8.83 100.53 8.83 101.33 10.03 102.73 8.63 104.33 8.44 105.53 8.23 106.53 7.44 107.52 7.04 108.52 7.24 108.32 8.23 110.92 9.23 111.92 9.83 112.92 11.03 112.92 12.43 112.32 14.22 111.92 15.22 112.92 13.83 113.31 12.23 114.91 14.22 113.71 14.82 114.91 15.82 115.91 15.62 116.51 14.63 117.71 16.22 118.71 15.62 117.71 15.22 118.51 14.03 119.5 13.63 120.9 13.63 121.3 14.63 121.3 15.82 122.3 16.22 123.1 17.22 124.1 17.02 125.1 17.62 126.09 17.42 126.69 18.82 125.5 19.42 126.89 20.42 127.49 21.41 128.09 22.81 128.49 24.41 128.49 27 129.69 26.41 130.69 24.41 131.69 23.21 130.89 22.01 132.48 22.21 134.08 21.81 135.28 22.21 135.68 20.82 136.88 20.02 137.48 21.81 136.88 22.81 138.28 22.61 138.67 23.81 138.28 25.21 139.27 25.21 140.27 24.81 141.07 26.01 141.27 27.2 140.67 28.6 139.47 30 138.67 29 137.28 30.8 137.48 32.4 136.68 33.4 136.88 34.39 136.28 36.79 135.88 37.99 135.08 39.19 136.68 38.99 137.28 37.79 137.68 36.59 139.07 36.19 140.27 35.39 140.67 36.79 139.87 37.79 139.47 39.19 141.27 39.59 143.47 38.39 143.67 37.39 144.87 37.79 145.46 38.79 147.26 39.98 148.46 40.18 149.66 39.59 150.46 40.58 149.46 42.18 147.86 41.78 146.66 40.98 145.46 39.78 144.07 41.78 142.87 41.78 142.47 42.98 143.67 44.38 142.47 46.17 141.27 47.77 141.27 48.77 141.47 49.77 140.07 49.57 139.07 49.77 137.88 48.97 136.48 49.17 135.28 49.57 136.48 49.97 135.88 50.37z"></path>
    </g>
</svg>