<?xml version="1.0" encoding="utf-8"?>
<!-- (c) Daniele Irsuti | SVG map of Sicilia - High -->
<svg xmlns="http://www.w3.org/2000/svg" xmlns:amcharts="http://amcharts.com/ammap" xmlns:xlink="http://www.w3.org/1999/xlink" version="1.1">
	<defs>
		<style type="text/css">
			.land
			{
				fill: #CCCCCC;
				fill-opacity: 1;
				stroke:white;
				stroke-opacity: 1;
				stroke-width:0.5;
			}
		</style>

		<amcharts:ammap projection="mercator" leftLongitude="6.624486" topLatitude="47.092916" rightLongitude="18.521301" bottomLatitude="35.490303"></amcharts:ammap>

	</defs>
	<g>
        <path id="sicilia_1" title="Trapani" d="M23.09,74.19L24.59 73.79 24.19 73.29 24.69 72.69 25.49 72.59 26.09 71.99 26.29 71.09 26.59 69.99 26.79 69.19 27.09 68.59 26.89 68.09 26.09 67.39 25.69 66.49 25.99 65.99 26.29 65.39 26.59 64.79 27.09 63.89 27.39 62.99 27.49 62.39 27.29 61.79 27.69 60.99 27.99 60.39 28.49 59.69 27.99 59.49 27.49 59.39 27.99 59.19 28.79 58.59 29.19 58.09 29.89 57.29 30.39 56.09 30.89 55.79 31.89 55.89 32.49 55.99 32.99 55.89 33.99 55.49 34.49 55.09 34.89 54.59 35.49 54.09 35.39 53.59 35.29 53.09 35.89 52.69 36.49 52.79 37.09 53.19 37.99 52.89 38.39 52.39 38.79 51.89 39.19 51.09 38.89 50.19 38.29 49.09 38.09 48.59 38.49 47.99 38.99 47.59 38.89 48.09 39.39 48.49 39.99 48.29 40.69 48.19 40.99 48.79 40.79 49.29 40.89 49.99 42.09 50.99 41.99 51.59 42.09 52.49 42.39 52.99 42.89 53.69 43.19 54.49 43.79 55.09 45.09 56.09 45.69 56.49 46.29 56.29 46.39 56.79 46.79 57.69 47.59 57.99 48.29 57.89 48.89 57.79 49.49 57.69 50.09 57.49 50.59 57.29 51.29 56.99 51.89 56.79 52.19 57.49 52.29 57.99 52.79 58.29 53.39 58.89 53.19 59.49 53.69 59.99 54.89 61.19 55.39 61.39 55.99 61.89 55.49 62.49 55.69 63.19 55.49 63.89 55.69 64.49 55.09 65.09 54.59 65.59 53.39 65.49 53.09 65.99 52.29 65.89 51.09 66.09 50.49 65.79 49.99 66.09 49.89 66.79 50.49 67.09 50.99 67.39 51.09 67.99 51.29 68.49 50.69 69.29 50.79 69.79 51.39 69.99 51.89 70.19 52.09 70.79 53.79 70.89 54.29 70.99 54.89 70.99 55.49 71.19 56.19 71.19 56.99 71.19 57.69 70.89 58.29 71.19 58.19 71.79 57.59 72.59 57.89 73.19 58.49 73.39 58.89 73.89 58.39 73.99 57.49 74.59 56.99 74.89 56.29 74.89 55.49 75.29 54.89 75.39 54.49 75.89 53.69 76.29 53.09 76.49 52.39 76.79 51.89 76.99 51.49 77.79 50.99 78.39 50.69 78.89 49.79 79.59 49.69 80.09 49.69 80.79 48.89 81.29 48.59 82.19 48.29 82.69 49.29 82.69 49.79 82.49 49.79 82.99 49.39 84.39 49.39 85.09 49.49 85.59 49.39 86.09 48.99 86.79 48.49 86.89 47.59 86.69 46.99 86.69 45.69 86.79 44.99 86.69 42.99 86.89 42.19 87.09 41.29 87.39 40.79 87.59 40.19 87.79 39.19 88.09 38.59 88.19 38.09 88.49 37.49 88.49 36.59 87.49 35.99 86.89 35.19 85.89 34.79 85.29 34.49 84.69 34.39 84.19 33.89 83.39 33.19 82.89 31.79 82.19 31.19 82.09 30.49 82.19 29.29 82.29 28.79 81.59 28.09 80.99 27.79 80.49 27.09 79.89 26.79 79.39 26.69 78.49 26.69 77.99 26.79 77.39 26.59 76.79 26.19 76.19 25.89 75.59 25.59 74.79 25.09 74.19z M2.89,136.69L3.29 137.19 3.79 137.49 4.39 137.59 4.89 137.19 5.69 137.99 6.19 138.39 6.89 138.79 7.29 139.89 7.29 141.29 7.09 141.99 5.99 142.99 5.09 143.09 4.19 142.99 3.59 142.49 3.29 141.99 2.99 141.29 2.29 141.09 2.09 140.49 1.49 139.59 0.69 138.99 0.49 137.99 0.59 137.39 0.89 136.89 1.39 136.79 1.99 136.39 2.89 136.69z M16.29,64.99L16.29 64.39 16.79 64.49 17.39 64.09 18.09 64.09 18.19 64.69 18.59 65.29 19.39 64.79 19.89 64.89 20.29 65.39 20.79 65.69 20.99 66.19 20.89 66.69 20.09 66.59 19.39 65.89 18.29 65.79 17.79 65.99 17.29 66.19 16.49 65.99 16.19 65.09 16.29 64.99z M5.19,61.79L5.29 62.59 5.59 63.09 5.99 63.59 6.69 64.39 5.79 64.39 4.99 64.19 4.29 63.89 4.19 63.29 3.89 62.69 3.69 61.89 4.19 61.69 4.99 61.79 5.19 61.79z M19.89,61.39L19.19 61.59 18.69 61.39 18.29 60.69 18.39 60.19 18.89 59.59 19.39 60.19 19.59 60.69 19.89 61.39z M25.19,67.19L25.09 67.79 25.29 68.59 25.19 69.09 25.29 69.69 25.39 70.29 24.79 69.29 24.69 68.69 24.59 68.19 24.19 67.69 24.39 67.19 24.89 67.09 25.49 66.59 25.19 67.19z M25.99,68.29L25.49 67.69 25.99 68.19 25.99 68.29z"></path>
        <path id="sicilia_2" title="Agrigento" d="M55.29,76.09L55.69 76.69 56.29 77.89 56.89 78.29 57.49 78.59 57.99 79.19 58.59 78.99 59.09 78.89 59.69 78.59 60.29 78.39 61.19 78.89 62.19 79.19 62.79 78.89 63.69 78.89 63.99 79.39 64.49 79.79 64.99 79.89 64.99 80.99 64.89 81.69 65.19 82.29 65.89 82.79 66.59 83.19 67.09 83.89 67.39 83.09 67.79 82.29 68.29 81.49 68.99 81.79 69.59 81.99 70.19 81.79 70.69 81.09 70.79 80.59 71.69 80.69 72.19 81.29 71.69 81.79 70.59 82.79 71.39 83.69 71.29 84.69 70.79 85.29 71.79 85.89 71.89 86.79 71.89 87.49 72.29 87.99 72.79 88.19 73.59 87.69 74.29 87.39 74.79 87.19 75.09 86.29 74.49 86.09 73.99 84.89 73.89 84.39 74.09 83.59 74.69 83.29 74.59 82.69 74.09 82.09 74.09 81.19 74.39 80.49 75.09 80.49 75.69 80.99 76.79 80.79 77.39 80.29 77.99 81.09 78.89 80.69 80.19 80.19 80.39 80.89 81.19 81.49 81.79 81.59 82.39 81.39 83.19 81.59 83.79 81.39 84.29 80.79 84.79 80.29 86.09 80.09 86.69 79.99 87.39 79.89 87.89 79.89 88.49 79.09 88.69 78.59 88.59 77.99 89.49 77.39 90.39 77.79 91.19 77.99 91.89 78.09 92.59 78.29 93.19 78.29 94.09 77.89 94.79 77.59 95.39 77.79 95.39 78.29 95.99 78.29 96.39 78.79 96.29 79.79 95.89 80.39 96.49 80.99 96.99 81.59 96.79 82.09 96.09 82.09 95.39 81.99 94.79 81.79 94.39 82.39 94.19 82.89 93.69 82.69 93.59 83.29 93.09 83.99 92.59 83.89 91.39 84.39 90.89 84.49 89.99 84.59 89.39 84.39 88.89 84.89 88.89 85.59 89.69 86.19 89.99 86.99 90.09 87.49 89.99 87.99 90.19 88.89 90.09 89.59 89.99 90.39 89.49 90.59 88.79 91.39 88.49 91.99 88.19 92.69 88.69 92.69 89.29 92.69 89.99 92.69 90.59 93.39 91.09 93.89 91.59 93.89 92.39 93.99 93.09 94.39 93.79 94.29 94.59 93.69 95.19 93.79 95.69 93.89 96.19 93.99 96.69 94.09 97.29 94.09 98.19 93.69 98.49 94.19 98.49 94.69 99.09 95.49 99.89 95.79 100.69 95.69 101.49 96.19 101.79 96.79 101.39 97.29 100.89 97.39 100.99 97.89 100.49 98.59 101.19 99.09 101.79 99.49 102.49 99.89 103.39 100.39 103.99 100.39 104.59 100.29 105.19 100.69 105.79 101.29 106.29 101.59 106.29 102.19 106.89 102.59 107.59 102.99 108.19 102.49 108.49 103.19 108.29 103.69 107.69 104.29 107.79 104.79 107.69 105.39 107.29 105.99 107.79 106.69 107.19 106.89 106.59 107.29 106.79 107.99 106.89 108.49 107.39 109.09 106.39 109.19 107.09 109.99 107.59 110.49 107.79 110.99 108.39 111.19 109.19 112.29 109.39 113.49 109.29 114.29 108.79 114.49 107.59 114.49 106.49 114.59 105.89 114.69 105.29 114.99 103.89 115.59 103.39 115.39 102.69 115.59 102.09 115.59 101.39 115.39 100.09 114.69 99.89 114.09 99.29 113.39 98.79 112.99 98.19 112.69 97.69 112.69 96.69 112.69 95.79 112.69 95.19 112.69 94.39 112.59 93.79 112.19 93.19 111.39 92.69 111.19 92.09 111.19 91.29 110.59 90.79 110.29 89.99 109.99 89.49 109.39 89.29 108.79 88.89 108.19 88.29 107.69 87.79 107.39 86.99 106.99 86.49 106.39 85.89 105.89 84.99 105.39 84.39 104.69 83.79 104.29 83.19 104.29 82.19 104.29 81.69 103.99 81.09 103.99 80.29 104.19 79.29 103.89 78.59 103.89 77.69 103.49 77.09 103.19 76.49 102.39 75.99 101.79 75.39 101.49 74.89 101.29 74.29 100.79 73.49 100.29 72.89 99.99 71.59 99.79 70.99 98.99 70.39 98.49 69.89 98.19 69.39 98.09 68.79 98.09 68.59 97.59 68.39 96.89 68.09 96.39 67.39 95.59 66.79 95.19 66.49 94.69 66.09 94.19 65.49 93.59 64.99 93.59 64.49 92.99 63.49 91.99 62.69 91.59 61.99 91.59 61.39 91.69 60.79 91.69 59.59 91.39 58.49 91.19 57.79 91.19 57.29 91.29 56.79 91.69 55.69 91.99 55.19 91.69 55.29 91.09 54.89 90.59 54.09 89.39 53.49 88.79 52.89 88.29 52.39 87.69 51.49 87.19 50.99 87.09 50.09 86.89 49.49 86.99 48.99 86.89 49.29 86.39 49.49 85.69 49.39 85.19 49.39 84.39 49.49 83.39 49.79 82.89 49.29 82.69 48.49 82.79 48.49 82.19 48.69 81.49 49.29 80.99 49.69 80.19 49.79 79.59 50.29 79.09 50.99 78.39 51.49 77.79 51.69 77.19 52.39 76.79 53.09 76.49 53.69 76.29 54.19 76.19 54.79 76.09 55.29 76.09z M61.49,82.39L62.59 81.89 63.49 82.39 62.39 83.19 61.69 83.19 61.59 82.69 61.49 82.39z M34.99,220.19L35.49 220.19 36.19 220.39 36.99 220.49 37.69 220.49 38.19 220.59 38.69 220.49 39.89 220.49 40.39 220.69 40.39 221.69 40.49 222.29 39.99 222.29 39.19 222.19 38.19 222.09 37.19 221.39 35.49 220.99 34.99 221.09 34.39 220.89 34.79 220.29 34.99 220.19z M52.49,197.09L52.79 197.89 52.69 198.39 51.59 198.49 50.99 197.59 51.59 197.09 52.19 197.19 52.49 197.09z"></path>
        <path id="sicilia_3" title="Palermo" d="M56.29,49.59L56.79 49.09 56.99 48.59 56.59 48.09 57.39 47.19 57.99 46.69 58.59 46.69 59.29 46.89 59.89 47.09 60.59 46.89 60.89 47.69 61.49 47.99 62.29 47.99 63.59 47.49 64.79 46.69 64.99 45.89 65.49 45.89 66.09 45.79 66.59 45.89 67.09 45.09 67.69 44.59 68.59 44.09 69.29 44.89 69.19 45.39 70.29 46.19 70.99 46.19 71.29 46.69 71.39 47.19 71.69 47.89 71.89 48.49 71.59 49.19 71.69 49.69 71.39 50.29 72.19 51.19 72.89 51.59 73.49 51.89 75.09 52.09 75.69 52.09 76.29 52.09 76.99 51.89 77.59 51.69 78.69 51.09 78.79 50.39 79.29 50.69 79.89 50.89 80.39 50.99 80.39 51.69 80.49 52.39 80.39 52.89 80.39 53.49 80.59 54.09 81.19 54.69 81.89 55.39 83.29 56.09 83.79 56.19 84.39 56.69 84.99 57.19 85.59 57.29 86.39 57.79 87.09 58.09 87.69 58.09 88.69 58.29 89.29 58.19 89.79 58.29 89.19 58.29 89.39 58.89 90.19 59.19 90.79 59.19 91.29 59.49 91.79 59.39 92.29 59.29 92.89 59.19 93.89 58.99 94.49 58.89 94.99 58.59 95.59 58.49 96.19 58.29 96.89 57.99 97.49 57.69 98.89 56.89 99.89 56.29 100.89 55.69 101.49 55.19 102.59 54.89 103.19 54.99 103.79 54.89 104.59 54.69 105.09 54.39 105.79 54.19 106.29 54.69 106.79 54.99 107.49 55.39 107.99 55.49 108.59 55.39 109.09 55.39 109.79 55.59 110.79 55.39 111.49 54.99 112.09 54.79 112.99 55.19 113.49 54.99 113.89 55.49 114.19 56.09 114.69 56.49 115.49 58.09 116.29 58.99 116.29 59.49 116.79 59.59 117.29 60.19 117.59 60.99 117.59 61.49 118.09 61.49 118.99 61.29 119.49 61.29 119.29 61.89 118.79 62.19 118.89 62.79 118.69 63.79 118.59 64.29 118.89 64.79 118.89 65.59 119.29 66.39 118.69 66.89 118.49 67.69 118.79 68.29 118.99 68.99 118.49 69.59 118.99 70.09 118.99 70.59 119.89 71.19 120.09 71.79 120.39 72.39 119.99 73.29 119.69 73.79 119.19 75.09 118.89 75.59 118.29 75.99 117.69 76.09 116.99 76.59 116.59 77.09 115.99 77.09 115.49 77.39 114.89 77.69 114.29 77.39 113.79 77.79 113.69 78.29 113.99 78.99 114.09 79.59 113.79 80.19 113.29 80.99 112.59 81.29 112.09 81.69 111.89 80.89 111.39 80.59 110.79 80.59 110.29 80.19 109.59 79.69 108.99 79.49 108.39 79.49 107.79 79.69 107.49 80.29 106.89 80.59 106.79 81.09 106.79 81.69 107.09 82.29 106.39 82.89 105.29 83.09 104.69 83.49 103.79 83.79 103.09 83.49 101.89 83.19 102.09 82.49 101.59 82.39 100.69 81.99 100.39 81.49 100.69 80.79 100.39 80.19 100.49 79.69 100.49 79.19 99.79 78.99 99.39 78.39 99.29 77.89 98.69 77.49 97.89 77.19 97.19 77.09 95.79 76.49 95.99 75.69 95.99 75.19 95.79 74.59 95.39 73.99 94.69 74.69 93.99 75.29 93.79 75.89 93.89 76.39 93.39 76.89 92.49 76.69 92.19 77.29 91.69 77.99 91.19 77.99 90.49 77.89 89.99 77.59 88.99 77.59 88.69 78.09 88.59 78.79 87.89 79.79 87.39 79.89 86.69 79.99 86.09 80.09 84.99 80.19 84.29 80.59 83.99 81.19 83.39 81.59 82.79 81.49 81.99 81.49 81.39 81.49 80.79 81.29 80.49 80.29 78.89 80.69 78.29 80.89 77.79 80.49 77.09 80.39 76.09 81.39 75.59 80.79 74.89 80.39 73.89 80.89 74.09 81.69 74.49 82.59 74.79 83.09 74.09 83.49 73.89 84.19 73.89 84.89 74.29 85.79 74.79 86.09 74.99 86.99 74.29 87.39 73.59 87.69 72.89 88.19 72.39 87.99 71.89 87.49 71.79 86.89 71.99 86.09 70.89 85.39 70.99 84.89 71.39 84.09 70.89 82.89 71.69 81.79 72.19 81.39 72.09 80.89 70.89 80.39 70.69 80.99 70.19 81.79 69.59 81.99 69.09 81.89 68.49 81.59 67.89 81.89 67.49 83.09 67.19 83.89 66.89 83.29 66.09 82.89 65.19 82.29 64.89 81.79 64.99 80.99 65.09 80.19 64.49 79.79 63.99 79.39 63.69 78.89 62.79 78.89 62.19 79.19 61.69 79.19 60.49 78.39 59.69 78.59 59.09 78.89 58.59 78.99 57.99 79.19 57.49 78.59 56.89 78.29 56.29 77.89 55.69 76.99 55.29 76.09 54.69 76.09 54.49 75.49 55.09 75.29 55.79 75.19 56.79 74.89 57.49 74.59 57.99 74.19 58.59 73.99 58.59 73.49 58.09 73.29 57.59 72.69 57.79 72.09 58.39 71.69 58.59 71.09 58.09 71.39 56.99 71.19 56.49 71.49 55.89 71.19 55.39 71.19 54.69 70.99 54.19 70.99 52.09 70.79 51.99 70.19 51.39 69.99 50.89 69.89 50.69 69.29 51.09 68.79 51.39 68.19 50.89 67.69 50.79 66.99 50.19 67.09 50.09 66.19 50.19 65.69 51.09 66.09 52.09 65.99 52.69 65.79 53.29 65.79 53.09 65.19 54.29 65.69 54.99 65.29 55.39 64.79 55.39 64.29 55.69 63.19 55.49 62.49 55.79 61.99 55.39 61.39 54.89 61.19 54.19 60.49 53.59 59.99 53.29 59.19 52.79 58.29 52.29 57.99 52.19 57.49 51.99 56.89 52.79 56.29 53.89 55.49 54.59 54.99 55.39 54.49 56.19 54.09 56.79 53.59 56.69 52.79 56.49 51.99 56.29 51.39 55.79 50.89 55.39 50.29 56.09 49.89 56.29 49.59z M107.49,76.89L107.49 76.29 106.99 75.99 107.09 75.09 107.39 74.59 107.99 74.69 108.69 74.69 108.89 75.29 109.49 75.19 109.99 75.49 110.09 76.09 109.59 76.39 109.69 76.99 109.89 77.49 109.39 77.59 108.69 77.69 108.09 78.19 107.59 78.79 106.69 79.09 106.19 78.59 105.79 78.09 105.89 77.19 106.59 76.89 107.49 76.89z M60.29,12.39L60.99 12.59 60.59 13.79 59.99 14.19 59.29 14.19 59.19 12.89 59.79 12.49 60.29 12.39z"></path>
        <path id="sicilia_4" title="Messina" d="M153.29,43.89L153.79 44.09 155.29 44.09 156.39 43.99 157.19 43.79 157.79 44.39 157.89 44.99 158.49 45.29 158.99 45.69 159.59 45.69 160.19 45.59 160.89 45.19 161.49 44.69 162.49 44.19 163.09 43.79 163.69 43.39 164.19 42.89 164.49 42.39 164.89 41.89 165.39 41.39 165.79 40.79 166.19 39.89 166.39 39.19 166.69 38.39 166.79 37.69 166.89 37.19 166.59 36.69 166.59 36.09 166.09 35.59 166.59 35.49 167.29 36.39 167.49 36.99 167.39 37.89 166.99 38.89 167.59 39.29 168.19 39.49 169.69 39.49 170.19 39.29 170.89 38.99 171.49 38.79 172.09 38.69 172.79 38.49 173.59 38.09 174.19 37.89 175.09 37.39 176.09 36.79 177.19 36.19 177.79 35.69 178.39 35.09 178.99 34.49 179.89 33.69 180.39 33.19 180.99 32.69 181.89 32.39 182.59 32.49 183.09 32.89 183.79 33.29 185.59 33.89 186.09 33.99 186.69 33.99 187.19 33.89 187.79 34.09 186.49 34.79 185.89 34.99 185.19 35.29 184.59 35.69 183.89 36.59 183.69 37.29 183.59 37.89 183.49 38.39 183.29 38.89 183.29 39.49 183.49 38.99 184.09 38.99 183.89 39.59 183.19 40.79 182.09 42.79 181.79 43.69 181.69 44.29 181.19 45.49 180.99 46.09 180.59 47.29 180.19 47.79 179.89 48.29 179.59 48.89 179.09 49.39 178.19 50.59 177.99 51.19 177.59 51.69 177.19 52.39 176.39 53.49 175.59 54.79 175.29 55.39 174.89 55.99 174.39 56.69 173.99 57.39 173.69 57.89 173.69 58.49 173.09 58.99 172.39 59.99 171.79 60.69 171.59 61.19 171.39 61.69 171.89 62.29 171.59 62.89 170.99 62.69 170.49 63.29 170.19 63.79 169.99 64.89 169.69 65.39 169.19 65.39 168.99 64.79 168.19 63.99 167.89 63.29 167.59 62.69 166.99 62.39 166.49 62.09 165.99 61.49 164.99 61.19 164.49 60.49 163.89 60.09 162.89 60.19 162.29 59.89 161.69 59.49 160.89 59.79 160.19 59.89 159.69 59.79 158.99 60.19 158.49 60.49 157.69 60.49 157.09 60.29 156.59 60.29 155.79 60.69 155.29 60.89 154.99 60.39 154.29 59.79 153.69 59.69 153.49 59.09 153.29 58.49 152.89 57.89 152.79 57.29 152.29 56.79 151.69 56.89 151.19 57.19 150.49 57.49 149.69 58.29 148.69 58.99 148.09 58.09 148.19 57.49 147.59 56.99 147.49 57.59 147.29 58.29 146.69 58.49 146.19 58.19 145.79 57.69 144.79 57.69 144.49 58.19 143.99 58.29 143.69 58.79 143.69 59.59 143.49 60.09 143.99 60.29 144.49 60.49 144.39 61.09 144.39 61.59 143.79 61.19 143.29 61.09 142.69 60.99 142.69 61.69 142.79 62.69 142.79 63.39 142.69 63.89 142.79 64.49 143.59 63.29 144.59 63.39 145.19 63.79 145.59 64.69 145.79 65.29 146.19 66.39 146.19 67.19 145.49 66.89 144.79 66.69 144.59 66.19 143.79 66.09 143.29 66.49 142.79 66.39 142.19 66.59 141.39 66.89 140.69 67.39 140.29 67.99 139.19 67.89 138.59 67.59 137.99 67.39 137.19 67.49 136.69 67.59 135.89 67.39 135.09 66.79 134.19 65.99 133.59 65.89 133.39 65.19 133.69 64.69 134.29 64.29 134.19 63.29 133.59 63.09 133.09 63.29 132.69 63.79 132.19 64.29 131.69 64.39 130.99 64.89 130.69 65.39 130.29 66.79 129.79 67.49 128.59 67.49 128.29 66.99 128.49 66.49 128.79 65.89 128.29 65.49 127.49 65.29 126.79 65.09 126.19 64.59 125.69 64.29 125.39 64.89 125.29 65.39 124.59 65.29 123.69 65.49 122.79 65.69 122.19 66.19 121.59 66.39 120.59 66.39 119.29 66.39 118.89 65.59 118.89 64.89 118.69 64.39 118.69 63.79 118.79 63.19 118.79 62.49 118.99 61.99 119.59 61.39 118.99 61.29 118.09 61.49 117.59 61.49 117.59 60.99 117.59 60.49 117.09 60.09 116.69 59.49 116.09 59.39 115.89 58.39 114.89 56.89 114.49 56.39 113.99 55.69 113.69 55.19 114.39 55.29 115.09 55.29 115.69 55.39 116.29 55.49 117.19 55.49 117.99 55.29 118.99 55.59 119.49 55.59 120.19 55.49 120.99 55.19 121.59 54.69 122.19 54.59 122.89 54.89 123.39 54.79 124.09 54.39 124.59 54.09 125.19 53.69 125.79 53.09 126.59 52.89 127.09 53.29 127.69 53.39 128.39 53.39 129.39 53.09 129.99 52.89 130.89 52.69 131.39 52.49 131.99 51.89 132.49 51.39 133.09 51.29 133.89 51.39 134.39 51.19 134.89 50.89 135.39 50.49 136.09 50.49 136.69 50.19 137.29 49.59 137.89 49.19 138.49 48.59 139.09 47.99 139.69 47.09 140.19 46.39 141.09 45.19 141.79 44.09 142.79 44.49 143.59 44.49 144.19 44.69 145.19 44.29 145.89 43.99 146.59 43.79 147.09 43.59 147.79 43.39 148.29 43.39 149.19 43.09 149.89 42.19 150.49 41.59 150.99 41.89 151.69 42.39 152.19 42.79 152.89 43.59 153.29 43.89z M151.39,19.99L151.69 21.09 151.49 21.59 151.59 22.09 152.19 22.39 152.19 22.99 151.69 22.89 151.49 24.19 151.79 24.89 151.59 25.39 150.99 25.39 150.79 24.89 150.29 24.19 149.69 24.09 149.19 23.99 148.59 23.29 148.29 22.69 148.49 22.09 148.59 21.59 148.59 20.99 148.99 20.49 149.59 20.19 150.29 20.39 150.79 20.29 151.39 19.99z M146.29,16.49L146.69 17.29 146.79 17.89 146.59 18.39 146.69 19.19 146.19 19.69 145.49 19.49 144.59 18.89 143.99 18.79 143.49 18.59 142.89 18.19 142.99 17.59 143.29 16.79 144.59 16.59 145.29 16.79 145.79 16.59 146.29 16.49z M151.89,26.69L153.09 27.59 153.79 28.19 153.99 28.69 154.09 29.29 154.09 29.79 153.29 30.09 152.79 29.89 151.99 29.19 151.39 28.89 150.79 27.99 150.79 27.39 151.49 26.89 151.39 26.29 151.99 26.09 152.09 26.59 151.89 26.69z M163.29,3.09L162.19 2.59 161.79 1.99 162.29 1.49 162.89 0.69 163.39 0.49 163.89 0.59 164.49 0.89 164.29 1.49 163.89 2.09 163.79 2.69 163.29 3.09z M132.19,18.89L131.29 18.99 130.79 19.09 129.89 18.29 129.79 17.59 130.39 17.29 131.49 17.49 131.89 18.09 131.89 18.59 132.19 18.89z M120.39,21.49L119.89 21.29 119.69 20.69 119.89 20.19 120.59 19.89 121.09 20.49 120.99 20.99 120.39 21.49z M155.89,13.09L155.79 12.39 156.19 11.79 156.79 11.79 156.89 12.39 155.89 13.09z"></path>
        <path id="sicilia_5" title="Enna" d="M134.09,63.09L134.29 64.09 133.69 64.69 133.39 65.19 133.39 65.79 134.09 65.99 135.09 66.79 135.59 67.29 136.69 67.59 137.19 67.49 137.99 67.39 138.59 67.49 139.09 67.79 139.99 68.09 140.49 67.79 140.99 67.19 141.79 66.69 142.29 66.59 142.89 66.39 142.99 67.19 143.19 67.69 143.39 68.29 142.29 68.69 141.89 69.19 141.99 69.79 142.89 70.49 142.79 71.09 142.29 71.59 141.79 71.89 142.09 72.49 142.49 72.99 142.19 73.59 142.29 74.29 142.59 75.09 143.19 74.99 143.79 74.79 144.29 74.69 145.29 73.89 145.99 73.39 146.49 74.39 146.69 74.89 146.29 75.49 146.29 76.09 146.39 76.99 146.89 77.39 147.79 77.89 148.09 78.49 147.89 79.19 148.39 79.69 148.49 80.39 148.39 80.89 147.59 81.49 147.29 81.99 146.79 82.49 146.69 82.99 147.19 83.29 147.29 83.79 147.29 84.29 147.09 84.79 146.89 85.49 146.99 86.19 146.69 86.79 145.99 86.59 145.49 86.59 144.59 85.79 144.39 85.29 143.89 85.09 142.99 84.39 142.39 83.89 141.39 83.59 140.69 83.49 140.19 83.99 139.69 84.09 138.79 84.49 138.69 84.99 137.99 84.99 136.79 85.19 136.29 84.59 134.69 84.79 133.99 84.89 133.69 85.49 133.59 85.99 133.19 86.49 132.29 86.79 131.69 87.09 131.19 87.19 131.79 87.49 132.49 87.69 132.99 87.79 132.99 88.39 132.79 88.99 133.29 90.09 133.99 90.69 134.59 91.09 135.59 91.09 136.59 90.69 137.29 91.09 137.99 91.79 138.59 91.69 139.09 92.29 138.59 92.79 137.89 93.19 136.79 93.39 136.39 93.89 136.39 94.69 136.89 95.19 136.69 95.89 136.29 96.49 135.59 96.49 135.09 96.49 134.59 96.49 133.99 96.79 133.19 97.39 132.69 97.59 131.99 97.59 132.79 98.19 133.29 98.49 133.69 99.09 133.09 99.89 132.49 100.19 131.89 99.89 130.89 99.09 130.19 98.59 129.89 98.09 129.29 98.09 128.79 98.29 128.79 98.99 129.49 99.49 129.99 99.69 130.29 100.29 129.99 100.79 129.39 100.89 129.19 101.39 128.69 101.29 127.59 101.19 126.79 101.29 125.89 100.99 125.09 100.79 124.59 100.69 123.89 101.09 123.19 101.09 122.99 100.49 122.99 99.89 122.49 99.49 121.99 99.59 121.19 99.29 120.69 99.49 120.29 98.69 119.69 98.49 119.19 98.59 118.59 98.39 117.99 99.09 117.39 99.39 116.69 99.59 116.19 99.69 115.69 99.99 114.79 100.09 114.09 99.59 113.49 99.49 113.39 98.99 112.59 99.49 112.09 99.59 111.49 99.49 110.99 99.39 111.29 98.69 110.69 98.29 110.79 97.69 110.59 96.79 110.19 96.19 109.39 95.29 109.89 95.29 109.99 94.09 110.59 93.29 111.19 92.69 111.59 92.19 112.09 91.69 112.69 91.09 113.49 90.29 113.99 90.19 113.39 88.89 113.49 88.39 113.09 87.79 112.59 87.79 112.39 86.99 112.79 86.49 112.89 85.99 113.09 85.39 112.99 84.89 112.89 83.69 113.79 83.39 113.99 82.49 114.19 81.49 113.69 81.39 112.79 81.39 113.49 80.69 113.99 79.89 113.99 79.39 113.99 78.49 113.69 77.99 114.29 77.39 114.89 77.59 115.49 77.39 115.99 77.09 116.59 77.09 116.99 76.59 117.49 76.19 118.19 75.89 118.89 75.59 119.19 75.09 119.39 74.19 119.99 73.29 120.39 72.69 119.99 71.99 120.09 71.39 119.29 70.79 118.99 70.09 118.89 69.59 118.69 69.09 118.89 68.49 118.69 67.99 118.49 67.19 119.29 66.39 120.39 66.59 121.19 66.29 121.69 66.39 122.49 65.99 123.29 65.59 124.59 65.29 125.19 65.49 125.39 64.99 125.69 64.29 126.19 64.59 126.69 65.09 127.29 65.29 128.29 65.49 128.79 65.79 128.59 66.39 128.29 66.99 128.49 67.49 129.29 67.69 129.99 67.29 130.59 65.89 130.79 65.09 131.69 64.39 132.19 64.29 132.69 63.79 132.99 63.29 133.59 63.09 134.09 63.09z"></path>
        <path id="sicilia_6" title="Catania" d="M162.39,85.89L162.19 86.79 162.19 87.39 162.29 88.29 162.29 88.79 162.39 89.49 162.49 90.09 162.59 90.59 162.79 91.99 162.89 92.79 162.89 93.59 162.89 94.29 162.89 94.79 162.39 95.09 161.79 95.09 160.59 94.89 159.99 94.99 159.89 94.49 159.49 93.99 158.99 94.59 157.89 94.49 157.29 94.39 156.09 93.79 155.49 93.09 155.19 92.59 154.09 92.19 152.49 92.39 152.29 92.99 151.99 93.59 151.29 94.09 150.59 94.29 150.09 94.59 149.89 95.09 149.99 95.69 149.39 96.19 148.59 96.39 147.79 96.99 147.09 97.69 146.99 98.29 147.49 98.19 148.09 98.69 148.59 98.69 149.19 98.59 150.09 98.09 150.79 98.19 151.99 98.59 152.79 98.79 152.59 99.49 152.49 100.39 151.49 100.79 151.29 101.39 150.89 101.89 150.39 102.39 149.79 102.49 148.89 102.59 147.89 103.49 147.49 104.29 147.09 104.89 147.59 105.59 148.19 105.39 148.69 105.39 149.49 105.69 149.79 106.19 151.19 106.09 151.89 105.49 152.29 106.59 152.09 107.19 151.29 107.69 150.69 108.29 150.69 108.89 151.09 109.49 151.09 110.69 150.59 111.09 149.79 110.99 149.29 110.99 148.49 110.69 147.69 110.29 147.49 110.79 147.99 111.49 148.59 112.19 147.49 112.69 146.79 113.19 146.09 112.89 145.59 113.09 145.09 112.29 144.59 111.49 143.99 111.39 143.89 111.89 143.29 112.19 142.79 112.59 141.89 112.89 141.29 112.99 140.99 113.79 140.39 114.09 139.89 114.59 139.39 113.99 138.79 114.59 138.09 115.19 137.69 115.79 137.19 116.49 136.19 116.39 135.29 115.99 135.29 115.29 134.59 115.49 133.79 115.99 133.19 116.39 132.49 116.59 131.79 116.99 131.19 116.89 130.69 116.89 130.59 116.39 130.39 115.79 129.99 115.09 129.69 114.39 129.89 113.89 130.49 113.99 131.09 113.49 131.49 112.79 131.99 111.69 131.59 110.89 131.09 110.39 130.79 109.69 130.39 109.09 129.59 108.59 129.49 108.09 128.99 108.69 127.99 108.99 127.59 108.49 127.09 108.29 126.89 107.79 126.49 107.29 126.59 106.79 126.79 104.69 126.79 103.89 126.99 102.99 126.79 102.39 126.19 102.39 125.49 102.59 124.99 101.69 124.99 100.79 125.89 100.99 126.69 101.29 127.39 101.09 128.39 101.49 129.19 101.39 129.39 100.89 129.89 100.69 130.29 100.19 129.69 99.49 129.19 99.39 128.59 98.79 129.09 98.59 129.39 97.89 129.89 98.19 130.49 98.69 131.69 99.79 132.49 100.19 133.09 99.89 133.59 99.19 133.29 98.49 132.79 98.19 132.19 97.69 132.69 97.59 133.69 97.09 134.39 96.49 135.09 96.49 135.59 96.49 136.29 96.49 136.69 95.89 136.89 95.19 136.39 94.69 136.39 93.89 136.79 93.39 137.39 93.09 138.19 93.09 138.59 92.59 138.99 91.99 138.29 91.59 137.69 91.49 136.59 90.69 136.09 90.89 134.79 91.19 134.19 90.89 133.59 90.39 132.89 89.19 132.99 88.39 132.99 87.79 132.49 87.69 131.89 87.59 131.19 87.29 131.69 87.09 132.19 86.89 132.79 86.59 133.39 86.19 133.69 85.69 133.89 84.99 134.69 84.79 135.79 84.39 136.59 85.09 137.59 85.19 138.19 84.99 138.69 84.99 139.59 84.09 140.19 83.99 140.69 83.49 141.39 83.59 141.99 83.79 142.99 84.39 143.59 85.09 144.29 85.19 144.59 85.79 145.49 86.69 145.99 86.49 146.59 86.79 146.99 86.19 146.99 85.69 146.79 85.09 147.29 84.29 147.29 83.79 147.19 83.29 146.69 82.99 146.79 82.49 147.29 81.99 147.59 81.49 148.29 81.09 148.39 80.59 148.39 79.69 147.89 79.19 148.09 78.49 147.99 77.89 147.29 77.59 146.79 77.39 146.29 76.19 146.29 75.69 146.39 75.19 146.69 74.49 146.39 73.49 145.59 73.59 144.59 74.39 144.19 74.89 143.39 74.59 142.99 75.19 142.29 74.29 142.09 73.79 142.49 72.99 142.09 72.49 141.59 72.29 141.99 71.69 142.49 71.39 142.99 70.79 141.99 69.79 141.89 69.19 142.29 68.69 142.99 68.39 143.19 67.69 142.99 67.19 142.99 66.69 143.69 66.09 144.49 66.19 144.69 66.69 145.19 66.79 145.89 67.09 146.19 66.39 145.89 65.39 145.59 64.69 145.39 64.09 144.89 63.59 143.89 63.09 143.09 64.09 142.69 63.59 142.79 62.69 142.69 61.99 142.59 61.49 142.59 60.99 143.19 61.09 143.69 61.09 143.89 61.59 144.39 60.99 144.39 60.39 143.79 60.29 143.59 59.69 143.79 59.19 143.79 58.49 144.39 58.29 144.69 57.79 145.59 57.49 146.09 58.09 146.69 58.49 147.29 58.29 147.49 57.59 147.59 56.99 148.09 57.19 148.09 58.09 148.59 58.99 149.59 58.59 150.29 57.69 150.89 57.19 151.69 56.89 152.29 56.79 152.79 57.19 152.89 57.89 153.19 58.49 153.49 59.09 153.69 59.69 154.29 59.79 154.89 59.89 154.99 60.49 155.69 60.79 156.59 60.29 157.09 60.29 157.69 60.49 158.19 60.59 158.99 60.19 159.69 59.79 160.19 59.89 160.89 59.79 161.39 59.59 162.09 59.79 162.89 60.19 163.49 60.09 163.99 60.29 164.99 61.19 165.99 61.49 166.49 62.09 166.99 62.39 167.59 62.69 167.89 63.29 168.09 63.79 168.89 64.69 168.99 65.29 169.69 65.39 169.19 65.89 168.89 66.49 168.09 68.09 167.69 68.69 167.49 69.29 167.29 69.79 167.29 70.49 167.79 71.19 168.09 71.69 167.99 72.19 167.69 72.89 167.39 73.59 167.19 74.09 167.09 74.79 167.29 75.39 166.99 76.09 166.39 76.69 166.19 77.69 166.09 78.49 166.19 79.49 166.39 80.09 166.49 80.59 165.99 80.99 165.59 81.79 165.09 81.99 164.99 82.79 164.19 83.39 163.59 83.79 163.59 84.29 163.19 84.89 162.79 85.89 162.39 85.89z"></path>
        <path id="sicilia_7" title="Siracusa" d="M164.49,98.09L165.29 98.09 165.89 98.49 166.59 99.09 167.09 99.29 168.19 99.39 168.69 99.59 168.79 99.09 169.39 98.99 169.79 99.79 170.59 100.49 171.29 101.19 171.49 101.79 171.99 102.09 171.59 102.69 170.99 102.19 170.39 102.19 170.39 103.39 170.09 102.59 169.99 101.99 169.39 101.99 168.99 102.69 168.89 103.29 168.59 103.89 168.39 104.39 168.49 104.99 168.59 105.59 169.49 106.39 169.39 107.29 169.69 107.89 170.29 108.19 170.79 107.99 171.19 107.49 171.79 108.29 171.29 108.19 170.79 108.09 170.59 108.59 170.59 109.29 171.29 109.99 171.99 110.39 172.49 110.49 173.19 110.19 172.79 110.69 173.29 110.79 173.79 110.49 174.49 110.59 174.99 111.59 174.89 112.49 174.59 113.09 174.99 113.59 174.89 114.19 174.59 113.59 174.09 113.39 173.59 113.89 173.89 115.09 174.59 115.49 175.09 114.89 175.79 114.99 176.29 115.79 176.99 116.59 177.19 117.29 176.69 117.29 176.09 117.29 175.49 116.59 174.99 116.89 174.49 117.19 173.69 117.49 173.49 118.29 173.39 118.89 173.29 119.39 172.59 119.59 171.79 119.69 171.29 120.29 170.79 120.19 170.49 120.79 169.89 121.29 169.29 121.99 169.09 122.69 168.39 123.19 167.99 123.79 167.69 124.59 167.59 125.09 167.39 125.89 167.49 126.59 166.89 126.79 166.49 127.29 166.19 127.89 165.89 128.59 165.99 129.19 166.19 129.99 166.09 130.79 165.49 131.09 165.69 131.69 165.59 132.39 165.89 132.89 165.99 133.69 166.39 134.49 166.99 134.69 166.99 135.49 167.29 136.49 167.39 137.39 167.99 138.09 168.19 139.19 167.99 139.69 167.49 139.29 166.89 139.39 166.49 140.09 165.89 140.69 165.39 141.09 164.89 140.59 164.39 140.29 163.79 139.39 163.49 138.89 162.69 138.19 162.09 137.89 161.49 137.79 160.99 137.79 160.69 137.19 160.79 136.69 160.69 135.99 160.49 135.19 159.99 134.69 160.39 134.19 160.09 133.09 159.39 132.39 158.89 132.09 158.09 131.49 157.49 131.39 156.49 130.89 155.99 130.99 155.29 130.89 154.79 130.29 154.19 130.29 153.49 130.59 152.89 130.19 153.29 128.99 153.19 128.49 153.19 127.79 153.89 127.49 154.69 127.69 155.29 128.29 156.29 128.69 156.89 127.99 156.89 127.39 156.09 126.69 155.59 126.19 154.99 126.09 154.49 125.79 153.69 124.49 154.29 124.09 154.09 123.29 152.89 122.69 152.39 122.59 151.79 122.69 151.59 121.79 151.49 121.29 151.89 120.69 152.39 120.59 152.59 121.69 153.29 122.39 154.29 123.39 154.99 123.89 155.59 124.29 156.79 125.29 156.79 124.69 156.39 123.99 155.69 122.99 155.09 122.79 154.89 122.09 154.09 121.49 153.89 120.89 153.89 120.29 153.89 119.69 153.49 118.99 152.89 118.49 152.39 117.79 152.19 117.29 151.99 116.79 151.39 116.59 151.19 115.89 150.69 115.99 150.09 115.69 150.19 114.89 150.79 114.99 151.29 115.19 150.09 113.89 150.19 113.29 149.99 112.79 149.79 112.09 148.99 112.09 148.69 111.39 148.59 110.79 149.19 110.99 149.79 110.99 150.49 110.99 151.09 110.69 151.19 109.99 150.89 109.19 150.49 108.59 151.09 107.79 151.69 107.29 152.29 106.99 152.29 105.79 151.49 105.59 149.99 106.49 149.69 105.89 148.69 105.39 148.19 105.39 147.69 105.69 147.09 104.89 147.49 104.29 147.79 103.69 148.59 102.99 149.59 102.49 150.09 102.39 150.69 102.29 151.09 101.59 151.09 100.89 152.09 100.69 152.29 99.89 152.79 99.09 151.99 98.59 151.19 98.39 150.59 98.19 149.39 98.49 148.89 98.59 148.29 98.79 147.79 98.49 146.99 98.29 146.99 97.79 147.79 96.99 148.39 96.59 149.09 96.19 149.89 95.89 149.89 95.19 150.09 94.59 150.59 94.29 151.19 94.09 151.79 93.79 152.29 93.19 152.29 92.49 153.69 92.09 154.79 92.29 155.49 93.09 155.89 93.69 157.29 94.39 157.89 94.49 158.89 94.59 159.49 94.39 159.99 94.89 160.49 94.99 161.49 94.99 162.09 95.09 162.59 95.09 163.09 95.99 163.29 96.59 163.39 97.19 163.59 97.69 164.39 98.09 164.49 98.09z"></path>
        <path id="sicilia_8" title="Ragusa" d="M134.19,133.99L133.59 133.29 132.69 132.19 132.19 131.99 132.29 131.49 132.19 130.89 131.79 130.09 131.59 129.29 131.39 128.79 130.99 128.19 130.49 127.39 130.09 126.59 129.79 126.09 128.89 124.89 128.49 124.29 128.19 123.79 127.49 122.89 126.99 122.29 126.49 121.69 125.49 120.59 126.09 120.29 126.79 120.09 127.99 118.89 128.69 118.59 129.19 118.39 129.89 117.79 130.39 117.39 130.79 116.69 131.69 116.99 132.29 116.89 132.79 116.49 133.79 115.99 134.59 115.49 135.19 115.19 135.19 115.79 135.79 116.39 136.79 116.59 137.49 116.19 137.69 115.69 138.39 115.09 138.99 114.49 139.19 113.89 139.49 114.39 140.09 114.49 140.79 114.19 141.09 113.39 141.69 112.79 142.29 112.99 142.89 112.49 143.79 111.89 143.99 111.39 144.59 111.49 145.19 111.79 145.09 112.79 145.99 112.89 146.49 112.99 147.19 113.19 148.19 112.29 148.69 112.29 148.19 111.99 147.69 111.09 147.49 110.49 148.49 110.69 148.89 111.19 148.59 111.79 149.49 111.99 149.79 112.49 150.19 113.19 149.99 113.89 151.09 115.09 150.59 114.69 150.09 115.29 150.69 115.99 150.99 115.49 151.19 116.19 151.79 116.69 152.19 117.29 152.39 117.79 152.89 118.49 153.49 118.99 153.89 119.59 153.89 120.19 153.89 120.69 154.09 121.49 154.59 121.99 154.99 122.69 155.49 122.99 156.39 123.99 156.69 124.59 156.89 125.19 156.09 124.49 154.99 123.89 154.39 123.49 153.29 122.39 152.69 121.79 152.29 120.99 151.39 120.79 151.49 121.29 151.69 122.39 152.39 122.59 152.89 122.69 153.79 123.09 154.69 123.79 154.19 124.19 154.09 125.49 154.69 125.89 155.29 126.09 155.99 126.59 156.59 127.19 157.09 127.59 156.69 128.29 155.39 128.29 154.79 127.79 154.29 127.49 153.69 127.39 153.19 127.99 153.29 128.99 153.19 129.69 152.99 130.49 154.19 130.29 154.79 130.29 155.29 130.89 155.89 130.99 156.49 130.89 157.09 131.19 157.69 131.99 158.49 131.79 159.39 132.39 159.89 132.79 160.29 133.69 160.29 134.29 160.09 134.79 160.59 135.59 160.79 136.69 160.69 137.19 160.89 137.69 159.99 138.39 158.69 138.49 158.19 138.09 157.39 137.49 156.79 137.09 156.29 136.79 155.79 136.59 154.99 136.49 154.49 136.39 153.89 136.49 153.29 136.59 152.39 137.09 151.89 137.59 152.49 137.99 151.59 137.49 150.99 137.69 150.49 138.09 149.99 138.39 149.09 138.09 148.49 138.09 147.99 137.69 147.49 137.49 146.59 137.59 146.09 137.59 145.59 137.89 144.69 137.59 144.09 136.79 143.59 136.29 143.09 135.99 142.49 135.79 141.99 135.29 141.29 134.99 140.19 134.79 139.69 134.69 137.49 134.09 136.99 134.09 136.29 134.29 135.49 133.89 134.79 133.89 134.19 133.99z"></path>
        <path id="sicilia_9" title="Caltanissetta" d="M95.79,76.49L96.69 76.99 97.89 77.19 98.39 77.29 98.99 77.79 99.39 78.39 99.79 78.89 100.39 79.19 100.39 80.19 100.59 80.69 100.69 81.29 100.49 81.89 101.39 82.39 101.99 82.39 101.89 82.99 102.69 83.39 103.59 83.79 104.69 83.49 105.19 83.09 105.99 82.89 106.69 82.79 106.99 82.09 106.69 81.49 106.89 80.59 107.49 80.29 107.79 79.69 108.39 79.49 108.89 79.49 109.39 79.69 110.09 80.29 110.79 80.59 111.29 80.69 111.99 80.49 112.09 81.59 112.59 81.29 113.19 81.49 113.89 81.39 113.99 82.49 114.09 82.99 113.29 83.49 112.79 84.59 113.09 85.39 112.89 85.99 112.79 86.49 112.39 86.99 112.59 87.69 113.09 87.79 113.39 88.29 113.39 88.79 114.09 89.79 113.49 90.29 112.89 90.69 112.39 91.39 111.59 92.19 111.19 92.69 110.59 93.29 110.09 93.99 109.99 94.79 109.89 95.29 109.29 95.09 109.69 95.79 110.29 96.39 110.39 97.19 110.89 97.89 110.79 98.79 111.09 99.29 111.69 99.49 112.39 99.59 113.19 99.29 114.09 99.59 114.69 100.09 115.29 100.19 115.89 99.89 116.49 99.59 117.39 99.39 117.89 99.19 118.49 98.49 118.99 98.49 119.49 98.49 120.19 98.59 120.49 99.29 121.19 99.29 121.99 99.59 122.49 99.49 123.09 99.49 122.99 100.49 123.09 100.99 123.89 101.09 124.49 100.89 124.99 100.79 124.99 101.69 125.09 102.49 125.79 102.49 126.49 102.19 126.89 102.69 127.19 103.49 126.69 104.29 126.59 106.69 126.49 107.19 126.89 107.69 127.09 108.29 127.59 108.49 127.99 108.99 128.79 108.89 129.39 108.19 130.09 108.89 130.79 109.69 131.09 110.39 131.59 110.89 131.99 111.49 131.69 112.69 131.09 113.29 130.99 113.99 129.89 113.89 129.69 114.39 129.99 115.09 130.29 115.69 130.59 116.39 130.59 116.89 129.89 117.79 129.19 118.39 128.69 118.59 127.99 118.89 127.19 119.59 126.29 120.29 125.49 120.39 124.69 119.89 123.99 119.29 123.29 118.59 122.49 117.99 121.59 117.39 121.09 117.09 120.19 116.69 119.59 116.59 117.79 115.79 116.29 115.19 115.69 114.99 114.89 114.89 114.19 114.79 113.49 114.69 112.89 114.49 111.69 114.29 110.99 114.29 110.39 114.29 109.49 114.49 109.39 113.59 109.19 112.29 108.79 111.49 108.29 111.29 107.69 110.49 107.09 109.99 106.29 109.19 107.09 109.19 106.99 108.69 106.79 107.99 106.59 107.29 107.19 106.89 107.69 106.89 107.49 106.39 107.49 105.69 107.79 104.99 107.69 104.29 108.29 103.69 108.39 103.19 108.39 102.59 107.89 102.99 107.09 102.69 106.59 102.59 106.39 101.99 105.79 101.29 105.19 100.69 104.69 100.29 104.09 100.39 103.39 100.39 102.49 99.89 101.79 99.49 101.19 99.09 100.69 98.79 100.79 98.09 100.89 97.39 101.39 97.29 101.79 96.79 101.49 96.19 100.99 95.69 99.89 95.79 99.29 95.89 98.79 95.09 98.29 94.39 98.59 93.79 97.79 93.79 97.19 94.09 96.29 93.89 95.69 93.89 95.19 93.79 94.59 93.69 93.99 93.89 93.49 94.49 92.69 94.29 91.59 93.89 91.09 93.89 90.59 93.39 89.99 92.69 89.29 92.69 88.79 92.69 88.19 92.69 88.49 91.99 88.79 91.49 89.29 90.79 89.89 90.49 90.09 89.99 90.09 89.19 90.19 88.49 89.99 87.99 89.99 86.99 89.89 86.49 89.19 85.69 88.89 84.99 89.29 84.39 89.99 84.59 90.89 84.49 91.39 84.49 92.09 84.09 92.89 83.89 93.49 83.69 93.49 82.89 93.99 82.89 94.39 82.39 94.69 81.89 95.39 81.99 95.89 82.09 96.39 82.09 96.99 81.99 96.89 81.39 96.09 80.79 96.09 79.99 96.39 79.29 96.39 78.69 95.69 78.29 95.39 77.79 94.79 77.59 94.09 77.89 93.39 77.99 92.59 78.29 91.89 78.09 91.99 77.59 92.29 76.99 92.89 76.69 93.49 76.89 93.79 76.09 93.79 75.49 94.59 74.79 94.99 74.19 95.59 74.29 95.99 74.99 95.99 75.69 95.89 76.19 95.79 76.49z"></path>
    </g>
</svg>